<svg id="Capa_1" enable-background="new 0 0 472.258 472.258" height="512" viewBox="0 0 472.258 472.258" width="512" xmlns="http://www.w3.org/2000/svg"><g><path d="m236.13 16.866c20.481 0 31.453-9.136 37.074-16.866h-74.154c5.616 7.72 16.589 16.866 37.08 16.866z"/><path d="m290.314 4.486c-1.909 3.388-4.16 6.572-6.719 9.5-5.454 6.211-12.224 11.128-19.818 14.392 6.56 10.283 11.381 21.576 14.269 33.427 1.129 4.519-1.619 9.097-6.138 10.226s-9.097-1.619-10.226-6.138c-3.114-12.467-8.609-24.245-15.249-32.819-3.416.443-6.857.663-10.301.658-3.444.005-6.885-.215-10.301-.658-6.641 8.578-12.135 20.351-15.249 32.819-1.129 4.519-5.707 7.267-10.226 6.138s-7.267-5.707-6.138-10.226c2.888-11.851 7.708-23.144 14.269-33.427-7.592-3.265-14.361-8.182-19.813-14.392-2.559-2.928-4.81-6.112-6.719-9.5l-107.398 76.712-74.076 213.997c2.542 6.285 12.6 24.893 44.473 32.401l48.244-144.734c1.473-4.419 6.249-6.807 10.668-5.334s6.807 6.249 5.334 10.668l-50.598 151.797-15.782 47.343c3.268 5.593 14.601 20.672 46.528 32.603l88.141-279.114c1.402-4.442 6.14-6.905 10.582-5.503 4.442 1.403 6.905 6.14 5.503 10.582l-98.498 311.904c19.292 4.452 70.486 14.449 141.054 14.449 70.709 0 121.796-9.989 141.056-14.442l-98.499-311.911c-1.402-4.442 1.061-9.179 5.503-10.582 4.442-1.402 9.179 1.061 10.582 5.503l88.141 279.114c31.927-11.931 43.261-27.009 46.528-32.603l-15.782-47.343-50.599-151.796c-1.473-4.419.915-9.195 5.334-10.668s9.195.915 10.668 5.334l48.244 144.734c31.807-7.493 41.891-26.037 44.47-32.412l-74.072-213.987z"/></g></svg>