<?xml version="1.0" encoding="iso-8859-1"?>
<!-- Generator: Adobe Illustrator 18.0.0, SVG Export Plug-In . SVG Version: 6.00 Build 0)  -->
<!DOCTYPE svg PUBLIC "-//W3C//DTD SVG 1.1//EN" "http://www.w3.org/Graphics/SVG/1.1/DTD/svg11.dtd">
<svg version="1.1" id="Capa_1" xmlns="http://www.w3.org/2000/svg" xmlns:xlink="http://www.w3.org/1999/xlink" x="0px" y="0px"
	 viewBox="0 0 294.747 294.747" style="enable-background:new 0 0 294.747 294.747;" xml:space="preserve">
<g>
	<path d="M294.305,198.76L231.076,44.26c-4.49-10.971-15.167-18.138-27.021-18.138h-3.681v3.436
		c0,16.561-8.142,32.063-21.776,41.463c-6.224,4.291-14.313,4.777-21.006,1.262c-5.577-2.929-9.407-8.237-10.533-14.298
		c-0.012,0-0.025,0.001-0.037,0.001c-1.125,6.061-4.955,11.369-10.532,14.297c-6.693,3.515-14.782,3.029-21.006-1.262
		c-13.634-9.4-21.776-24.903-21.776-41.463v-3.435h-3.014c-11.854,0-22.531,7.167-27.021,18.138L0.441,198.76
		c-1.168,2.854,0.055,6.125,2.807,7.514l25.412,12.82c1.488,0.751,3.223,0.838,4.779,0.241c1.556-0.597,2.787-1.823,3.39-3.377
		l41.186-106.01l-0.197,152.759c-0.002,1.569,0.62,3.074,1.728,4.183c1.108,1.11,2.613,1.733,4.181,1.733h127.384
		c1.569,0,3.073-0.624,4.182-1.734c1.108-1.11,1.73-2.615,1.727-4.184l-0.237-152.652l41.134,105.904
		c0.603,1.553,1.835,2.78,3.39,3.377c1.556,0.597,3.292,0.51,4.779-0.241l25.411-12.82
		C294.251,204.885,295.473,201.613,294.305,198.76z"/>
	<path d="M182.976,26.122h-15c0,6.663-9.528,16.872-21.269,16.872h0c-11.741,0-21.269-10.209-21.269-16.872h-15
		c0,14.739,15.844,31.872,36.269,31.872c0.105,0,0.209-0.007,0.314-0.008c0.013,0,0.025-0.001,0.037-0.001
		C167.313,57.789,182.976,40.777,182.976,26.122z"/>
</g>
<g>
</g>
<g>
</g>
<g>
</g>
<g>
</g>
<g>
</g>
<g>
</g>
<g>
</g>
<g>
</g>
<g>
</g>
<g>
</g>
<g>
</g>
<g>
</g>
<g>
</g>
<g>
</g>
<g>
</g>
</svg>
