<svg id="Capa_1" enable-background="new 0 0 512 512" height="512" viewBox="0 0 512 512" width="512" xmlns="http://www.w3.org/2000/svg"><path d="m256 257.305c-2.851 0-5.701-.811-8.189-2.433l-247.811-161.493v44.567l256 166.83 256-166.83v-44.567l-247.811 161.493c-2.488 1.622-5.338 2.433-8.189 2.433z"/><path d="m256 337.68c-2.851 0-5.701-.811-8.189-2.433l-6.811-4.438v166.191c0 8.284 6.716 15 15 15s15-6.716 15-15v-166.191l-6.811 4.438c-2.488 1.622-5.338 2.433-8.189 2.433z"/><path d="m180.75 467c0 8.284 6.716 15 15 15s15-6.716 15-15v-155.905l-30-19.551z"/><path d="m301.25 467c0 8.284 6.716 15 15 15s15-6.716 15-15v-175.455l-30 19.551z"/><path d="m120.5 457c0 8.284 6.716 15 15 15s15-6.716 15-15v-185.168l-30-19.55z"/><path d="m361.5 457c0 8.284 6.716 15 15 15s15-6.716 15-15v-204.719l-30 19.55z"/><path d="m421.75 397c0 8.284 6.716 15 15 15s15-6.716 15-15v-74.662l30.25 30.255v144.407c0 8.284 6.716 15 15 15s15-6.716 15-15v-323.246l-90.25 58.814z"/><path d="m0 497c0 8.284 6.716 15 15 15s15-6.716 15-15v-144.407l30.25-30.255v74.662c0 8.284 6.716 15 15 15s15-6.716 15-15v-164.432l-90.25-58.814z"/><path d="m497 0h-482c-8.284 0-15 6.716-15 15v42.571l256 166.83 256-166.83v-42.571c0-8.284-6.716-15-15-15zm-361.5 90.25c-8.409 0-14.636-6.873-15-15-.363-8.101 7.154-15 15-15 8.409 0 14.636 6.873 15 15 .363 8.101-7.154 15-15 15zm60.25 40c-8.409 0-14.636-6.873-15-15-.363-8.101 7.154-15 15-15 8.409 0 14.636 6.873 15 15 .363 8.101-7.154 15-15 15zm60.25 50.375c-8.409 0-14.636-6.873-15-15-.363-8.101 7.154-15 15-15 8.409 0 14.636 6.873 15 15 .363 8.101-7.154 15-15 15zm0-90.375c-8.409 0-14.636-6.873-15-15-.363-8.101 7.154-15 15-15 8.409 0 14.636 6.873 15 15 .363 8.101-7.154 15-15 15zm60.25 40c-8.409 0-14.636-6.873-15-15-.363-8.101 7.154-15 15-15 8.409 0 14.636 6.873 15 15 .363 8.101-7.154 15-15 15zm60.25-40c-8.409 0-14.636-6.873-15-15-.363-8.101 7.154-15 15-15 8.409 0 14.636 6.873 15 15 .363 8.101-7.154 15-15 15z"/></svg>