<?xml version="1.0" encoding="iso-8859-1"?>
<!-- Generator: Adobe Illustrator 18.0.0, SVG Export Plug-In . SVG Version: 6.00 Build 0)  -->
<!DOCTYPE svg PUBLIC "-//W3C//DTD SVG 1.1//EN" "http://www.w3.org/Graphics/SVG/1.1/DTD/svg11.dtd">
<svg version="1.1" id="Capa_1" xmlns="http://www.w3.org/2000/svg" xmlns:xlink="http://www.w3.org/1999/xlink" x="0px" y="0px"
	 viewBox="0 0 286.878 286.878" style="enable-background:new 0 0 286.878 286.878;" xml:space="preserve">
<g>
	<g>
		<path d="M225.559,127.962c8.032-16.35,6.71-35.754-3.441-50.88c-10.416-15.522-17.511-41.91-18.283-72.234
			C203.766,2.152,201.562,0,198.865,0H187.76c-2.691,0-4.889,2.137-4.969,4.826c-1.239,41.595-18.381,74.57-39.351,74.57
			c-20.969,0-38.112-32.975-39.35-74.57C104.008,2.139,101.807,0,99.119,0H88.013c-2.699,0-4.902,2.15-4.97,4.848
			C82.271,35.172,75.176,61.56,64.76,77.082c-10.137,15.106-11.462,34.551-3.441,50.88l0.013,0.026
			c11.042,22.479,14.208,48.016,8.988,72.511l-15.911,74.664c-0.61,2.862,0.105,5.846,1.946,8.12
			c1.841,2.274,4.61,3.596,7.536,3.596h159.095c2.926,0,5.695-1.321,7.536-3.596c1.841-2.274,2.556-5.258,1.946-8.12l-15.911-74.663
			c-5.22-24.495-2.054-50.033,8.989-72.512L225.559,127.962z"/>
	</g>
</g>
<g>
</g>
<g>
</g>
<g>
</g>
<g>
</g>
<g>
</g>
<g>
</g>
<g>
</g>
<g>
</g>
<g>
</g>
<g>
</g>
<g>
</g>
<g>
</g>
<g>
</g>
<g>
</g>
<g>
</g>
</svg>
