<?xml version="1.0" encoding="iso-8859-1"?>
<!-- Generator: Adobe Illustrator 18.0.0, SVG Export Plug-In . SVG Version: 6.00 Build 0)  -->
<!DOCTYPE svg PUBLIC "-//W3C//DTD SVG 1.1//EN" "http://www.w3.org/Graphics/SVG/1.1/DTD/svg11.dtd">
<svg version="1.1" id="Capa_1" xmlns="http://www.w3.org/2000/svg" xmlns:xlink="http://www.w3.org/1999/xlink" x="0px" y="0px"
	 viewBox="0 0 289.068 289.068" style="enable-background:new 0 0 289.068 289.068;" xml:space="preserve">
<g>
	<polygon points="167.663,176.068 251.218,113 121.392,113 37.829,176.068 	"/>
	<g>
		<path d="M259.995,191.068h-5.63l-24.039,24.107l19.59,19.589c2.929,2.93,2.929,7.678,0,10.607l-19.59,19.589l19.59,19.589
			c1.22,1.221,1.974,2.818,2.153,4.519h7.926c6.14,0,11.118-4.978,11.118-11.118v-75.765
			C271.113,196.046,266.136,191.068,259.995,191.068z"/>
	</g>
	<path d="M174.416,259.657l19.59-19.589l-19.59-19.589c-1.406-1.407-2.196-3.314-2.196-5.304c0-1.989,0.79-3.896,2.197-5.304
		l18.805-18.804H17.955v86.882c0,6.14,4.978,11.118,11.118,11.118h164.148l-18.805-18.804
		C171.488,267.335,171.488,262.587,174.416,259.657z"/>
	<g>
		<path d="M214.416,259.657l19.59-19.589l-19.59-19.589c-1.406-1.407-2.196-3.314-2.196-5.304c0-1.989,0.79-3.896,2.197-5.304
			l18.805-18.804h-18.8l-24.095,24.107l19.59,19.589c2.929,2.93,2.929,7.678,0,10.607l-19.59,19.589l19.59,19.589
			c1.22,1.221,1.974,2.818,2.153,4.519h21.152l-18.805-18.804C211.488,267.335,211.488,262.587,214.416,259.657z"/>
	</g>
	<g>
		<path d="M39.152,54.303c-2.929-2.93-2.929-7.678,0-10.607l19.59-19.589L34.551,0h-5.478c-6.14,0-11.118,4.977-11.118,11.118
			v75.764c0,6.14,4.978,11.118,11.118,11.118h5.494l24.175-24.108L39.152,54.303z"/>
	</g>
	<g>
		<path d="M79.152,54.303c-2.929-2.93-2.929-7.678,0-10.607l19.59-19.589L74.456,0h-18.61l18.804,18.803
			c1.407,1.407,2.197,3.315,2.197,5.304c0,1.989-0.79,3.896-2.196,5.304L55.062,49l19.59,19.589c2.929,2.93,2.929,7.678,0,10.607
			L55.847,98h18.847l24.048-24.108L79.152,54.303z"/>
	</g>
	<path d="M259.995,0H95.846l18.804,18.803c1.407,1.407,2.197,3.315,2.197,5.304c0,1.989-0.79,3.896-2.196,5.304L95.062,49
		l19.59,19.589c2.929,2.93,2.929,7.678,0,10.607L95.847,98h175.266V11.118C271.113,4.978,266.136,0,259.995,0z"/>
</g>
<g>
</g>
<g>
</g>
<g>
</g>
<g>
</g>
<g>
</g>
<g>
</g>
<g>
</g>
<g>
</g>
<g>
</g>
<g>
</g>
<g>
</g>
<g>
</g>
<g>
</g>
<g>
</g>
<g>
</g>
</svg>
