<?xml version="1.0" encoding="iso-8859-1"?>
<!-- Generator: Adobe Illustrator 18.0.0, SVG Export Plug-In . SVG Version: 6.00 Build 0)  -->
<!DOCTYPE svg PUBLIC "-//W3C//DTD SVG 1.1//EN" "http://www.w3.org/Graphics/SVG/1.1/DTD/svg11.dtd">
<svg version="1.1" id="Capa_1" xmlns="http://www.w3.org/2000/svg" xmlns:xlink="http://www.w3.org/1999/xlink" x="0px" y="0px"
	 viewBox="0 0 304.92 304.92" style="enable-background:new 0 0 304.92 304.92;" xml:space="preserve">
<g>
	<path d="M144.966,79.12c-23.546-9.61-32.048-63.192-33.824-76.619c-0.104-0.788-0.53-1.498-1.177-1.961
		c-0.646-0.463-1.456-0.641-2.236-0.486L70.125,7.531c-1.53,0.304-2.537,1.771-2.272,3.308c2.4,13.953,1.954,31.482-1.952,49.98
		c-4.877,23.104-14.083,42.616-24.475,54.406c-2.778,3.152-3.507,7.619-1.879,11.492c17.172,40.845,28.982,85.955,17.092,128.563
		l-6.797,24.33c-0.806,2.885-0.395,5.974,1.137,8.547c1.532,2.574,4.052,4.407,6.972,5.074l48.969,11.179
		c6.111,1.395,12.523-0.108,17.378-4.072l20.668-16.878V79.12z M126.02,241.576H87.453c-4.142,0-7.5-3.357-7.5-7.5
		c0-4.142,3.358-7.5,7.5-7.5h38.566c4.143,0,7.5,3.358,7.5,7.5C133.52,238.219,130.162,241.576,126.02,241.576z"/>
	<path d="M263.497,115.223c-10.39-11.792-19.587-31.31-24.464-54.404c-3.907-18.498-4.353-36.027-1.952-49.98
		c0.264-1.536-0.743-3.004-2.272-3.308l-37.598-7.475c-0.781-0.155-1.592,0.02-2.239,0.485c-0.647,0.465-1.071,1.178-1.174,1.967
		c-1.748,13.447-10.146,67.064-33.831,76.627v204.347l20.526,16.827c4.856,3.981,11.28,5.494,17.402,4.098l49.047-11.181
		c2.92-0.666,5.441-2.499,6.973-5.072c1.533-2.573,1.945-5.662,1.139-8.547l-6.79-24.328c-11.898-42.607-0.08-87.726,17.109-128.562
		C267.002,122.848,266.273,118.374,263.497,115.223z M221.48,241.576h-38.566c-4.143,0-7.5-3.357-7.5-7.5c0-4.142,3.357-7.5,7.5-7.5
		h38.566c4.143,0,7.5,3.358,7.5,7.5C228.98,238.219,225.622,241.576,221.48,241.576z"/>
</g>
<g>
</g>
<g>
</g>
<g>
</g>
<g>
</g>
<g>
</g>
<g>
</g>
<g>
</g>
<g>
</g>
<g>
</g>
<g>
</g>
<g>
</g>
<g>
</g>
<g>
</g>
<g>
</g>
<g>
</g>
</svg>
