<?xml version="1.0" encoding="iso-8859-1"?>
<!-- Generator: Adobe Illustrator 18.0.0, SVG Export Plug-In . SVG Version: 6.00 Build 0)  -->
<!DOCTYPE svg PUBLIC "-//W3C//DTD SVG 1.1//EN" "http://www.w3.org/Graphics/SVG/1.1/DTD/svg11.dtd">
<svg version="1.1" id="Capa_1" xmlns="http://www.w3.org/2000/svg" xmlns:xlink="http://www.w3.org/1999/xlink" x="0px" y="0px"
	 viewBox="0 0 305.333 305.333" style="enable-background:new 0 0 305.333 305.333;" xml:space="preserve">
<g>
	<path d="M232.879,118.759c-1.421-8.623-3.293-16.548-5.707-23.47c-3.525-10.108-6.239-20.541-8.12-31.122h-24.9
		C204.954,99.902,220.97,113.606,232.879,118.759z"/>
	<path d="M160.167,49.167h56.795c-0.667-6.596-1.013-13.217-1.013-19.826V6.808c0-3.76-3.048-6.808-6.808-6.808h-48.974V49.167z"/>
	<path d="M145.167,49.167V0H96.185c-3.76,0-6.808,3.048-6.808,6.808v22.549c0,6.647-0.339,13.252-0.993,19.81H145.167z"/>
	<path d="M221.141,129.582c-19.28-11.042-33.598-33.042-42.607-65.415h-18.368v46.5c0,4.143-3.357,7.5-7.5,7.5s-7.5-3.357-7.5-7.5
		v-46.5h-18.368c-9.009,32.373-23.326,54.373-42.607,65.415c-4.985,2.855-9.691,4.603-13.852,5.663
		c-5.813,60.224,4.769,141.752,7.789,164.188c0.454,3.375,3.333,5.901,6.739,5.901h135.59c3.412,0,6.283-2.518,6.739-5.9
		c3.022-22.435,13.611-103.964,7.796-164.189C230.832,134.185,226.127,132.437,221.141,129.582z"/>
	<path d="M111.183,64.167h-24.88c-1.872,10.531-4.586,20.917-8.144,31.12c-2.417,6.932-4.29,14.87-5.712,23.507
		C84.372,113.661,100.372,99.955,111.183,64.167z"/>
</g>
<g>
</g>
<g>
</g>
<g>
</g>
<g>
</g>
<g>
</g>
<g>
</g>
<g>
</g>
<g>
</g>
<g>
</g>
<g>
</g>
<g>
</g>
<g>
</g>
<g>
</g>
<g>
</g>
<g>
</g>
</svg>
