<?xml version="1.0" encoding="iso-8859-1"?>
<!-- Generator: Adobe Illustrator 18.0.0, SVG Export Plug-In . SVG Version: 6.00 Build 0)  -->
<!DOCTYPE svg PUBLIC "-//W3C//DTD SVG 1.1//EN" "http://www.w3.org/Graphics/SVG/1.1/DTD/svg11.dtd">
<svg version="1.1" id="Capa_1" xmlns="http://www.w3.org/2000/svg" xmlns:xlink="http://www.w3.org/1999/xlink" x="0px" y="0px"
	 viewBox="0 0 306.993 306.993" style="enable-background:new 0 0 306.993 306.993;" xml:space="preserve">
<g>
	<path d="M120.753,68.178c0.213,1.382,1.115,2.561,2.394,3.128c1.278,0.567,2.758,0.445,3.926-0.325l26.425-17.412l26.433,17.412
		c1.168,0.769,2.647,0.892,3.926,0.324c1.278-0.567,2.18-1.746,2.393-3.129l6.546-42.481c1.64-10.644-5.059-20.81-15.494-23.472
		c-0.431-0.11-0.864-0.207-1.298-0.289C169.538,0.713,161.809,0,153.501,0c-8.313,0-16.048,0.714-22.518,1.939
		c-0.568,0.107-1.137,0.242-1.705,0.401c-10.243,2.857-16.692,12.891-15.071,23.401L120.753,68.178z M134.154,26.704
		c0.325-0.826,1.081-1.406,1.963-1.505c4.202-0.467,8.979-0.771,14.091-0.862c1.085-0.02,2.18-0.032,3.292-0.032
		c1.105,0,2.192,0.013,3.27,0.032c5.108,0.091,9.887,0.394,14.093,0.862c0.883,0.098,1.64,0.677,1.965,1.504
		s0.165,1.765-0.414,2.439l-18.928,22.045l-18.922-22.044C133.987,28.469,133.829,27.53,134.154,26.704z"/>
	<path d="M288.687,177.414L228.974,42.848c-3.02-6.8-8.711-12.084-15.75-14.596c-1.775-0.639-3.597-1.084-5.439-1.339L200.1,76.788
		c-0.778,5.048-4.071,9.354-8.74,11.426c-1.946,0.864-4.019,1.29-6.084,1.29c-2.89,0-5.765-0.835-8.253-2.474l-23.525-15.497
		l-23.517,15.496c-2.489,1.64-5.363,2.475-8.254,2.475c-2.064,0-4.137-0.426-6.082-1.289c-4.669-2.072-7.963-6.376-8.742-11.424
		L99.21,26.913c-1.842,0.256-3.668,0.7-5.45,1.338c-7.03,2.512-12.712,7.796-15.732,14.596L18.315,177.414
		c-1.746,3.927-0.111,8.536,3.741,10.467l16.166,8.148c1.921,0.961,4.129,1.136,6.162,0.48c2.014-0.674,3.695-2.125,4.656-4.037
		l43.676-86.641L65.67,297.398c-0.441,2.368,0.196,4.809,1.735,6.662c1.539,1.853,3.823,2.933,6.232,2.933h72.36v-67.245
		c0-4.143,3.357-7.5,7.5-7.5c4.143,0,7.5,3.357,7.5,7.5v67.245h69.655c3.079,0,5.999-1.368,7.97-3.734
		c1.971-2.366,2.786-5.485,2.233-8.515l-26.532-188.822l43.621,86.549c0.961,1.903,2.642,3.363,4.656,4.037
		c2.051,0.656,4.241,0.48,6.152-0.462l16.176-8.166C288.77,185.95,290.424,181.341,288.687,177.414z M153.497,211.364
		c-4.563,0-8.268-3.696-8.268-8.259c0-4.573,3.704-8.277,8.268-8.277c4.563,0,8.268,3.704,8.268,8.277
		C161.764,207.668,158.06,211.364,153.497,211.364z M153.497,178.302c-4.563,0-8.268-3.714-8.268-8.277
		c0-4.564,3.704-8.269,8.268-8.269c4.563,0,8.268,3.704,8.268,8.269C161.764,174.588,158.06,178.302,153.497,178.302z
		 M153.497,145.221c-4.563,0-8.268-3.704-8.268-8.268c0-4.564,3.704-8.268,8.268-8.268c4.563,0,8.268,3.704,8.268,8.268
		C161.764,141.516,158.06,145.221,153.497,145.221z M153.497,112.149c-4.563,0-8.268-3.704-8.268-8.268
		c0-4.564,3.704-8.269,8.268-8.269c4.563,0,8.268,3.704,8.268,8.269C161.764,108.445,158.06,112.149,153.497,112.149z"/>
</g>
<g>
</g>
<g>
</g>
<g>
</g>
<g>
</g>
<g>
</g>
<g>
</g>
<g>
</g>
<g>
</g>
<g>
</g>
<g>
</g>
<g>
</g>
<g>
</g>
<g>
</g>
<g>
</g>
<g>
</g>
</svg>
