<?xml version="1.0" encoding="iso-8859-1"?>
<!-- Generator: Adobe Illustrator 18.0.0, SVG Export Plug-In . SVG Version: 6.00 Build 0)  -->
<!DOCTYPE svg PUBLIC "-//W3C//DTD SVG 1.1//EN" "http://www.w3.org/Graphics/SVG/1.1/DTD/svg11.dtd">
<svg version="1.1" id="Capa_1" xmlns="http://www.w3.org/2000/svg" xmlns:xlink="http://www.w3.org/1999/xlink" x="0px" y="0px"
	 viewBox="0 0 300.969 300.969" style="enable-background:new 0 0 300.969 300.969;" xml:space="preserve">
<g>
	<path d="M210.669,38.667H90.3c-3.935,0-7.252,2.949-7.701,6.859c-0.853,7.436-1.185,14.929-0.974,22.427l6.435,229.004
		c0.063,2.234,1.892,4.012,4.126,4.012h37.508c2.161,0,3.957-1.667,4.117-3.823l14.152-190.766c0.098-1.315,1.193-2.332,2.512-2.332
		c1.319,0,2.414,1.017,2.512,2.332l14.152,190.766c0.16,2.155,1.955,3.823,4.117,3.823h37.507c2.235,0,4.063-1.778,4.126-4.012
		l6.454-229.001c0.211-7.499-0.12-14.993-0.973-22.43C217.921,41.608,214.612,38.667,210.669,38.667z"/>
	<path d="M211.653,0H89.315c-4.281,0-7.751,3.47-7.751,7.752v11.164c0,4.281,3.47,7.751,7.751,7.751h122.338
		c4.281,0,7.751-3.47,7.751-7.751V7.752C219.405,3.47,215.934,0,211.653,0z M138.484,18c-2.577,0-4.667-2.089-4.667-4.667
		c0-2.577,2.089-4.667,4.667-4.667c2.577,0,4.667,2.089,4.667,4.667C143.151,15.911,141.062,18,138.484,18z M162.484,18
		c-2.577,0-4.667-2.089-4.667-4.667c0-2.577,2.089-4.667,4.667-4.667s4.667,2.089,4.667,4.667C167.151,15.911,165.062,18,162.484,18
		z"/>
</g>
<g>
</g>
<g>
</g>
<g>
</g>
<g>
</g>
<g>
</g>
<g>
</g>
<g>
</g>
<g>
</g>
<g>
</g>
<g>
</g>
<g>
</g>
<g>
</g>
<g>
</g>
<g>
</g>
<g>
</g>
</svg>
