<?xml version="1.0" encoding="iso-8859-1"?>
<!-- Generator: Adobe Illustrator 18.0.0, SVG Export Plug-In . SVG Version: 6.00 Build 0)  -->
<!DOCTYPE svg PUBLIC "-//W3C//DTD SVG 1.1//EN" "http://www.w3.org/Graphics/SVG/1.1/DTD/svg11.dtd">
<svg version="1.1" id="Capa_1" xmlns="http://www.w3.org/2000/svg" xmlns:xlink="http://www.w3.org/1999/xlink" x="0px" y="0px"
	 viewBox="0 0 290.094 290.094" style="enable-background:new 0 0 290.094 290.094;" xml:space="preserve">
<g>
	<path d="M175.243,222.151c-2.079,2.077-5.248,2.81-8.161,1.638c-0.969-0.39-1.826-1.019-2.564-1.757l-17.109-17.11
		c-1.304-1.304-3.417-1.304-4.721,0l-17.228,17.229c-2.93,2.928-7.678,2.928-10.607,0l-17.233-17.234
		c-1.302-1.302-3.412-1.304-4.716-0.005l-24.443,19.343l-1.413,13.727c-0.401,4.293,1.498,8.549,5.143,11.109
		c2.127,1.494,4.713,2.194,7.312,2.194h131.092c2.599,0,5.185-0.7,7.312-2.194c3.645-2.56,5.545-6.816,5.143-11.109l-1.429-14.01
		l-24.428-19.083c-1.306-1.289-3.408-1.281-4.705,0.016L175.243,222.151z"/>
	<path d="M287.804,149.162L216.34,49.788c-4.957-6.893-12.929-10.98-21.42-10.98h-11.665c-2.794,0-5.151,2.045-5.555,4.81
		c-2.328,15.946-16.06,28.191-32.652,28.191s-30.324-12.245-32.652-28.191c-0.403-2.758-2.767-4.81-5.555-4.81H95.175
		c-8.491,0-16.463,4.086-21.42,10.98L2.29,149.162c-3.708,5.157-2.827,12.298,2.023,16.399l13.14,11.11
		c4.83,4.084,11.982,3.787,16.458-0.683l38.508-38.459l-3.943,70.542l21.483-21.42c2.93-2.928,7.678-2.928,10.607,0l19.589,19.59
		l19.589-19.59c1.407-1.406,3.314-2.196,5.304-2.196c1.989,0,3.896,0.79,5.304,2.197l19.588,19.589l19.589-19.59
		c2.93-2.928,7.678-2.928,10.607,0l21.232,20.771l-3.692-69.893l38.508,38.459c4.475,4.469,11.628,4.766,16.458,0.683l13.14-11.11
		C290.632,161.46,291.513,154.318,287.804,149.162z"/>
</g>
<g>
</g>
<g>
</g>
<g>
</g>
<g>
</g>
<g>
</g>
<g>
</g>
<g>
</g>
<g>
</g>
<g>
</g>
<g>
</g>
<g>
</g>
<g>
</g>
<g>
</g>
<g>
</g>
<g>
</g>
</svg>
