<?xml version="1.0" encoding="iso-8859-1"?>
<!-- Generator: Adobe Illustrator 18.0.0, SVG Export Plug-In . SVG Version: 6.00 Build 0)  -->
<!DOCTYPE svg PUBLIC "-//W3C//DTD SVG 1.1//EN" "http://www.w3.org/Graphics/SVG/1.1/DTD/svg11.dtd">
<svg version="1.1" id="Capa_1" xmlns="http://www.w3.org/2000/svg" xmlns:xlink="http://www.w3.org/1999/xlink" x="0px" y="0px"
	 viewBox="0 0 297.857 297.857" style="enable-background:new 0 0 297.857 297.857;" xml:space="preserve">
<path d="M247.116,50.68l-5.156-7.169c-0.158-8.142-2.77-16.734-8.29-24.386c-6.39-8.881-19.699-18.16-32.468-19.073
	c-0.288-0.016-4.986-0.033-12.237-0.049c-2.469-0.005-4.587,1.733-5.07,4.155c-3.271,16.403-17.605,28.795-34.97,28.795
	c-17.366,0-31.709-12.392-34.973-28.796c-0.481-2.417-2.604-4.161-5.068-4.157c-7.196,0.013-11.875,0.037-12.237,0.052
	c-12.74,0.91-26.065,10.175-32.468,19.073c-5.509,7.651-8.132,16.244-8.289,24.386l-5.146,7.169c-0.806,1.1-1.139,2.485-0.913,3.84
	c0.225,1.366,0.972,2.563,2.082,3.369l31.025,22.314c2.308,1.679,5.538,1.159,7.209-1.159l4.704-6.551
	c5.659,14.137,8.122,29.256,7.271,44.275c-12.198,25.747-20.33,60.831-20.33,99.506c0,15.275,9.307,51.939,16.072,75.721
	c0.986,3.466,4.153,5.863,7.756,5.863h86.612c3.608,0,6.769-2.392,7.756-5.862c6.767-23.782,16.082-60.445,16.082-75.721
	c0-38.647-8.121-73.709-20.302-99.451c-0.859-15.031,1.599-30.16,7.252-44.3l4.694,6.521c1.669,2.318,4.891,2.838,7.199,1.159
	l31.034-22.314c1.11-0.805,1.857-2.003,2.083-3.369C248.246,53.165,247.921,51.781,247.116,50.68z"/>
<g>
</g>
<g>
</g>
<g>
</g>
<g>
</g>
<g>
</g>
<g>
</g>
<g>
</g>
<g>
</g>
<g>
</g>
<g>
</g>
<g>
</g>
<g>
</g>
<g>
</g>
<g>
</g>
<g>
</g>
</svg>
