<svg id="Capa_1" enable-background="new 0 0 512 512" height="512" viewBox="0 0 512 512" width="512" xmlns="http://www.w3.org/2000/svg"><g><path d="m256 81.892 75.168-81.892h-150.336z"/><path d="m297.309 125.098 19.132-63.774-39.23 43.676z"/><path d="m256 126.211-31.52 31.52 31.52 105.062 31.52-105.062z"/><path d="m234.789 105-39.23-43.676 19.132 63.774z"/><path d="m124.252 132.041 26.748 26.748v30l73.535 73.535-63.169-210.566z"/><path d="m391 452h90v60h-90z"/><path d="m439.545 45-75.551-37.775 60.258 130.734-33.252 33.252v30l-120 120v145.789c0 24.853 20.147 45 45 45h45v-227h30v137h90v-309.925c0-28.405-16.049-54.373-41.455-67.075z"/><path d="m361 188.789v-30l26.748-26.748-37.114-80.283-63.169 210.566z"/><path d="m31 452h90v60h-90z"/><path d="m121 171.211-33.252-33.252 60.258-130.734-75.551 37.775c-25.406 12.702-41.455 38.67-41.455 67.075v309.925h90v-137h30v227h45c24.853 0 45-20.147 45-45v-145.789l-120-120z"/></g></svg>