<svg class="img_header" xmlns="http://www.w3.org/2000/svg" viewBox="0 0 201.79 135.22" aria-label="Ministère de la Transition écologique" width="215"><path d="M49.14 130.05c.41 0 .76.3.57 1.09l-1.89.44c.33-.88.88-1.53 1.32-1.53m1.05 3h-.34a2.27 2.27 0 01-1.48 1c-.52 0-.79-.31-.79-1a4.5 4.5 0 01.09-.84l3.05-1c.6-1.41-.12-2-1-2-1.44 0-3.08 2.41-3.08 4.53 0 .94.45 1.46 1.16 1.46s1.68-.8 2.39-2.12m-.61-4.43l2.15-2v-.23h-1.16l-1.32 2.23zM43 130.06h1l-1.61 4.39a.51.51 0 00.44.75 3.73 3.73 0 002.91-2.14h-.29a3.92 3.92 0 01-1.86 1.13l1.48-4.13h1.51l.18-.63H45.3l.56-1.58h-.58l-1 1.58-1.24.18zm-1.37-.21c.12-.41-.15-.64-.36-.64a2.81 2.81 0 00-2.34 1.91h.28a2.27 2.27 0 011.22-.94l-1.68 4.38a.44.44 0 00.36.64 2.78 2.78 0 002.24-1.9h-.29a2.26 2.26 0 01-1.21.92zm.31-2.2a.73.73 0 100-1.45.73.73 0 000 1.45m-9.7 6.74c-.22.49 0 .81.5.81.3 0 .43-.08.55-.4l1.17-3.09a4.18 4.18 0 012.09-1.36c.32 0 .27.26.06.66l-1.76 3.46a.51.51 0 00.44.75 2.84 2.84 0 002.35-1.9h-.29a2.3 2.3 0 01-1.22.93l1.54-3.11a2.49 2.49 0 00.3-1.07.76.76 0 00-.82-.84c-.76 0-1.53.86-2.44 1.92v-.82c0-.58-.19-1.1-.72-1.1-.33 0-.65.29-.94.7v.11c.57 0 .82.82.41 1.72zm0-3.84c.21-.71.1-1.34-.45-1.34s-.81.5-1.47 1.92v-.82c0-.58-.19-1.1-.72-1.1s-1.18 1-1.61 1.91h.29c.3-.43.57-.69.79-.69s.41.41 0 1.31l-1.22 2.67c-.22.49 0 .81.5.81.3 0 .43-.08.55-.4l1.17-3.09c.33-.41.62-.76 1-1.16zm-6.76-.52c.41 0 .76.3.58 1.09l-1.9.44c.33-.88.88-1.53 1.32-1.53m1 3h-.37a2.29 2.29 0 01-1.49 1c-.52 0-.78-.31-.78-1a3.8 3.8 0 01.09-.84l3-1c.59-1.41-.13-2-1-2-1.44 0-3.08 2.41-3.08 4.53 0 .94.45 1.46 1.15 1.46s1.69-.8 2.39-2.12m-7.19-3h1l-1.6 4.39a.51.51 0 00.44.75 3.71 3.71 0 002.9-2.14h-.28a4 4 0 01-1.86 1.13l1.47-4.13h1.51l.19-.63H21.5l.57-1.58h-.59l-1 1.58-1.25.18zm-5.56 3.42c0-1.35 1.51-3.19 2.36-3.19a1.72 1.72 0 01.52.07l-.88 2.34c-.51.62-1.29 1.37-1.66 1.37-.2 0-.34-.18-.34-.59m4.64-4.52h-.46l-.52.5h-.11c-2.51 0-4.68 2.82-4.68 4.87a.83.83 0 00.9.9c.65 0 1.29-.92 2-1.92v.36c-.09 1 .22 1.56.75 1.56s1.18-1 1.61-1.9h-.29c-.3.43-.57.68-.79.68s-.4-.42 0-1.31zm-5.35 1.59c.21-.71.1-1.34-.45-1.34s-.82.5-1.48 1.92v-.82c0-.58-.19-1.1-.71-1.1s-1.18 1-1.61 1.91h.29c.29-.43.57-.69.79-.69s.41.41 0 1.31l-1.19 2.65c-.22.49 0 .81.49.81.3 0 .43-.08.56-.4l1.16-3.09c.33-.41.63-.76 1-1.16zm-8.43 4.43l.11-.34c-1.47-.28-1.65-.28-1.07-1.87l.59-1.64h1.72c.73 0 .74.29.63 1.09h.42l1-2.66h-.42c-.37.63-.65 1.09-1.44 1.09h-1.6l.85-2.32c.26-.74.42-.89 1.41-.89h.7c1 0 1.15.28 1.15 1.31h.4l.34-1.81H3.21l-.11.35c1.18.24 1.29.35.74 1.87l-1.33 3.61c-.55 1.51-.78 1.63-2.13 1.87l-.1.34zM34.4 116.29c.41 0 .76.31.57 1.09l-1.89.44c.33-.88.88-1.53 1.32-1.53m1 3.05h-.38a2.27 2.27 0 01-1.48 1c-.52 0-.78-.31-.78-1a4.52 4.52 0 01.08-.84l3-1c.6-1.41-.12-2-1-2-1.45 0-3.09 2.41-3.09 4.53 0 .94.45 1.46 1.16 1.46s1.68-.8 2.39-2.12m-.61-4.43l2.15-2v-.23h-.99l-1.32 2.23zm-6.58 1.41h1l-1.6 4.39a.51.51 0 00.44.75 3.74 3.74 0 002.9-2.13h-.28a4.09 4.09 0 01-1.86 1.12l1.47-4.13h1.67l.19-.63h-1.47l.56-1.58h-.58l-1 1.58-1.24.18zm-1.36-.21a.45.45 0 00-.37-.64 2.84 2.84 0 00-2.34 1.91h.28a2.25 2.25 0 011.23-.94l-1.69 4.38a.44.44 0 00.36.64 2.78 2.78 0 002.24-1.9h-.29a2.21 2.21 0 01-1.22.93zm.3-2.2a.73.73 0 10-.72-.73.72.72 0 00.72.73m-5.85 6.58l3.07-8-.1-.13-1.93.22v.24l.38.28c.34.27.23.52-.08 1.33l-2.4 6.32a.51.51 0 00.44.75 2.71 2.71 0 002.24-1.9h-.29a2.49 2.49 0 01-1.33.93m-5.84-.75c0-1.35 1.51-3.19 2.36-3.19a1.72 1.72 0 01.52.07l-.88 2.34c-.51.62-1.29 1.37-1.65 1.37s-.35-.18-.35-.59m4.79-4.59h-.46l-.52.5h-.11c-2.51 0-4.68 2.82-4.68 4.87a.83.83 0 00.9.9c.65 0 1.29-.92 2-1.91v.35c-.09 1 .22 1.56.75 1.56s1.18-1 1.61-1.9h-.29c-.29.43-.57.68-.79.68s-.4-.42 0-1.31zm-11.21 7.31c0-.58.56-.95 1.37-1.27a9.07 9.07 0 001.19.45c.83.28 1.15.39 1.15.64 0 .54-.91 1-2.16 1-1 0-1.55-.22-1.55-.77m2.28-3.56c-.36 0-.51-.3-.51-.66 0-1 .53-2.42 1.36-2.42.36 0 .51.31.51.66 0 1-.53 2.42-1.36 2.42m2.39 3c0-.71-.63-1-1.65-1.27s-1.28-.34-1.28-.62a.9.9 0 01.56-.71 2.56 2.56 0 002.38-2.46 1.44 1.44 0 00-.12-.61h1.22l.19-.63h-1.94a1.53 1.53 0 00-.78-.22 2.56 2.56 0 00-2.52 2.44 1.42 1.42 0 001.18 1.43c-.72.32-1.12.69-1.12 1.13a.7.7 0 00.3.6c-1.65.48-2.3 1-2.3 1.81s1 1.08 2.19 1.08c2 0 3.7-1.09 3.7-2m-7.69-4.71c.72 0 .73.3.62 1.09h.42l1-2.65h-.42c-.36.62-.65 1.08-1.44 1.08h-1.6l.81-2.21c.26-.74.42-.88 1.41-.88h.7c1 0 1.15.28 1.15 1.3h.4l.34-1.8H3.21l-.11.34c1.18.24 1.29.35.74 1.87l-1.33 3.61c-.55 1.51-.78 1.63-2.13 1.87l-.1.34h6.76l1.21-1.91h-.46a4.46 4.46 0 01-3.1 1.42c-1.79 0-1.63-.08-1-1.72l.64-1.75zm.88-4.61l2.13-1.45v-.23h-1.3l-1.19 1.71zM33.69 102.53c.4 0 .76.31.57 1.09l-1.89.44c.33-.88.88-1.53 1.32-1.53m1 3.05h-.37a2.29 2.29 0 01-1.49 1c-.52 0-.78-.31-.78-1a3.8 3.8 0 01.09-.84l3-1c.59-1.41-.12-2-1-2-1.44 0-3.08 2.41-3.08 4.53 0 .94.45 1.46 1.15 1.46s1.69-.8 2.39-2.12m-.6-4.43l2.14-2v-.23h-1.15l-1.14 2.2zm-6.15 1.38h.8l-1.6 4.39a.51.51 0 00.44.75 3.74 3.74 0 002.9-2.13h-.28a4 4 0 01-1.86 1.12l1.47-4.13h1.51l.19-.63h-1.47l.56-1.58h-.58l-1 1.58-1 .18zm-.79.5c.21-.72.1-1.35-.45-1.35s-.82.5-1.48 1.92v-.82c0-.58-.19-1.1-.71-1.1s-1.18 1-1.61 1.91h.28c.3-.43.58-.68.8-.68s.4.4 0 1.31l-1.19 2.64c-.22.49 0 .81.49.81a.49.49 0 00.55-.39l1.11-3.09c.33-.4.63-.76 1-1.15zm-6.76-.53c.41 0 .76.31.57 1.09l-1.89.44c.33-.88.88-1.53 1.32-1.53m1 3.05h-.37a2.27 2.27 0 01-1.49 1c-.51 0-.78-.31-.78-1a4.5 4.5 0 01.09-.84l3-1c.59-1.41-.12-2-1-2-1.44 0-3.08 2.41-3.08 4.53 0 .94.45 1.46 1.16 1.46s1.68-.8 2.38-2.12m-7.36 1.2c-.3 0-.73-.28-.73-.52a7.22 7.22 0 01.3-.84l.5-1.31c.53-.63 1.33-1.3 1.78-1.3.28 0 .48.17.48.58 0 1.2-1.12 3.39-2.33 3.39m3.47-3.87c0-.9-.33-1.23-.95-1.23-.77 0-1.5.82-2.22 1.81l1.84-4.83-.1-.12-1.93.22v.23l.37.28c.35.27.24.54-.07 1.34l-2 5.1a5.38 5.38 0 00-.32.94c0 .53.71 1 1.36 1 1.5 0 4-2.7 4-4.76m-6-.59c.12-.41-.15-.64-.36-.64a2.85 2.85 0 00-2.35 1.91h.29a2.23 2.23 0 011.22-.94l-1.68 4.38a.44.44 0 00.36.64 2.75 2.75 0 002.23-1.9h-.26a2.25 2.25 0 01-1.22.93zm.31-2.2a.73.73 0 10-.73-.73.73.73 0 00.73.73m-4.44-.7h-4l-.11.34c1.17.24 1.28.35.73 1.87l-1.3 3.61c-.55 1.51-.78 1.63-2.13 1.87l-.1.34h6.1l1.32-2.35h-.46c-.75.82-1.63 1.86-3 1.86-1 0-1.14-.18-.59-1.72l1.3-3.61c.54-1.51.78-1.63 2.13-1.87zM.42 30.29h3.83l3.6 6.16 3.62-6.16h3.83v15h-3V34.61l-3.34 5.52H6.79l-3.34-5.52v10.61h-3zM19.5 30.29h3v15h-3zM26.75 30.29h3.89L37.34 41V30.29h3v15h-3.9l-6.69-10.76v10.69h-3zM44.59 30.29h3v15h-3zM52.7 41.15a4.31 4.31 0 003.32 1.84 1.68 1.68 0 001.92-1.73c0-2.67-6.84-2.07-6.84-7.06a4.47 4.47 0 014.79-4.34 6.6 6.6 0 015.24 2.52l-2.22 2a4 4 0 00-3-1.86 1.59 1.59 0 00-1.73 1.56c0 2.68 6.84 2.06 6.84 7.13 0 2.78-2.22 4.49-5 4.49a6.75 6.75 0 01-5.56-2.5zM62.58 30.29h12.27v2.76h-4.62v12.17h-3V33.05H62.6zM77.56 30.29h8.73v2.58H80.6v3.47h4.83v2.59H80.6v3.74h5.69v2.55h-8.73zm.26-4.18h3.12L83.36 29h-2.78zM89.85 30.29h4.58c3.29 0 5.32 1.69 5.32 4.47a4.07 4.07 0 01-2.39 3.87l4.71 6.63h-3.64l-4-6h-1.58v6h-3zm3 2.58v3.75h1.71a1.88 1.88 0 100-3.75zM103.96 30.29h8.73v2.58H107v3.47h4.85v2.59h-4.83v3.74h5.69v2.55h-8.73zM.42 52.16H6.3c4.75 0 8 3.44 8 7.48s-3.21 7.49-8 7.49H.42zm3 2.76v9.45h2.89a4.73 4.73 0 100-9.45zM17.21 52.16h8.73v2.58h-5.69v3.48h4.83v2.59h-4.83v3.74h5.69v2.59h-8.73zM35.07 52.16h3v12.21h5.78v2.76h-8.73zM50.93 52.16h4l5.67 15h-3.23l-1.46-3.94h-6l-1.43 3.89h-3.23zm4 8.49l-2.06-5.63-2.02 5.63zM66.95 52.16h12.28v2.76h-4.62v12.21h-3V54.92h-4.66zM81.92 52.16h4.58c3.3 0 5.33 1.68 5.33 4.47a4.08 4.08 0 01-2.4 3.87l4.71 6.63H90.5l-4-6h-1.56v6h-3zm3 2.58v3.75h1.71a1.88 1.88 0 100-3.75zM100.47 52.16h4l5.67 15h-3.29l-1.39-3.94h-6l-1.44 3.89h-3.17zm4 8.49l-2-5.63-2.05 5.63zM112.45 52.16h3.9l6.69 10.71V52.16h3v15h-3.9l-6.69-10.76v10.76h-3zM131.15 63.02a4.31 4.31 0 003.31 1.84 1.69 1.69 0 001.93-1.73c0-2.67-6.85-2.08-6.85-7.06a4.48 4.48 0 014.8-4.34 6.61 6.61 0 015.24 2.52l-2.23 2a4 4 0 00-3-1.86 1.59 1.59 0 00-1.74 1.56c0 2.68 6.85 2.06 6.85 7.13 0 2.78-2.22 4.49-5 4.49a6.72 6.72 0 01-5.56-2.51zM142.68 52.16h3v15h-3zM148.39 52.16h12.28v2.76h-4.62v12.21h-3V54.92h-4.62zM163.37 52.16h3v15h-3zM185.23 59.64a7.95 7.95 0 11-7.94-7.91 7.79 7.79 0 017.94 7.91zm-3.12 0a4.83 4.83 0 10-4.82 5.07 4.82 4.82 0 004.82-5.07zM188.16 52.16h3.9l6.69 10.71V52.16h3v15h-3.9l-6.69-10.76v10.76h-3zM.42 74.02h8.72v2.59H3.45v3.47h4.84v2.59H3.45v3.74h5.69V89H.42zm3-1.28l2.42-2.89h3.12l-2.78 2.89zM22.94 84.53l2.4 1.84a7.66 7.66 0 01-6.31 3.06 7.92 7.92 0 116.31-12.8l-2.4 1.86a4.66 4.66 0 00-3.91-2.05 5.08 5.08 0 000 10.14 4.66 4.66 0 003.91-2.05z"/><path d="M42.5 81.51a8 8 0 11-7.94-7.91 7.79 7.79 0 017.94 7.91zm-3.13 0a4.83 4.83 0 10-4.81 5.07 4.81 4.81 0 004.81-5.07zM45.43 74.02h3v12.2h5.69v2.76h-8.73zM70.93 81.51a8 8 0 11-7.94-7.91 7.79 7.79 0 017.94 7.91zm-3.12 0a4.83 4.83 0 10-4.82 5.07 4.82 4.82 0 004.86-5.07zM84.62 85.28v-2.53h-3.77v-2.76h6.85v6.38a8 8 0 01-6.53 3.06A7.9 7.9 0 0173 81.51a8 8 0 0114.27-4.88l-2.4 1.86a4.66 4.66 0 00-3.91-2.05 4.83 4.83 0 00-4.84 5.07 4.93 4.93 0 005.05 5.07 5 5 0 003.45-1.3zM91.06 74.02h3v15h-3zM114.01 90.05a3.28 3.28 0 001.07-.17v2.56a3.82 3.82 0 01-1.58.28 7 7 0 01-4.68-2l-1.78-1.5a8 8 0 01-2.05.26 7.92 7.92 0 117.93-7.92 8 8 0 01-2.95 6.25l.9.85a4.63 4.63 0 003.14 1.39zm-4.16-8.54a4.83 4.83 0 10-4.81 5.07 4.81 4.81 0 004.81-5.07zM124.69 74.02h3v9.12c0 3.93-2.31 6.29-6.08 6.29s-6.05-2.36-6.05-6.29v-9.12h3v9.37a3.025 3.025 0 106.05 0zM131.51 74.02h8.73v2.59h-5.69v3.47h4.84v2.59h-4.84v3.74h5.69V89h-8.73z"/><path d="M22.66 17.59c.22-.22.43-.45.65-.68a12.67 12.67 0 011.26-1.28 3.71 3.71 0 01.41-.33s0-.11.07-.15c-.18.08-.3.23-.49.3 0 0-.07 0 0-.07l.4-.3V15a1.57 1.57 0 00-1.21.57h-.19c-.56.19-1 .68-1.54.9v-.07c-.23.07-.45.21-.68.26a3.78 3.78 0 01-.94 0c-.46 0-.92.15-1.37.24a2.87 2.87 0 00-.7.29v.07a.78.78 0 01-.26.22 4.11 4.11 0 00-.63.49.08.08 0 01-.06 0l-.6.58a.23.23 0 01-.12 0l.09-.16a1.74 1.74 0 00.11-.18l.16-.23a4.13 4.13 0 01.63-.47s-.06 0 0 0l.07-.11-.18.12c-.09.09-.16.25-.3.25h-.39v-.14a.21.21 0 000-.06v-.07a1 1 0 01.26-.23c.15-.07.29-.16.43-.24h.07a2.56 2.56 0 00-.6.29h-.07-.09c-.09 0 0 0 0 0s.15-.12.23-.19.07 0 .07 0c1.21-.94 2.86-.71 4.26-1.2l.34-.23c.19-.07.34-.26.56-.37a1.65 1.65 0 00.64-.87.16.16 0 000-.08 5.8 5.8 0 01-1.52.84 7.12 7.12 0 01-2.49.45c0-.08.11-.08.19-.08s.08-.15.15-.22h.11s0-.08.08-.08h.15c-.04 0-.34.11-.53 0 .08-.08 0-.19.12-.23h.15a.25.25 0 01.07-.15c.57-.34 1.09-.6 1.62-.91-.11 0-.19.12-.3 0 .07 0 0-.11.07-.11.42-.11.76-.34 1.17-.49-.15 0-.26.11-.41 0 .07 0 .11-.11.22-.11v-.07h.08a.14.14 0 01-.08 0c0-.08.16 0 .23-.11s-.11 0-.11 0a.76.76 0 01.49-.23c0-.07-.15 0-.15-.07s0 0 .07 0h-.07c-.08 0 0-.11 0-.15a2.94 2.94 0 00.34-.91h-.08a3.09 3.09 0 01-1.54.71h-.19a.72.72 0 01-.64 0 2 2 0 01-.38-.3 4.07 4.07 0 00-.94-.45 8.42 8.42 0 00-2.9-.41 5.89 5.89 0 011.32-.38 5.75 5.75 0 011.92-.38 1.61 1.61 0 00-.38 0 6.8 6.8 0 00-1.62.23c-.37.07-.71.23-1.09.3s-.34.3-.6.26v-.11a2.17 2.17 0 011.37-1.19 7.45 7.45 0 012 .07 10.28 10.28 0 011.43.27c.19 0 .22.3.37.34s.46 0 .68.15v-.23c0-.08.34 0 .49 0 .3-.18-.26-.52-.41-.79v-.07a4.38 4.38 0 00.9.75c.19.08.64.19.56 0a5.93 5.93 0 00-.86-1.13v-.15c-.08 0-.08 0-.11-.07v-.15c-.16-.08-.12-.23-.19-.34s0-.45-.12-.68a4.94 4.94 0 01-.15-.64c-.11-.64-.26-1.21-.34-1.81s.42-1.28.76-1.92a3.27 3.27 0 011.05-1.21 3.46 3.46 0 01.72-1.2 3.08 3.08 0 011.16-.75 10.35 10.35 0 011-.39H0v19.94h18.31a16.46 16.46 0 012.43-1.26 9.74 9.74 0 001.92-1.17zm-5.81-2.7h-.19c.04 0 .3-.19.45-.26s.19-.12.27-.08.19.08.26.15c-.21.19-.51.08-.79.19zm-5.76-.83a.14.14 0 010-.08 11.54 11.54 0 001.2-1.92 5 5 0 001.28-1 7.37 7.37 0 012.11-1.66 1.5 1.5 0 011 0c-.11.15-.3.11-.45.23a.13.13 0 01-.11 0 .15.15 0 000-.12c-.38.42-.91.61-1.21 1.1s-.38.86-.87 1c-.15 0 0-.12 0-.08a12.6 12.6 0 00-2.93 2.53zm3.12-2.49c0 .08-.08.09-.11.15a.33.33 0 01-.15.16h-.08a.47.47 0 01.3-.34s.06 0 .06.03zm1.77 5.65a.31.31 0 01-.09.11s.08 0 0 .06a.84.84 0 01-.29.2l-.15.14s-.25 0-.18-.05l.27-.26.16-.15.08-.09s.23-.04.2.04zm-.67-.31c-.14.1-.28.2-.43.29s-.33.16-.5.24a.08.08 0 00-.07 0 2.12 2.12 0 00-.38.29v.05h-.05l-.08.09h-.26l-.14.11a2.39 2.39 0 00-.22.23.16.16 0 010-.06l.12-.13.06-.08.12-.16a.56.56 0 000-.08.25.25 0 000-.07v-.15-.06l.14-.21c-.06 0-.09.09-.14.12s-.12 0-.07 0l.09-.08a1.7 1.7 0 01.19-.19l.12-.09.09-.1c.36-.35 1-.33 1.45-.55.18-.08.41 0 .6 0a.61.61 0 01.34.07c-.36.12-.67.32-.98.52zm.77-2.62s.11 0 .15-.08h-.3v-.07c-.19 0-.41.11-.6.15s-.49.26-.79.34-.76.49-1.21.64v-.08c0-.08.19-.15.27-.26s0-.08 0-.08a6.81 6.81 0 011.09-1v-.11c.11-.15.3-.23.38-.42a.67.67 0 01.38-.33s-.12 0-.12-.12c-.15 0-.3.08-.45 0a.56.56 0 01.24-.13.13.13 0 01-.09 0c0-.08.07-.16.19-.19s.34 0 .45-.15c-.26 0-.56.07-.83-.08a2 2 0 01.94-1.13h.12a.38.38 0 01-.3.38 3.7 3.7 0 01.9.22c0 .08-.11 0-.15 0 .19.11.41 0 .6.19-.11.11-.22 0-.34 0a9.92 9.92 0 013.24 1.36 10.18 10.18 0 01-2.6.8.8.8 0 01-.3 0v.11a.57.57 0 00-.37.08c-.16.03-.39.07-.5-.04z" fill="#000091"/><path d="M54.85 0H33.38l.2.1.54.29a1.68 1.68 0 01.72.6c.07.11.19.34.11.49s-.11.49-.3.56a1.33 1.33 0 01-.79.08 1.78 1.78 0 01-.45-.08 3.12 3.12 0 011.47 1c0 .08.18.11.33.11s0 .08 0 .12-.15.11-.11.22h.11c.19-.07.15-.45.42-.34a.43.43 0 01.15.57 5 5 0 01-.45.38.3.3 0 000 .26 1.07 1.07 0 01.18.45c.12.26.15.57.27.83a5.24 5.24 0 01.26 1.7c0 .3-.15.56 0 .86a3.33 3.33 0 00.42.79 5.43 5.43 0 01.41.61c.23.37.64.75.45 1.2-.11.26-.52.23-.79.38s0 .49.08.68-.23.56-.49.67c.07.12.23.08.26.15s.23.31.12.49-.61.34-.38.68a1 1 0 010 .83.92.92 0 01-.68.57 1.55 1.55 0 01-.71 0 .68.68 0 00-.23-.07 15.83 15.83 0 00-1.92-.27 2.06 2.06 0 00-.53.16 2.92 2.92 0 00-.45.4l-.08.09-.05.06a3.41 3.41 0 00-.3.44v.06a3.38 3.38 0 00-.29.69 2.28 2.28 0 000 1.78s1.24.42 2.07.79a6.55 6.55 0 01.89.45h21.01z" fill="#e1000f"/><path d="M34.65 7.28c.15 0 .38 0 .38.11-.08.3-.53.38-.76.68h-.11c-.11.07-.07.26-.19.26a.51.51 0 00-.34 0 .64.64 0 00.57.22s.11.08.11.16a.12.12 0 00.08 0h.07v.15c-.11.15-.3.07-.45.11a1.83 1.83 0 00.87 0c.22-.08 0-.45.15-.64-.08 0 0-.11-.08-.11.08-.08.15-.19.23-.23a.27.27 0 00.22-.11c0-.08-.15-.12-.11-.19.23-.15.42-.38.34-.6s-.34-.12-.53-.19a1.28 1.28 0 00-.64 0 3 3 0 00-.56.16 2.46 2.46 0 00-.72.37 5.31 5.31 0 01.83-.22 2.29 2.29 0 01.64.07z" fill="#9e9d9c"/></svg>