<?xml version="1.0" encoding="utf-8"?>
<!-- Generator: Adobe Illustrator 25.0.0, SVG Export Plug-In . SVG Version: 6.00 Build 0)  -->
<svg version="1.1" id="Calque_1" xmlns="http://www.w3.org/2000/svg" xmlns:xlink="http://www.w3.org/1999/xlink" x="0px" y="0px"
	 viewBox="0 0 79.41 93.61" style="enable-background:new 0 0 79.41 93.61;" xml:space="preserve">
<style type="text/css">
	.st0{fill:#004A99;}
	.st1{fill:#FFFFFF;}
	.st2{fill:#8F9ACE;}
	.st3{fill:#E42618;}
</style>
<path class="st0" d="M0,93.61h79.41V0H0V93.61z"/>
<path class="st1" d="M1.77,91.85h75.88V1.76H1.77V91.85z"/>
<path class="st2" d="M24.11,52.6c3.37,5.09,9.15,8.44,15.7,8.44c10.39,0,18.82-8.43,18.82-18.82c0-1.01-0.08-2.01-0.23-2.98
	c-0.88-5.51-4.14-10.22-8.71-13.04c-2.87-1.78-6.26-2.8-9.88-2.8c-3.2,0-6.21,0.8-8.85,2.2c-2.22,1.19-4.17,2.8-5.75,4.74
	c-2.2,2.7-3.67,6.03-4.09,9.67c-0.08,0.73-0.13,1.46-0.13,2.21C20.99,46.06,22.14,49.63,24.11,52.6z"/>
<path class="st0" d="M49.65,26.77L46.7,27.4l2.03,1.17l0.69-0.8l0.83-0.53L49.65,26.77z M49.69,26.21
	c4.56,2.82,7.83,7.53,8.71,13.05l0,0l-1.47,1.26l-0.94-0.22l-0.44,0.39l0.03,0.26c0.01,0.12,0.07,0.36,0.16,0.73
	c0.19,0.75,0.28,1.5,0.28,2.23c0,0.68-0.03,0.9-0.18,1.56l-0.8,0l-2.25-1.83l-1.72,0.39l-1.11-0.19l-1.41,0.43l0.64,0.55l1.1-0.31
	l0.95,0.76l-0.15,0.33l-0.39,0.63l-0.85,1.21l-1.3,1.05l-2.41-2.5l-0.62,0.07l2.57,2.95l1.04-0.21l0.26,0.53l-1.05,1.72l-2.04,1.95
	l-0.92,2.33c-0.02,0.06-0.12,0.13-0.26,0.2c-0.3,0.14-0.64,0.39-1.03,0.76c-0.49,0.46-0.77,0.72-0.83,0.77
	c-0.41,0.36-0.89,0.73-1.46,1.11c-0.56,0.38-1.13,0.72-1.69,1c-0.99,0.5-2.1,0.78-3.1,0.78c-0.66,0-1.33-0.11-1.98-0.33
	c-0.09-0.03-0.15-0.07-0.15-0.11l0.45-1.26c0.02-0.06,0.4-0.49,1.11-1.26c0.32-0.35,0.58-0.83,0.77-1.4
	c0.27-0.84,0.46-1.35,0.57-1.53c0.41-0.66,0.6-1.22,0.47-1.36l-2.67-2.68l-1.12-2.08l0.12-0.49c0.08-0.34,0.35-0.95,0.87-1.94
	c0.28-0.54,0.51-0.82,0.77-0.95l1.79-0.88l3.47,0.52l1.06,0.7l0.5-0.06l2.12,0.55l0.53-1.38l-2.69-0.76l-0.95-0.95l-0.13,0.04
	l0.45,1.12l-0.54,0.11l-0.06-0.13l0.19-0.03c0.01,0.01-0.16-0.69-0.58-0.89c-0.15-0.07-0.25-0.14-0.4-0.14
	c-0.21,0-0.54,0.13-0.72,0.29c-0.59,0.54-1.05,0.91-1.09,0.88l-1.1-0.84l0.41-1.03l0.17,0.04c0.1,0.02,0.21,0.04,0.31,0.04
	c0.35,0,0.56-0.2,0.6-0.4c0.05-0.25-0.12-0.37-0.12-0.37c0.01-0.01-0.11-0.12-0.11-0.12c0,0.01,0.16-0.18,0.15-0.18
	c0,0,0.42,0.11,0.66,0.12c0.28,0.02,0.56-0.05,0.67-0.17l0.27-0.42l0.45-0.12l0.08-0.6l0.28,0.02c0,0,0.16,0.21,0.22,0.5l0.78-0.2
	L43.1,39l-0.12-0.14l0.34-0.76l-0.3-0.21l-0.5,1.41l-0.27,0.04l-0.12-0.31l-0.7,0.05l-0.39-0.63l0.85-0.88l0.83-1.11l1.17,0.37
	l0.29,0.58l0.36-0.01l-0.13-0.85l0.96-0.9l-0.64-2.89l0.41-0.91l0.46,0.03l0.06-0.71L42.6,27.8l0.1-0.91l2.53-0.58l0.36,0.11
	l1.44-0.14l0.33,0.15L49.69,26.21L49.69,26.21z M24.11,52.6l1.3-1.08l1.07,0.27l2.86-2.15l0.14-1.15l-1.88-2.74
	c-0.03-0.04-0.15-1.75-0.51-3.03c-0.19-0.67-0.63-2.62-0.65-2.66l-0.25-0.5l-1.79-2.68l1.16-2.9l0.92-0.04l0.05-0.43l-0.68-0.57
	l-0.02-0.12l-0.02-0.54c0-0.37,0.63-0.74,1.04-0.74c0.11,0,0.23,0.02,0.35,0.05c0.29,0.08,0.57,0.32,0.82,0.5
	c0.05,0.03,0.82,1.85,0.82,1.85l-0.66,0.53l-0.32,0.8l0.45,0.35l0.63-1.08l2.6,0.87l1.6,0.91l0.48-0.53l1.34,0.11l0.98-1.33
	l-0.89-0.34l0.93-1.12l-0.11-0.38l-1.42-0.27l1.09-1.14L36.58,32l-0.02,0.3l0.67,0.08l0.56-1.07l-0.39-0.35l1.66-1.6l1.5-0.7
	l1.17-0.77l0.23-0.18l0.05-0.82l-0.2-0.58l-0.52-0.2l0.66-0.52l-0.18-0.1c-0.44,0.3-1.49,1.02-3.32,1.15
	c-1.3,0.09-3.94-0.49-3.94-0.49l-2.61-0.39l-0.91-0.16c-2.22,1.18-4.17,2.8-5.75,4.73l-0.08,2.47l-0.39,1.13l-0.93,3.27l0.3,0.92
	l-1.49,0.21l-1.5,1.67C21.04,40.74,21,41.48,21,42.23C21,46.06,22.14,49.63,24.11,52.6L24.11,52.6z M27.04,40.49l0.08,0.36
	l0.34-0.11l-0.11-0.36L27.04,40.49z M41.1,42.95l-0.24-0.03l-0.02,0.45l0.24,0.04l0.14-0.57l-0.07-0.03L41.1,42.95z M47.4,57.13
	c0,0.01-0.2-0.22-0.2-0.22c0,0.01-0.32,0.19-0.32,0.19s0.24,0.24,0.23,0.24L47.4,57.13z M47.84,54.84l-0.59,0.34l-0.76,0.16
	l-1.67,1.64l0.1,0.36l0.24-0.03l0.95-0.41c0.25-0.11,1.03-0.54,1.43-0.98c0.38-0.41,0.5-0.57,0.72-0.99L47.84,54.84z M39.01,40.03
	l0.41,0.11l0.12-0.38l-0.29-0.07L39.01,40.03z M40.11,39.22c0,0-0.48,1.17-0.48,1.18c0,0,0.75,0.07,0.75,0.08l0.18-0.96l-0.13-0.1
	l0.09-0.33l-0.38-0.21l-0.12,0.25L40.11,39.22z M27.61,40.32c0.01,0,0.26-0.1,0.26-0.1L27.77,40c0,0-0.15,0.13-0.15,0.14
	L27.61,40.32L27.61,40.32z M27.42,39.61l0.1,0.25l0.31-0.14c0,0-0.08-0.23-0.09-0.23L27.42,39.61z M27.22,38.79l0.06,0.38l0.36,0
	l-0.05-0.41L27.22,38.79z M26.87,38.07l0.19,0.29l0.36,0.05l0.16-0.72L27,37.56L26.87,38.07z M26.56,37.16l0.59,0.07l0.18-1.4
	l0-0.42l-0.1-0.42l-0.3-0.02L26.56,37.16z M39.66,29.59l-1.7,1.35l0.61,0.44L39.92,30L39.66,29.59z M38.16,31.93l-0.24-0.01
	l-0.46,0.84l-0.72,0.06L35.91,34l0.45,0.28l1.11-0.71l0.85-0.91L38.16,31.93z M37.75,33.91l-0.84,0.74v0.5l1.34,0.33l2.66-1.81
	l-0.07-0.74l-1.06-0.37L37.75,33.91z M33.71,36.1l1,0.16l-0.34,0.66l-0.86-0.47L33.71,36.1z"/>
<path class="st3" d="M16.58,11.02l-0.95,2.81h1.83L16.58,11.02z M18.63,17.55l-0.49-1.57h-3.23l-0.52,1.57h-2.7l3.83-10.52h1.99
	l3.82,10.52H18.63z"/>
<path class="st3" d="M29.24,9.93C29.01,9.57,28.65,9.34,28,9.34h-1.14v5.91H28c0.65,0,1-0.24,1.24-0.59
	c0.21-0.3,0.28-0.58,0.28-2.36C29.52,10.52,29.45,10.22,29.24,9.93z M31.01,16.52c-0.72,0.72-1.74,1.03-2.84,1.03h-3.9V7.03h3.9
	c1.09,0,2.11,0.31,2.84,1.03c1.23,1.23,1.09,2.57,1.09,4.23C32.11,13.95,32.24,15.29,31.01,16.52z"/>
<path class="st3" d="M35.62,17.55V7.03h7.15v2.3H38.2v1.76h3.9v2.3h-3.9v1.85h4.56v2.3H35.62z"/>
<path class="st3" d="M53.57,17.55v-5.04l-1.49,2.6h-1.66l-1.49-2.6v5.04h-2.58V7.03h2.54l2.36,4.64l2.36-4.64h2.54v10.52H53.57z"/>
<path class="st3" d="M59.99,17.55V7.03h7.15v2.3h-4.56v1.76h3.9v2.3h-3.9v1.85h4.56v2.3H59.99z"/>
<path class="st3" d="M13.72,70.01l0.5-1.49l0.47,1.49H13.72z M13.79,66.97l-1.67,4.6h1.09l0.23-0.7h1.53l0.22,0.7h1.09l-1.68-4.6
	H13.79z"/>
<path class="st3" d="M19.26,71.61c0.58,0,0.98-0.15,1.33-0.51v0c0.34-0.34,0.46-0.76,0.46-1.53v-0.6h-1.74v0.86h0.7v0.12
	c0,0.22-0.07,0.42-0.2,0.54c-0.12,0.13-0.31,0.2-0.56,0.2c-0.21,0-0.39-0.08-0.5-0.22c-0.11-0.15-0.18-0.31-0.18-1.2
	c0-0.88,0.07-1.05,0.18-1.19c0.11-0.14,0.3-0.23,0.5-0.23c0.39,0,0.61,0.16,0.72,0.53h1.06c-0.09-0.48-0.43-1.45-1.78-1.45
	c-0.52,0-0.92,0.16-1.27,0.51c-0.46,0.46-0.46,1.09-0.46,1.75v0.16c0,0.66,0,1.29,0.46,1.75C18.34,71.45,18.74,71.61,19.26,71.61z"
	/>
<path class="st3" d="M23.88,69.71h1.75v-0.92h-1.75v-0.9h2.05v-0.92h-3.09v4.6h3.09v-0.92h-2.05V69.71z"/>
<path class="st3" d="M31.28,71.57v-4.6h-1.05v2.51l-1.6-2.51h-0.93v4.6h1.05v-2.5l1.59,2.5H31.28z"/>
<path class="st3" d="M35.44,70.18c-0.07,0.23-0.22,0.5-0.64,0.5c-0.21,0-0.39-0.08-0.5-0.22c-0.11-0.15-0.19-0.32-0.19-1.2
	c0-0.88,0.08-1.05,0.19-1.2c0.11-0.14,0.29-0.22,0.5-0.22c0.43,0,0.57,0.27,0.64,0.5h1.07c-0.18-0.91-0.8-1.43-1.72-1.43
	c-0.52,0-0.92,0.16-1.27,0.51c-0.46,0.46-0.46,1.09-0.46,1.75v0.16c0,0.66,0,1.29,0.46,1.75c0.35,0.35,0.75,0.51,1.27,0.51
	c0.92,0,1.55-0.52,1.72-1.42H35.44z"/>
<path class="st3" d="M39.15,69.71h1.75v-0.92h-1.75v-0.9h2.04v-0.92H38.1v4.6h3.09v-0.92h-2.04V69.71z"/>
<path class="st3" d="M48.22,70.36c-0.13,0.2-0.32,0.29-0.6,0.29h-0.56v-2.76h0.56c0.28,0,0.47,0.09,0.6,0.29
	c0.1,0.15,0.13,0.31,0.13,1.09C48.35,70.09,48.32,70.22,48.22,70.36z M49.4,69.47c0-0.07,0-0.13,0-0.2c0-0.07,0-0.13,0-0.2
	c0-0.65,0.01-1.17-0.47-1.65c-0.29-0.29-0.72-0.45-1.23-0.45H46v4.6h1.69c0.51,0,0.94-0.16,1.23-0.45
	C49.41,70.64,49.4,70.12,49.4,69.47"/>
<path class="st3" d="M52.22,69.71h1.75v-0.92h-1.75v-0.9h2.04v-0.92h-3.09v4.6h3.09v-0.92h-2.04V69.71z"/>
<path class="st3" d="M60.12,66.97h-1.05v4.6h3.03v-0.92h-1.98V66.97z"/>
<path class="st3" d="M64.73,70.01l0.5-1.49l0.47,1.49H64.73z M66.19,71.57h1.09l-1.68-4.6h-0.82l-1.67,4.6h1.09l0.23-0.7h1.53
	L66.19,71.57z"/>
<path class="st3" d="M13.45,79.07h1.05v-3.68h1.16v-0.92h-3.37v0.92h1.16V79.07z"/>
<path class="st3" d="M20.15,76.46h-0.71V75.4h0.71c0.36,0,0.56,0.27,0.56,0.53C20.71,76.19,20.52,76.46,20.15,76.46z M21.03,77.11
	c0.17-0.09,0.74-0.43,0.74-1.18c0-0.73-0.53-1.46-1.56-1.46h-1.81v4.6h1.05v-1.75h0.48l0.84,1.75h1.22l-1.01-1.93L21.03,77.11z"/>
<path class="st3" d="M25.83,77.51l0.5-1.49l0.47,1.49H25.83z M25.89,74.47l-1.68,4.6h1.1l0.23-0.7h1.53l0.22,0.7h1.09l-1.68-4.6
	H25.89z"/>
<path class="st3" d="M30.94,74.47v4.6h1.05v-2.51l1.6,2.51h0.93v-4.6h-1.05v2.5l-1.6-2.5H30.94z"/>
<path class="st3" d="M39.36,76.32l-0.57-0.08c-0.15-0.02-0.27-0.07-0.36-0.15c-0.1-0.1-0.11-0.21-0.11-0.26
	c0-0.24,0.2-0.49,0.63-0.49h0.04c0.21,0,0.57,0,0.86,0.26l0.65-0.65c-0.37-0.35-0.84-0.51-1.51-0.51c-1,0-1.67,0.58-1.67,1.44
	c0,0.39,0.1,0.7,0.31,0.91c0.2,0.21,0.51,0.34,0.92,0.4l0.57,0.08c0.15,0.02,0.27,0.07,0.34,0.14c0.07,0.08,0.11,0.19,0.11,0.32
	c0,0.22-0.13,0.48-0.73,0.48c-0.21,0-0.73-0.03-1.05-0.31l-0.67,0.66c0.41,0.4,0.92,0.57,1.71,0.57c0.88,0,1.77-0.44,1.77-1.43
	c0-0.45-0.11-0.77-0.33-0.99C40.06,76.5,39.76,76.37,39.36,76.32z"/>
<path class="st3" d="M44.46,74.47h-1.05v4.6h1.05V74.47z"/>
<path class="st3" d="M48.36,79.07h1.05v-3.68h1.16v-0.92H47.2v0.92h1.16V79.07z"/>
<path class="st3" d="M53.31,79.07h1.05v-4.6h-1.05V79.07z"/>
<path class="st3" d="M59.47,77.96c-0.09,0.11-0.27,0.23-0.51,0.23c-0.24,0-0.42-0.12-0.51-0.23c-0.11-0.15-0.18-0.3-0.18-1.19
	c0-0.89,0.07-1.05,0.18-1.19c0.11-0.14,0.3-0.23,0.51-0.23c0.21,0,0.4,0.09,0.51,0.23c0.11,0.15,0.18,0.31,0.18,1.19
	C59.65,77.65,59.58,77.81,59.47,77.96z M60.7,76.69c0-0.66,0-1.29-0.46-1.75c-0.36-0.35-0.75-0.51-1.28-0.51
	c-0.53,0-0.92,0.16-1.28,0.52c-0.46,0.46-0.46,1.09-0.46,1.75v0.16c0,0.66,0,1.29,0.46,1.75c0.36,0.35,0.75,0.51,1.28,0.51
	c0.53,0,0.92-0.16,1.28-0.51c0.46-0.46,0.46-1.09,0.46-1.75V76.69z"/>
<path class="st3" d="M67.14,79.07v-4.6h-1.05v2.5l-1.6-2.5h-0.93v4.6h1.05v-2.5l1.6,2.5H67.14z"/>
<path class="st3" d="M13.34,84.72h1.75v-0.93h-1.75v-0.9h2.05v-0.93h-3.11v4.62h3.11v-0.93h-2.05V84.72z"/>
<path class="st3" d="M13.79,80.31l-0.3,1.08h0.56l0.71-1.08H13.79z"/>
<path class="st3" d="M20.4,83.36h1.08c-0.18-0.91-0.8-1.43-1.73-1.43c-0.52,0-0.92,0.16-1.27,0.51C18,82.91,18,83.53,18.01,84.2
	v0.16c0,0.66,0,1.29,0.46,1.75c0.35,0.35,0.76,0.52,1.27,0.52c0.93,0,1.55-0.52,1.73-1.43H20.4c-0.07,0.23-0.22,0.5-0.65,0.5
	c-0.21,0-0.39-0.08-0.5-0.22c-0.11-0.15-0.19-0.32-0.19-1.2c0-0.88,0.08-1.06,0.19-1.2c0.11-0.14,0.29-0.22,0.5-0.22
	C20.18,82.85,20.33,83.13,20.4,83.36z"/>
<path class="st3" d="M26.13,85.47c-0.11,0.15-0.3,0.23-0.51,0.23c-0.21,0-0.4-0.09-0.51-0.23c-0.11-0.15-0.18-0.31-0.18-1.19
	c0-0.89,0.07-1.05,0.18-1.2c0.11-0.14,0.3-0.23,0.51-0.23c0.21,0,0.4,0.08,0.51,0.23c0.11,0.15,0.18,0.31,0.18,1.2
	C26.32,85.16,26.25,85.32,26.13,85.47z M25.62,81.93c-0.53,0-0.93,0.16-1.28,0.52c-0.46,0.46-0.46,1.09-0.46,1.76v0.16
	c0,0.67,0,1.29,0.46,1.76c0.36,0.36,0.75,0.52,1.28,0.52c0.53,0,0.93-0.16,1.28-0.52c0.46-0.46,0.46-1.09,0.46-1.75V84.2
	c0-0.66,0-1.29-0.46-1.75C26.55,82.09,26.15,81.93,25.62,81.93"/>
<path class="st3" d="M31.16,81.97h-1.05v4.62h3.04v-0.93h-1.99V81.97z"/>
<path class="st3" d="M37.69,85.47c-0.11,0.15-0.3,0.23-0.51,0.23c-0.24,0-0.42-0.12-0.51-0.23c-0.11-0.15-0.18-0.31-0.18-1.19
	c0-0.89,0.07-1.05,0.18-1.2c0.11-0.14,0.3-0.23,0.51-0.23c0.21,0,0.4,0.08,0.51,0.23c0.11,0.15,0.18,0.31,0.18,1.2
	C37.88,85.16,37.81,85.32,37.69,85.47z M37.18,81.93c-0.53,0-0.93,0.16-1.28,0.52c-0.46,0.46-0.46,1.09-0.46,1.76v0.16
	c0,0.67,0,1.29,0.46,1.76c0.35,0.36,0.75,0.52,1.28,0.52c0.53,0,0.93-0.16,1.28-0.52c0.46-0.46,0.46-1.09,0.46-1.76V84.2
	c0-0.67,0-1.29-0.46-1.76C38.11,82.09,37.71,81.93,37.18,81.93"/>
<path class="st3" d="M43.98,83.39h1.06c-0.09-0.49-0.43-1.46-1.78-1.46c-0.53,0-0.92,0.16-1.28,0.51c-0.46,0.46-0.46,1.09-0.46,1.76
	v0.16c0,0.67,0,1.29,0.46,1.76c0.35,0.35,0.76,0.52,1.28,0.52c0.59,0,0.99-0.15,1.34-0.52c0.34-0.34,0.46-0.76,0.46-1.54v-0.6h-1.74
	v0.86h0.7v0.12c0,0.23-0.07,0.42-0.19,0.54c-0.13,0.13-0.31,0.2-0.56,0.2c-0.21,0-0.4-0.08-0.5-0.22c-0.11-0.15-0.18-0.31-0.18-1.2
	c0-0.89,0.07-1.05,0.18-1.2c0.11-0.15,0.29-0.23,0.5-0.23C43.65,82.85,43.87,83.01,43.98,83.39z"/>
<path class="st3" d="M47.79,86.59h1.05v-4.62h-1.05V86.59z"/>
<path class="st3" d="M54,84.98l-0.01,0.12l-0.27-0.27l-0.51,0.51l0.33,0.33l-0.1,0.02c-0.04,0.01-0.07,0.01-0.1,0.01
	c-0.24,0-0.42-0.12-0.51-0.23c-0.11-0.15-0.18-0.31-0.18-1.19c0-0.89,0.07-1.05,0.18-1.19c0.11-0.14,0.3-0.23,0.51-0.23
	s0.4,0.09,0.51,0.23c0.11,0.15,0.18,0.31,0.18,1.19C54.03,84.62,54.01,84.84,54,84.98z M54.82,85.86c0.27-0.42,0.26-0.95,0.26-1.51
	V84.2c0-0.67,0-1.29-0.46-1.76c-0.35-0.35-0.75-0.51-1.28-0.51c-0.53,0-0.93,0.16-1.28,0.51c-0.46,0.46-0.46,1.09-0.46,1.76v0.16
	c0,0.67,0,1.29,0.46,1.76c0.36,0.36,0.75,0.52,1.28,0.52c0.35,0,0.64-0.07,0.89-0.21l0.04-0.02l0.36,0.36l0.51-0.51l-0.34-0.34
	L54.82,85.86z"/>
<path class="st3" d="M58.79,84.95v-2.99h-1.05v3.01c0,0.95,0.73,1.65,1.73,1.65c1.01,0,1.75-0.69,1.75-1.65v-3.01h-1.05v2.99
	c0,0.46-0.27,0.75-0.69,0.75C59.05,85.7,58.79,85.41,58.79,84.95z"/>
<path class="st3" d="M65.08,84.72h1.75v-0.93h-1.75v-0.9h2.05v-0.93h-3.11v4.62h3.11v-0.93h-2.05V84.72z"/>
</svg>
