<svg class="site-logo" data-name="Calque 3" xmlns="http://www.w3.org/2000/svg" viewBox="0 0 270.45 200.68"><path d="M1.91 30.02h3.86l3.64 6.2 3.64-6.2h3.86v15.1h-3.09V34.37l-3.36 5.55H8.31l-3.4-5.55v10.75h-3zM21.08 30.02h3.06v15.1h-3.06zM28.36 30.02h3.92l6.74 10.79V30.02h3.06v15.1h-3.92l-6.74-10.86v10.86h-3.06zM46.3 30.02h3v15.1h-3zM54.44 40.96a4.34 4.34 0 003.33 1.85 1.7 1.7 0 001.94-1.69c0-2.7-6.89-2.09-6.89-7.11a4.51 4.51 0 014.83-4.37 6.64 6.64 0 015.26 2.48l-2.24 2a4 4 0 00-3-1.87 1.6 1.6 0 00-1.76 1.58c0 2.69 6.89 2.07 6.89 7.17 0 2.8-2.24 4.52-5 4.52A6.78 6.78 0 0152.2 43zM64.36 30.02h12.36v2.78h-4.65v12.32h-3V32.8h-4.71zM79.42 30.02h8.78v2.6h-5.73v3.5h4.87v2.6h-4.87v3.77h5.73v2.63h-8.78zm.26-4.2h3.14l2.43 2.91h-2.8zM91.76 30.02h4.6c3.32 0 5.37 1.7 5.37 4.5a4.12 4.12 0 01-2.42 3.9l4.74 6.7h-3.66l-4-6.09h-1.58v6.09h-3.05zm3.05 2.6v3.77h1.73a1.89 1.89 0 100-3.77zM105.91 30.02h8.78v2.6h-5.73v3.5h4.95v2.6h-4.87v3.77h5.73v2.63h-8.86zM1.91 51.75h5.93c4.78 0 8 3.47 8 7.54s-3.23 7.54-8 7.54H1.91zm3 2.78v9.52h3a4.76 4.76 0 100-9.52zM18.78 51.75h8.78v2.61h-5.73v3.49h4.87v2.6h-4.87v3.77h5.73v2.61h-8.78zM36.71 51.75h3.06v12.3h5.73v2.78h-8.79zM52.65 51.75h4l5.71 15.08h-3.25l-1.44-3.92h-6l-1.45 3.92h-3.31zm4.07 8.55l-2.07-5.66-2.06 5.66zM80.91 62.33l2.42 1.85a7.73 7.73 0 01-6.36 3.08 8 8 0 116.36-12.88l-2.42 1.87a4.71 4.71 0 00-3.94-2.06 5.11 5.11 0 000 10.2 4.71 4.71 0 003.94-2.06z"/><path d="M100.61 59.29a8 8 0 11-8-8 7.84 7.84 0 018 8zm-3.15 0a4.86 4.86 0 10-4.84 5.1 4.85 4.85 0 004.84-5.1zM103.53 51.75h3.06v6h7.6v-6h3.06v15.08h-3.06v-6.29h-7.6v6.29h-3.06zM121.47 51.75h8.79v2.61h-5.73v3.49h4.87v2.6h-4.87v3.77h5.73v2.61h-8.79zm3-1.29l2.44-2.9h3.14l-2.8 2.9zM134.67 62.69a4.33 4.33 0 003.34 1.85c1.21 0 1.94-.64 1.94-1.74 0-2.69-6.89-2.09-6.89-7.11a4.51 4.51 0 014.85-4.37 6.69 6.69 0 015.28 2.54l-2.24 2a4 4 0 00-3-1.88 1.6 1.6 0 00-1.74 1.58c0 2.69 6.89 2.06 6.89 7.17 0 2.8-2.24 4.52-5 4.52a6.82 6.82 0 01-5.6-2.52zM146.26 51.75h3.06v15.08h-3.06zM168.24 59.29a8 8 0 11-8-8 7.83 7.83 0 018 8zm-3.14 0a4.86 4.86 0 10-4.84 5.1 4.85 4.85 0 004.84-5.1zM171.17 51.75h3.92l6.74 10.79V51.75h3.08v15.08h-3.92L174.25 56v10.83h-3.06zM1.91 73.49h5.93c4.78 0 8 3.47 8 7.54s-3.23 7.53-8 7.53H1.91zm3 2.78v9.51h3a4.76 4.76 0 100-9.51zM18.78 73.49h8.78v2.63h-5.73v3.48h4.87v2.61h-4.87v3.77h5.73v2.6h-8.78zM31.98 84.43a4.34 4.34 0 003.33 1.85 1.7 1.7 0 001.94-1.74c0-2.7-6.89-2.09-6.89-7.11a4.51 4.51 0 014.83-4.37 6.64 6.64 0 015.27 2.54l-2.24 2a4 4 0 00-3-1.87 1.6 1.6 0 00-1.75 1.57c0 2.69 6.89 2.07 6.89 7.17 0 2.8-2.24 4.52-5 4.52a6.78 6.78 0 01-5.6-2.52zM47.61 73.49h12.36v2.78h-4.65v12.29h-3.06V76.27h-4.65zM62.66 73.49h8.79v2.63h-5.73v3.48h4.87v2.61h-4.87v3.77h5.73v2.6h-8.79zM75 73.49h4.61c3.32 0 5.36 1.7 5.36 4.5a4.1 4.1 0 01-2.41 3.9l4.74 6.67h-3.66l-4-6.09h-1.57v6.09h-3.06zm3.06 2.63v3.76h1.72a1.89 1.89 0 100-3.76zM89.19 73.49h4.61c3.32 0 5.36 1.7 5.36 4.5a4.1 4.1 0 01-2.41 3.9l4.74 6.67h-3.66l-4-6.09h-1.57v6.09H89.2zm3.06 2.63v3.76h1.72a1.89 1.89 0 100-3.76zM103.38 73.49h3.06v15.07h-3.06zM109.11 73.49h12.36v2.78h-4.65v12.29h-3.06V76.27h-4.65zM138.18 81.03a8 8 0 11-8-8 7.83 7.83 0 018 8zm-3.14 0a4.86 4.86 0 10-4.85 5.1 4.86 4.86 0 004.85-5.1zM141.11 73.49h3.06v15.07h-3.06zM148.39 73.49H153c3.31 0 5.36 1.7 5.36 4.5a4.1 4.1 0 01-2.41 3.9l4.74 6.67h-3.66l-4-6.09h-1.57v6.09h-3.06zm3.06 2.63v3.76h1.72a1.89 1.89 0 100-3.76zM162.58 73.49h8.79v2.63h-5.73v3.48h4.87v2.61h-4.87v3.77h5.73v2.6h-8.79zM175.78 84.43a4.36 4.36 0 003.34 1.85 1.7 1.7 0 001.94-1.74c0-2.7-6.89-2.09-6.89-7.11a4.51 4.51 0 014.82-4.37 6.66 6.66 0 015.28 2.54l-2.24 2a4 4 0 00-3-1.87 1.6 1.6 0 00-1.74 1.57c0 2.69 6.89 2.07 6.89 7.17-.05 2.8-2.24 4.52-5 4.52a6.79 6.79 0 01-5.6-2.52zM1.91 95.22h8.79v2.61H4.91v3.49h4.87v2.6H4.91v3.77h5.73v2.61H1.91zM13.01 95.22h12.36V98h-4.66v12.3h-3V98h-4.7zM33.66 95.22h5.92c4.78 0 8 3.47 8 7.54s-3.23 7.54-8 7.54h-5.92zm3 2.78v9.52h2.91a4.76 4.76 0 100-9.52zM50.54 95.22h8.79v2.61H53.6v3.49h4.86v2.6H53.6v3.77h5.73v2.61h-8.79zM63.74 106.12a4.33 4.33 0 003.34 1.86 1.71 1.71 0 001.94-1.75c0-2.69-6.9-2.09-6.9-7.1a4.52 4.52 0 014.83-4.38 6.67 6.67 0 015.27 2.54l-2.24 2a4 4 0 00-3-1.88 1.6 1.6 0 00-1.74 1.58c0 2.69 6.89 2.06 6.89 7.17 0 2.8-2.24 4.52-5 4.52a6.82 6.82 0 01-5.6-2.52zM80.91 95.22h4.61c3.32 0 5.36 1.71 5.36 4.51a4.09 4.09 0 01-2.41 3.89l4.74 6.68h-3.66l-4-6.1h-1.57v6.1h-3.07zm3.06 2.61v3.77h1.72a1.89 1.89 0 100-3.77zM95.11 95.22h8.8v2.61h-5.73v3.49h4.87v2.6h-4.87v3.77h5.73v2.61h-8.8zM107.45 95.22h3.06v12.3h5.73v2.78h-8.79zM123.39 95.22h4l5.71 15.08h-3.25l-1.44-3.92h-6l-1.5 3.92h-3.25zm4.07 8.55l-2.07-5.65-2.07 5.66zM132.37 95.22h12.36V98h-4.65v12.3h-3.06V98h-4.65zM147.42 95.22h3.06v15.08h-3.06zM169.41 102.76a8 8 0 11-8-8 7.83 7.83 0 018 8zm-3.15 0a4.86 4.86 0 10-4.84 5.1 4.85 4.85 0 004.84-5.1zM172.34 95.22h3.92l6.74 10.79V95.22h3v15.08h-3.92l-6.74-10.83v10.83h-3zM191.14 106.12a4.33 4.33 0 003.33 1.86 1.7 1.7 0 001.94-1.75c0-2.69-6.89-2.09-6.89-7.1a4.51 4.51 0 014.82-4.38 6.69 6.69 0 015.28 2.54l-2.24 2a4 4 0 00-3-1.88 1.61 1.61 0 00-1.75 1.58c0 2.69 6.89 2.06 6.89 7.17 0 2.8-2.24 4.52-5 4.52a6.79 6.79 0 01-5.6-2.52zM5.71 116.96h4l5.71 15.07h-3.25l-1.45-3.91h-6l-1.44 3.92H0zm4.07 8.55l-2.07-5.66-2.07 5.66zM17.76 116.96l4.46 11.78 4.46-11.78h3.23l-5.71 15.07h-4l-5.69-15.07zM32.26 116.96h8.78v2.61h-5.73v3.48h4.87v2.61h-4.87v3.77h5.73v2.6h-8.78zM54.91 127.53l2.41 1.85a7.7 7.7 0 01-6.35 3.08 8 8 0 116.35-12.87l-2.41 1.87a4.71 4.71 0 00-3.94-2.07 5.11 5.11 0 000 10.21 4.71 4.71 0 003.94-2.07zM65.57 116.96h3.06v12.3h5.73v2.77h-8.79zM77.05 116.96h8.78v2.61h-5.72v3.48h4.86v2.61h-4.86v3.77h5.72v2.6h-8.78zM90.25 127.9a4.35 4.35 0 003.34 1.85 1.7 1.7 0 001.93-1.74c0-2.7-6.89-2.09-6.89-7.11a4.51 4.51 0 014.83-4.37 6.64 6.64 0 015.27 2.54l-2.24 2a4 4 0 00-3-1.87 1.6 1.6 0 00-1.75 1.57c0 2.69 6.89 2.07 6.89 7.17 0 2.8-2.23 4.52-5 4.52a6.79 6.79 0 01-5.6-2.52zM118.09 127.53l2.41 1.85a7.67 7.67 0 01-6.35 3.08 8 8 0 116.35-12.87l-2.41 1.87a4.71 4.71 0 00-3.94-2.07 5.11 5.11 0 000 10.21 4.71 4.71 0 003.94-2.07z"/><path d="M137.75 124.5a8 8 0 11-8-8 7.83 7.83 0 018 8zm-3.14 0a4.86 4.86 0 10-4.85 5.1 4.86 4.86 0 004.85-5.1zM140.68 116.96h3.06v12.3h5.73v2.77h-8.79zM152.16 116.96h3.06v12.3h5.69v2.77h-8.78zM163.64 116.96h8.78v2.61h-5.73v3.48h4.87v2.61h-4.87v3.77h5.73v2.6h-8.78zM186.29 127.53l2.41 1.85a7.7 7.7 0 01-6.35 3.08 8 8 0 116.35-12.87l-2.41 1.87a4.71 4.71 0 00-3.94-2.07 5.11 5.11 0 000 10.21 4.71 4.71 0 003.94-2.07zM189.8 116.96h12.36v2.78h-4.65v12.29h-3.06v-12.29h-4.65zM204.85 116.96h3.06v15.07h-3.06zM213.49 116.96l4.42 11.78 4.45-11.78h3.25l-5.7 15.07h-4l-5.7-15.07zM227.98 116.96h3.06v15.07h-3.06zM233.71 116.96h12.36v2.78h-4.65v12.29h-3.06v-12.29h-4.65zM248.76 116.96h8.79v2.61h-5.73v3.48h4.86v2.61h-4.86v3.77h5.73v2.6h-8.79zm3-1.29l2.44-2.91h3.14l-2.8 2.91zM261.96 127.9a4.36 4.36 0 003.34 1.85 1.7 1.7 0 001.94-1.74c0-2.7-6.89-2.09-6.89-7.11a4.51 4.51 0 014.82-4.37 6.68 6.68 0 015.28 2.54l-2.24 2a4 4 0 00-3-1.87 1.6 1.6 0 00-1.74 1.57c0 2.69 6.89 2.07 6.89 7.17-.05 2.8-2.24 4.52-5 4.52a6.79 6.79 0 01-5.6-2.52zM.34 138.7H12.7v2.77H8.05v12.3H4.99v-12.3H.34zM15.4 138.7h8.78v2.6h-5.73v3.49h4.87v2.6h-4.87v3.73h5.73v2.61H15.4zM27.73 138.7h4.61c3.32 0 5.36 1.7 5.36 4.5a4.09 4.09 0 01-2.41 3.92l4.74 6.68h-3.66l-4-6.1h-1.58v6.1h-3.06zm3.06 2.6v3.82h1.73a1.89 1.89 0 100-3.77zM41.91 138.7h4.6c3.32 0 5.37 1.7 5.37 4.5a4.1 4.1 0 01-2.4 3.92l4.74 6.68h-3.66l-4-6.1h-1.58v6.1h-3.07zm3 2.6v3.82h1.8a1.89 1.89 0 100-3.77zM56.12 138.7h3.05v15.07h-3.05zM61.84 138.7h12.37v2.77h-4.66v12.3h-3v-12.3h-4.71zM90.91 146.23a8 8 0 11-8-8 7.84 7.84 0 018 8zm-3.15 0a4.86 4.86 0 10-4.84 5.11 4.85 4.85 0 004.85-5.11zM93.84 138.7h4.61c3.32 0 5.36 1.7 5.36 4.5a4.09 4.09 0 01-2.41 3.89l4.74 6.68h-3.66l-4-6.1h-1.57v6.1h-3.06zm3.06 2.6v3.82h1.72a1.89 1.89 0 100-3.77zM108.04 138.7h3.05v15.07h-3.05zM119.13 138.7h4l5.71 15.07h-3.25l-1.45-3.92h-6l-1.44 3.92h-3.25zm4.06 8.54l-2.06-5.66-2.07 5.66zM131.16 138.7h3.06v12.29h5.69v2.78h-8.79zM142.64 138.7h8.79v2.6h-5.73v3.49h4.86v2.6h-4.86v3.73h5.73v2.61h-8.79zM155.84 149.63a4.34 4.34 0 003.34 1.86 1.71 1.71 0 001.94-1.75c0-2.69-6.89-2.09-6.89-7.1a4.51 4.51 0 014.82-4.38 6.65 6.65 0 015.27 2.55l-2.23 2a4 4 0 00-3-1.88 1.6 1.6 0 00-1.74 1.58c0 2.69 6.89 2.06 6.89 7.17-.05 2.8-2.24 4.52-5 4.52a6.82 6.82 0 01-5.6-2.52zM50.91 195.48c.41 0 .77.31.58 1.1l-1.9.44c.33-.89.88-1.54 1.32-1.54m1 3.06h-.37a2.29 2.29 0 01-1.49 1c-.52 0-.79-.31-.79-1a3.93 3.93 0 01.09-.84l3.06-1c.6-1.42-.12-2-1-2-1.45 0-3.1 2.42-3.1 4.55 0 .95.46 1.47 1.17 1.47s1.69-.81 2.39-2.14m-.6-4.44l2.15-2v-.23h-1.04l-1.33 2.21zm-6.61 1.41h1l-1.61 4.41a.52.52 0 00.44.76 3.76 3.76 0 002.92-2.15h-.29a4 4 0 01-1.87 1.13l1.66-4.19h1.51l.19-.63H47.1l.56-1.59h-.58l-1 1.59-1.25.18zm-1.37-.21a.46.46 0 00-.37-.64 2.85 2.85 0 00-2.35 1.92h.29a2.19 2.19 0 011.22-.94l-1.69 4.39a.45.45 0 00.37.65A2.79 2.79 0 0043 198.8h-.29a2.22 2.22 0 01-1.22.94zm.31-2.21a.73.73 0 100-1.45.73.73 0 100 1.45m-9.74 6.77c-.22.5 0 .82.5.82.3 0 .43-.08.55-.4l1.17-3.11a4.23 4.23 0 012.1-1.37c.32 0 .28.27.07.66l-1.8 3.46a.51.51 0 00.44.76 2.85 2.85 0 002.35-1.92h-.29a2.19 2.19 0 01-1.22.94l1.54-3.12a2.53 2.53 0 00.3-1.08.76.76 0 00-.81-.84c-.77 0-1.54.87-2.46 1.93v-.82c0-.59-.19-1.11-.72-1.11-.33 0-.65.29-1 .7v.11c.58 0 .83.83.42 1.74zm0-3.85c.21-.72.1-1.35-.46-1.35s-.81.5-1.48 1.93v-.82c0-.59-.18-1.11-.71-1.11s-1.19 1-1.62 1.92h.29c.3-.44.57-.69.79-.69s.41.41 0 1.32l-1.19 2.65c-.22.5 0 .82.5.82.3 0 .43-.08.55-.4l1.17-3.11c.33-.41.63-.76 1-1.16zm-6.79-.53c.41 0 .76.31.58 1.1l-1.9.44c.33-.89.88-1.54 1.32-1.54m1.05 3.06h-.37a2.29 2.29 0 01-1.5 1c-.52 0-.78-.31-.78-1a3.93 3.93 0 01.09-.84l3.06-1c.6-1.42-.12-2-1-2-1.45 0-3.1 2.42-3.1 4.55 0 .95.46 1.47 1.16 1.47s1.69-.81 2.4-2.14m-7.22-3h1l-1.45 4.3a.51.51 0 00.44.76 3.76 3.76 0 002.92-2.15h-.29a4 4 0 01-1.87 1.13l1.48-4.15h1.52l.19-.63h-1.47l.56-1.59h-.59l-1 1.59-1.25.18zm-5.58 3.44c0-1.36 1.52-3.2 2.37-3.2a2.12 2.12 0 01.52.06l-.89 2.36c-.5.62-1.29 1.37-1.65 1.37s-.35-.18-.35-.59m4.66-4.54h-.47l-.52.5h-.11c-2.52 0-4.69 2.83-4.69 4.89a.84.84 0 00.9.91c.65 0 1.29-.93 2-1.93v.36c-.09 1 .22 1.57.75 1.57s1.18-1 1.62-1.92h-.29c-.3.43-.58.69-.8.69s-.4-.42 0-1.32zm-5.37 1.6c.21-.72.1-1.35-.46-1.35s-.82.5-1.48 1.93v-.82c0-.59-.19-1.11-.72-1.11s-1.18 1-1.61 1.92h.29c.3-.44.57-.69.79-.69s.41.41 0 1.32l-1.19 2.65c-.22.5 0 .82.5.82a.5.5 0 00.55-.4l1.17-3.11c.33-.41.63-.76 1-1.16zm-8.47 4.44l.11-.34c-1.47-.27-1.66-.27-1.07-1.88l.6-1.64h1.62c.73 0 .74.29.63 1.09h.42l1-2.66h-.42c-.36.63-.65 1.09-1.45 1.09h-1.6l.85-2.33c.27-.74.42-.9 1.42-.9h.71c1 0 1.14.28 1.14 1.32h.41l.35-1.81h-6.1l-.11.34c1.18.24 1.29.35.74 1.88l-1.33 3.62c-.55 1.52-.79 1.64-2.14 1.88l-.1.34zM36.15 181.67c.4 0 .76.31.57 1.09l-1.9.44c.33-.88.88-1.53 1.33-1.53m1.05 3.06h-.38a2.29 2.29 0 01-1.49 1c-.52 0-.79-.31-.79-1a4.5 4.5 0 01.09-.84l3.06-1c.6-1.41-.12-2-1-2-1.45 0-3.09 2.42-3.09 4.54 0 .95.45 1.47 1.16 1.47s1.69-.81 2.4-2.13m-.61-4.44l2.15-2v-.23h-1.12l-1.32 2.25zm-6.61 1.41h1l-1.56 4.38a.51.51 0 00.44.75 3.76 3.76 0 002.92-2.14h-.29a4 4 0 01-1.86 1.12l1.48-4.14h1.51l.19-.63H32.3l.56-1.59h-.58l-1.05 1.63-1.25.18zm-1.37-.21a.45.45 0 00-.37-.64 2.84 2.84 0 00-2.29 1.87h.29a2.23 2.23 0 011.22-.94l-1.69 4.4a.44.44 0 00.37.64 2.79 2.79 0 002.24-1.91h-.29a2.23 2.23 0 01-1.22.94zm.31-2.21a.73.73 0 10-.73-.73.73.73 0 00.73.73M23 185.93l3.08-8.08-.1-.12-1.93.22v.17l.37.29c.35.26.24.52-.07 1.34l-2.37 6.37a.5.5 0 00.44.75 2.71 2.71 0 002.24-1.91h-.28a2.53 2.53 0 01-1.34.94m-5.86-.78c0-1.36 1.52-3.21 2.37-3.21a1.77 1.77 0 01.52.07l-.89 2.35c-.51.62-1.29 1.37-1.66 1.37-.21 0-.34-.17-.34-.58m4.65-4.55h-.46l-.52.51h-.11c-2.52 0-4.7 2.83-4.7 4.88a.84.84 0 00.91.91c.65 0 1.29-.93 2-1.92v.35c-.09 1 .22 1.57.75 1.57s1.18-1 1.61-1.91h-.3c-.3.43-.58.68-.8.68s-.4-.42 0-1.31zm-11.25 7.34c0-.58.57-.95 1.37-1.27a11.61 11.61 0 001.2.46c.84.27 1.16.38 1.16.64 0 .54-.92 1-2.17 1-1 0-1.56-.22-1.56-.78m2.33-3.6c-.36 0-.51-.31-.51-.66 0-1 .53-2.43 1.36-2.43.37 0 .51.31.51.66 0 1-.53 2.43-1.36 2.43m2.4 3c0-.71-.63-1-1.66-1.27s-1.28-.34-1.28-.63a.92.92 0 01.56-.71 2.57 2.57 0 002.39-2.47 1.48 1.48 0 00-.12-.61h1.23l.18-.63h-1.98a1.54 1.54 0 00-.79-.22 2.57 2.57 0 00-2.53 2.44 1.42 1.42 0 001.17 1.47c-.71.32-1.11.7-1.11 1.14a.71.71 0 00.3.6c-1.66.48-2.31 1-2.31 1.82s1 1.08 2.2 1.08c2 0 3.71-1.09 3.71-2m-7.73-4.73c.73 0 .74.3.63 1.1h.42l1-2.67h-.42c-.37.63-.66 1.1-1.45 1.1h-1.6l.8-2.23c.27-.74.42-.88 1.42-.88h.71c1 0 1.14.28 1.14 1.3h.41l.35-1.81h-6.1l-.11.34c1.18.25 1.29.36.74 1.88l-1.33 3.63c-.55 1.51-.79 1.63-2.14 1.88l-.1.34h6.78l1.22-1.9h-.47a4.42 4.42 0 01-3.1 1.42c-1.8 0-1.64-.07-1-1.72l.64-1.76zm.89-4.63l2.15-1.48v-.23h-1.3l-1.19 1.71zM35.43 167.85c.41 0 .76.31.57 1.1l-1.9.44c.33-.89.89-1.54 1.33-1.54m1 3.06h-.38a2.25 2.25 0 01-1.49 1c-.52 0-.79-.31-.79-1a4.69 4.69 0 01.14-.79l3.06-1c.6-1.42-.12-2-1-2-1.44 0-3.09 2.42-3.09 4.55 0 .95.45 1.47 1.16 1.47s1.69-.81 2.4-2.14m-.53-4.53l2.15-2v-.23h-1.15l-1.32 2.24zm-6.33 1.42h.8l-1.61 4.4a.52.52 0 00.44.76 3.76 3.76 0 002.92-2.15h-.29a4 4 0 01-1.93 1.13l1.49-4.14h1.51l.19-.63h-1.45l.56-1.6h-.58l-1 1.6-1 .17zm-.8.49c.21-.72.1-1.35-.45-1.35s-.82.5-1.48 1.93v-.84c0-.59-.19-1.11-.72-1.11s-1.18 1-1.61 1.92h.28c.3-.43.58-.69.8-.69s.41.41 0 1.32l-1.2 2.65c-.22.5 0 .82.5.82.3 0 .43-.08.55-.4l1.18-3.11c.33-.41.63-.76 1-1.16zm-6.78-.53c.4 0 .76.31.57 1.1l-1.9.44c.33-.89.88-1.54 1.33-1.54m1.05 3.06h-.38a2.27 2.27 0 01-1.49 1c-.52 0-.79-.31-.79-1a4.69 4.69 0 01.09-.84l3.06-1c.6-1.42-.12-2-1-2-1.45 0-3.09 2.42-3.09 4.55 0 .95.45 1.47 1.16 1.47s1.69-.81 2.4-2.14m-7.51 1.17c-.3 0-.73-.28-.73-.52a5.55 5.55 0 01.3-.85l.5-1.31c.53-.63 1.33-1.31 1.79-1.31.27 0 .48.18.48.59 0 1.2-1.12 3.4-2.34 3.4m3.48-3.89c0-.89-.33-1.23-1-1.23s-1.5.82-2.23 1.82l1.85-4.86-.1-.12-1.89.28v.24l.38.28c.34.27.23.55-.08 1.34l-2 5.14a6 6 0 00-.32.94c0 .53.72 1 1.37 1 1.5 0 4-2.71 4-4.79m-6-.58a.46.46 0 00-.36-.65 2.85 2.85 0 00-2.36 1.92h.29a2.21 2.21 0 011.23-.94l-1.69 4.4a.44.44 0 00.36.64 2.79 2.79 0 002.25-1.94h-.28a2.24 2.24 0 01-1.23.94zm.31-2.22a.73.73 0 00.73-.72.73.73 0 00-1.46 0 .72.72 0 00.73.72m-4.45-.7h-4l-.11.34c1.19.24 1.3.35.74 1.88l-1.3 3.62c-.55 1.52-.79 1.64-2.14 1.88l-.1.35h6.1l1.32-2.37h-.42c-.75.83-1.64 1.87-3 1.87-1 0-1.15-.18-.6-1.73l1.3-3.62c.54-1.52.79-1.64 2.15-1.88z"/><path d="M24.6 17.65c.21-.21.43-.44.64-.67a12.79 12.79 0 011.26-1.29 3.71 3.71 0 01.41-.33s0-.11.08-.15c-.19.07-.3.22-.49.3s-.08 0 0-.08l.41-.31v-.07a1.53 1.53 0 00-1.21.56h-.19c-.57.18-1 .68-1.55.9v-.09c-.23.07-.45.21-.68.26a3.84 3.84 0 01-.95 0 13.15 13.15 0 00-1.37.25 2.69 2.69 0 00-.71.28l-.06.07a1 1 0 01-.26.23 3.18 3.18 0 00-.62.49h-.06l-.61.58a.23.23 0 01-.12 0l.09-.16.12-.17a1.88 1.88 0 01.16-.23v-.05a3.63 3.63 0 01.64-.47h-.05a.61.61 0 00.07-.1 1.09 1.09 0 00-.17.13c-.1.08-.17.25-.3.24h-.06v-.05a.35.35 0 000-.08.16.16 0 010-.07.06.06 0 000-.07.7.7 0 01.26-.22l.44-.25.06-.05a2.41 2.41 0 00-.6.3h-.06a.1.1 0 01-.1 0s.15-.12.23-.19.07 0 .07 0c1.22-.95 2.88-.72 4.28-1.21l.34-.23c.19-.08.34-.27.57-.38a1.65 1.65 0 00.64-.87.14.14 0 000-.08 5.8 5.8 0 01-1.66 1.25 7.22 7.22 0 01-2.5.46c0-.08.11-.08.19-.08s.08-.15.15-.23h.12s0-.07.07-.07h.15c-.04 0-.34.11-.53 0 .08-.07 0-.19.12-.23h.15a.29.29 0 01.07-.15c.57-.34 1.1-.6 1.63-.91-.11 0-.19.12-.3 0 .07 0 0-.11.07-.11.42-.11.76-.34 1.18-.49-.16 0-.27.11-.42 0 .07 0 .11-.12.23-.12v-.11h.07a.1.1 0 01-.07 0c0-.07.15 0 .22-.11s-.11 0-.11 0a.7.7 0 01.49-.22c0-.08-.15 0-.15-.08s0 0 .08 0h-.08c-.08 0 0-.11 0-.15a2.45 2.45 0 00.34-.91h-.07a3.27 3.27 0 01-1.55.72h-.19a.82.82 0 01-.65 0 2.53 2.53 0 01-.37-.31 4.85 4.85 0 00-1-.45 8.77 8.77 0 00-3.03-.9 6.45 6.45 0 011.32-.37 5.57 5.57 0 011.93-.38 1.21 1.21 0 00-.38 0 5.81 5.81 0 00-1.62.23c-.38.07-.72.22-1.1.3-.23.07-.34.3-.61.26v-.11a2.23 2.23 0 011.44-.95 7.15 7.15 0 012 .08 10.24 10.24 0 011.43.26c.19 0 .23.31.38.34s.46 0 .68.16v-.23c0-.07.34 0 .49 0 .31-.19-.26-.53-.41-.79a.14.14 0 010-.08 4.37 4.37 0 00.9.76c.19.07.65.19.57 0a6.16 6.16 0 00-.87-1.14v-.15c-.04-.12-.04-.19-.04-.19v-.15c-.15-.08-.12-.23-.19-.34s0-.46-.12-.68a5.08 5.08 0 01-.15-.65c-.11-.64-.26-1.21-.34-1.81a3.57 3.57 0 01.76-1.93 3.15 3.15 0 011.04-1.21 3.14 3.14 0 01.72-1.23 3.11 3.11 0 011.16-.76c.53-.23 1-.38 1-.38h-26v20h18.43a16.77 16.77 0 012.45-1.26 9.64 9.64 0 001.93-1.07zm-5.82-2.71h-.19c.04 0 .3-.18.46-.26s.18-.11.26-.08.19.08.27.16c-.23.18-.53.07-.8.18zm-5.79-.82a.16.16 0 010-.08 11.61 11.61 0 001.18-1.92 5.21 5.21 0 001.28-1.06 7.59 7.59 0 012.12-1.67 1.5 1.5 0 011 0c-.11.15-.3.11-.45.23a.12.12 0 01-.11 0 .17.17 0 000-.11c-.37.41-.9.6-1.21 1.09s-.37.87-.87 1c-.15 0 0-.12 0-.08a12.74 12.74 0 00-2.94 2.6zm3.14-2.5c0 .08-.08.09-.11.16a.36.36 0 01-.15.15h-.08a.46.46 0 01.31-.34s.03-.01.03.02zm1.78 5.66a.48.48 0 01-.09.11s.08 0 0 .06a.84.84 0 01-.29.2h-.06l-.14.13s-.25 0-.19-.05a3.45 3.45 0 00.28-.26c.05-.05.11-.09.16-.15a.3.3 0 01.08-.08s.25-.03.25.04zm-.68-.31c-.14.09-.28.2-.43.28a4.66 4.66 0 01-.5.25.06.06 0 00-.07 0 2.12 2.12 0 00-.38.29v.05l-.05.05-.08.09-.05.05c-.05.05-.09 0-.08 0h-.28l-.14.12a2.39 2.39 0 00-.22.23v-.06l.12-.14v-.05l.07-.08.12-.16a.22.22 0 010-.08v-.08a.2.2 0 000-.08v-.07-.05a1.49 1.49 0 01.15-.2.81.81 0 00-.14.12s-.12 0-.07-.06l.08-.08a1.8 1.8 0 01.19-.2l.12-.08.09-.1c.36-.35 1-.33 1.45-.56.19-.07.42 0 .61 0a.55.55 0 01.34.08c-.24.12-.56.32-.87.52zm.78-2.63s.11 0 .15-.08h-.3v-.07c-.19 0-.42.11-.61.15s-.49.26-.79.34-.76.49-1.21.64v-.07c0-.07.19-.16.26-.27s0-.08 0-.08a7.26 7.26 0 011.09-1v-.11c.12-.15.31-.23.38-.42a.72.72 0 01.38-.34s-.11 0-.11-.11-.31.07-.46 0a.47.47 0 01.24-.13.24.24 0 01-.09-.06c0-.07.08-.16.19-.19a1 1 0 00.46-.15c-.27 0-.57.08-.83-.07a2 2 0 01.81-1.2h.11a.37.37 0 01-.3.38 3.77 3.77 0 01.91.22c0 .08-.11 0-.15 0 .19.11.41 0 .6.19-.11.11-.22 0-.34 0a10 10 0 013.41 1.36 10.5 10.5 0 01-2.61.8.83.83 0 01-.29.05v.11a.6.6 0 00-.38.08c-.2.1-.43.14-.54.03z" fill="#000091"/><path d="M56.91 0H35.35a.67.67 0 01.21.09l.54.29a1.77 1.77 0 01.72.61.58.58 0 01.12.49c-.08.19-.12.49-.31.57a1.4 1.4 0 01-.79.07 2.34 2.34 0 01-.45-.07 3.05 3.05 0 011.52 1.07c0 .07.19.11.34.11s0 .08 0 .11-.15.12-.12.23h.12c.19-.08.15-.45.41-.34a.43.43 0 01.16.57c-.16.15-.31.26-.46.38a.3.3 0 000 .26 1.09 1.09 0 01.19.45c.11.27.15.57.27.84a5.24 5.24 0 01.26 1.7c0 .3-.15.57 0 .87a3.33 3.33 0 00.42.79 5.43 5.43 0 01.41.61c.23.38.65.75.46 1.21-.11.26-.53.22-.8.38s0 .49.08.68-.23.56-.49.68c.07.11.23.07.26.15s.23.3.12.49-.61.34-.38.68a1 1 0 010 .83.92.92 0 01-.68.57 1.47 1.47 0 01-.72 0 .49.49 0 00-.23-.08 18.05 18.05 0 00-1.92-.26 2.05 2.05 0 00-.53.15 3.07 3.07 0 00-.46.4l-.08.09v.06a4.15 4.15 0 00-.3.43v.06a3.38 3.38 0 00-.29.69 2.26 2.26 0 000 1.79c0 .05 1.24.42 2.08.79a7.21 7.21 0 01.89.45h20.99z" fill="#e1000f"/><path d="M36.63 7.3c.16 0 .38 0 .38.11-.07.31-.53.38-.75.68h-.12c-.11.08-.07.27-.19.27a.51.51 0 00-.34 0 .64.64 0 00.57.22s.11.08.11.15a.15.15 0 00.08 0h.08v.16c-.12.15-.31.07-.46.11a1.83 1.83 0 00.87 0c.23-.08 0-.46.15-.64-.07 0 0-.12-.07-.12s.15-.19.22-.22a.27.27 0 00.23-.12c0-.07-.15-.11-.11-.19.22-.15.41-.38.34-.6s-.34-.12-.53-.19a1.18 1.18 0 00-.64 0 3 3 0 00-.54.2 2.27 2.27 0 00-.72.38 4.21 4.21 0 01.83-.23 2.29 2.29 0 01.61.03z" fill="#9d9d9c"/></svg>