<svg id="Layer_1" enable-background="new 0 0 510 510" height="512" viewBox="0 0 510 510" width="512" xmlns="http://www.w3.org/2000/svg"><g><path d="m255 195c-33.084 0-60 26.916-60 60s26.916 60 60 60 60-26.916 60-60-26.916-60-60-60zm0 90c-16.542 0-30-13.458-30-30s13.458-30 30-30 30 13.458 30 30-13.458 30-30 30z"/><path d="m465 210c-19.555 0-36.228 12.541-42.42 30h-33.418c-2.888-26-13.185-49.793-28.733-69.216l23.655-23.655c5.983 2.863 12.579 4.379 19.409 4.379 24.87 0 45-20.127 45-45 0-12.021-4.682-23.321-13.18-31.819-17.587-17.587-46.051-17.591-63.641-.001-14.135 14.135-16.631 34.873-8.802 51.229l-23.655 23.655c-19.422-15.549-43.215-25.846-69.215-28.734v-33.418c17.459-6.192 30-22.865 30-42.42 0-24.813-20.186-45-45-45-24.813 0-45 20.187-45 45 0 19.555 12.541 36.228 30 42.42v33.418c-26 2.888-49.793 13.186-69.216 28.733l-23.655-23.655c7.825-16.346 5.344-37.085-8.801-51.228-17.587-17.588-46.051-17.59-63.639-.001-8.5 8.499-13.181 19.8-13.181 31.82 0 24.869 20.126 45 45 45 6.829 0 13.425-1.516 19.408-4.379l23.655 23.655c-15.547 19.424-25.846 43.217-28.733 69.217h-33.418c-6.192-17.459-22.865-30-42.42-30-24.813 0-45 20.186-45 45 0 24.813 20.187 45 45 45 19.555 0 36.228-12.541 42.42-30h33.418c2.887 26 13.186 49.793 28.733 69.216l-23.655 23.655c-16.39-7.844-37.115-5.312-51.227 8.802-8.5 8.499-13.18 19.8-13.18 31.819 0 24.869 20.125 45.001 45 45.001 12.02 0 23.32-4.682 31.819-13.181 14.12-14.119 16.643-34.849 8.802-51.228l23.655-23.655c19.422 15.548 43.215 25.845 69.215 28.733v33.418c-17.459 6.192-30 22.865-30 42.42 0 24.813 20.187 45 45 45 24.814 0 45-20.187 45-45 0-19.555-12.541-36.228-30-42.42v-33.418c26-2.888 49.793-13.186 69.216-28.733l23.655 23.655c-7.823 16.343-5.344 37.083 8.801 51.227 17.587 17.587 46.051 17.591 63.641.001 8.499-8.499 13.181-19.8 13.181-31.82 0-24.87-20.127-45-45-45-6.83 0-13.426 1.516-19.409 4.379l-23.655-23.655c15.547-19.423 25.844-43.216 28.732-69.216h33.418c6.192 17.459 22.865 30 42.42 30 24.813 0 45-20.187 45-45 0-24.814-20.187-45-45-45zm-61.507-118.493c4.006 0 7.772 1.561 10.606 4.396 5.862 5.86 5.862 15.35 0 21.212s-15.352 5.862-21.214 0c-2.833-2.833-4.393-6.601-4.393-10.606 0-8.289 6.709-15.002 15.001-15.002zm-148.493-61.507c8.271 0 15 6.729 15 15s-6.729 15-15 15-15-6.729-15-15 6.729-15 15-15zm-163.492 76.508c0-8.289 6.709-15.001 15-15.001 4.006 0 7.773 1.561 10.607 4.396 5.862 5.861 5.862 15.35 0 21.212-2.833 2.833-6.6 4.394-10.606 4.394-8.291-.001-15.001-6.71-15.001-15.001zm-46.508 163.492c-8.271 0-15-6.728-15-15 0-8.271 6.729-15 15-15s15 6.729 15 15c0 8.272-6.729 15-15 15zm61.508 148.493c-4.006 0-7.773-1.561-10.607-4.396-5.861-5.859-5.862-15.35.001-21.212 5.864-5.862 15.35-5.862 21.213 0 2.833 2.833 4.394 6.601 4.394 10.606-.001 8.288-6.71 15.002-15.001 15.002zm148.492 61.507c-8.271 0-15-6.728-15-15s6.729-15 15-15 15 6.728 15 15-6.729 15-15 15zm0-120c-57.897 0-105-47.103-105-105 0-57.898 47.103-105 105-105s105 47.102 105 105c0 57.897-47.103 105-105 105zm163.493 43.492c0 8.287-6.709 15.001-15 15.001-4.007 0-7.773-1.561-10.608-4.396-5.862-5.86-5.862-15.35 0-21.212 2.833-2.833 6.601-4.394 10.608-4.394 8.29.001 15 6.712 15 15.001zm46.507-133.492c-8.272 0-15-6.728-15-15 0-8.271 6.728-15 15-15 8.271 0 15 6.729 15 15 0 8.272-6.729 15-15 15z"/></g></svg>