<?xml version="1.0" encoding="UTF-8" standalone="no"?>
<!-- Created with Inkscape (http://www.inkscape.org/) -->

<svg
   xmlns:dc="http://purl.org/dc/elements/1.1/"
   xmlns:cc="http://creativecommons.org/ns#"
   xmlns:rdf="http://www.w3.org/1999/02/22-rdf-syntax-ns#"
   xmlns:svg="http://www.w3.org/2000/svg"
   xmlns="http://www.w3.org/2000/svg"
   xmlns:sodipodi="http://sodipodi.sourceforge.net/DTD/sodipodi-0.dtd"
   xmlns:inkscape="http://www.inkscape.org/namespaces/inkscape"
   version="1.1"
   id="svg2"
   xml:space="preserve"
   viewBox="0 0 188.976 188.976"
   sodipodi:docname="logo-fabriquenumerique.svg"
   inkscape:version="0.92.3 (2405546, 2018-03-11)"><metadata
     id="metadata8"><rdf:RDF><cc:Work
         rdf:about=""><dc:format>image/svg+xml</dc:format><dc:type
           rdf:resource="http://purl.org/dc/dcmitype/StillImage" /><dc:title></dc:title></cc:Work></rdf:RDF></metadata><defs
     id="defs6"><clipPath
       clipPathUnits="userSpaceOnUse"
       id="clipPath18"><path
         d="M 0,141.732 H 141.732 V 0 H 0 Z"
         id="path16"
         inkscape:connector-curvature="0" /></clipPath><clipPath
       clipPathUnits="userSpaceOnUse"
       id="clipPath34"><path
         d="M 20.0385,121.814 H 121.694 V 20.1586 H 20.0385 Z"
         id="path32"
         inkscape:connector-curvature="0" /></clipPath><clipPath
       clipPathUnits="userSpaceOnUse"
       id="clipPath38"><path
         d="M 20.039,20.159 H 121.695 V 121.814 H 20.039 Z"
         id="path36"
         inkscape:connector-curvature="0" /></clipPath><clipPath
       clipPathUnits="userSpaceOnUse"
       id="clipPath58"><path
         d="M 20.0385,112.51 H 71.0719 V 24.8286 H 20.0385 Z"
         id="path56"
         inkscape:connector-curvature="0" /></clipPath><clipPath
       clipPathUnits="userSpaceOnUse"
       id="clipPath62"><path
         d="M 20.039,24.829 H 71.073 V 112.51 H 20.039 Z"
         id="path60"
         inkscape:connector-curvature="0" /></clipPath><clipPath
       clipPathUnits="userSpaceOnUse"
       id="clipPath82"><path
         d="M 78.9458,113.378 H 121.694 V 30.6012 H 78.9458 Z"
         id="path80"
         inkscape:connector-curvature="0" /></clipPath><clipPath
       clipPathUnits="userSpaceOnUse"
       id="clipPath86"><path
         d="m 78.945,30.602 h 42.749 v 82.776 H 78.945 Z"
         id="path84"
         inkscape:connector-curvature="0" /></clipPath><clipPath
       clipPathUnits="userSpaceOnUse"
       id="clipPath106"><path
         d="M 26.6472,121.814 H 85.6783 V 93.8623 H 26.6472 Z"
         id="path104"
         inkscape:connector-curvature="0" /></clipPath><clipPath
       clipPathUnits="userSpaceOnUse"
       id="clipPath110"><path
         d="m 26.647,93.862 h 59.031 v 27.952 H 26.647 Z"
         id="path108"
         inkscape:connector-curvature="0" /></clipPath><clipPath
       clipPathUnits="userSpaceOnUse"
       id="clipPath130"><path
         d="M 29.5472,70.9883 H 117.059 V 20.1591 H 29.5472 Z"
         id="path128"
         inkscape:connector-curvature="0" /></clipPath><clipPath
       clipPathUnits="userSpaceOnUse"
       id="clipPath134"><path
         d="m 29.547,20.159 h 87.511 V 70.988 H 29.547 Z"
         id="path132"
         inkscape:connector-curvature="0" /></clipPath><clipPath
       clipPathUnits="userSpaceOnUse"
       id="clipPath154"><path
         d="M 64.8922,121.814 H 121.408 V 76.0462 H 64.8922 Z"
         id="path152"
         inkscape:connector-curvature="0" /></clipPath><clipPath
       clipPathUnits="userSpaceOnUse"
       id="clipPath158"><path
         d="m 64.892,76.046 h 56.516 v 45.768 H 64.892 Z"
         id="path156"
         inkscape:connector-curvature="0" /></clipPath><clipPath
       clipPathUnits="userSpaceOnUse"
       id="clipPath178"><path
         d="M 26.6465,121.814 H 109.08 V 78.7739 H 26.6465 Z"
         id="path176"
         inkscape:connector-curvature="0" /></clipPath><clipPath
       clipPathUnits="userSpaceOnUse"
       id="clipPath182"><path
         d="m 26.646,78.774 h 82.433 v 43.04 H 26.646 Z"
         id="path180"
         inkscape:connector-curvature="0" /></clipPath><clipPath
       clipPathUnits="userSpaceOnUse"
       id="clipPath202"><path
         d="M 20.0387,112.507 H 43.4316 V 57.2557 H 20.0387 Z"
         id="path200"
         inkscape:connector-curvature="0" /></clipPath><clipPath
       clipPathUnits="userSpaceOnUse"
       id="clipPath206"><path
         d="m 20.039,57.256 h 23.393 v 55.251 H 20.039 Z"
         id="path204"
         inkscape:connector-curvature="0" /></clipPath><clipPath
       clipPathUnits="userSpaceOnUse"
       id="clipPath226"><path
         d="M 69.1515,71.3409 H 121.69 v -51.18 H 69.1515 Z"
         id="path224"
         inkscape:connector-curvature="0" /></clipPath><clipPath
       clipPathUnits="userSpaceOnUse"
       id="clipPath230"><path
         d="m 69.152,20.161 h 52.539 V 71.34 H 69.152 Z"
         id="path228"
         inkscape:connector-curvature="0" /></clipPath><clipPath
       clipPathUnits="userSpaceOnUse"
       id="clipPath250"><path
         d="M 20.0478,71.0622 H 81.2892 V 20.1595 H 20.0478 Z"
         id="path248"
         inkscape:connector-curvature="0" /></clipPath><clipPath
       clipPathUnits="userSpaceOnUse"
       id="clipPath254"><path
         d="M 20.048,20.16 H 81.289 V 71.062 H 20.048 Z"
         id="path252"
         inkscape:connector-curvature="0" /></clipPath><clipPath
       clipPathUnits="userSpaceOnUse"
       id="clipPath274"><path
         d="M 50.6685,108.163 H 121.143 V 22.394 H 50.6685 Z"
         id="path272"
         inkscape:connector-curvature="0" /></clipPath><clipPath
       clipPathUnits="userSpaceOnUse"
       id="clipPath278"><path
         d="m 50.668,22.395 h 70.474 v 85.769 H 50.668 Z"
         id="path276"
         inkscape:connector-curvature="0" /></clipPath></defs><sodipodi:namedview
     pagecolor="#ffffff"
     bordercolor="#666666"
     borderopacity="1"
     objecttolerance="10"
     gridtolerance="10"
     guidetolerance="10"
     inkscape:pageopacity="0"
     inkscape:pageshadow="2"
     inkscape:window-width="2560"
     inkscape:window-height="1385"
     id="namedview4"
     showgrid="false"
     inkscape:zoom="7.0644823"
     inkscape:cx="122.12586"
     inkscape:cy="94.384295"
     inkscape:window-x="0"
     inkscape:window-y="27"
     inkscape:window-maximized="1"
     inkscape:current-layer="g10" /><g
     id="g10"
     inkscape:groupmode="layer"
     inkscape:label="logo-fabriquenumerique"
     transform="matrix(1.3333333,0,0,-1.3333333,0,188.976)"><g
       id="g12"><g
         id="g14"
         clip-path="url(#clipPath18)"><g
           id="g20"
           transform="translate(141.3818,70.8662)"><path
             d="m 0,0 c 0,-38.945 -31.57,-70.518 -70.516,-70.518 -38.944,0 -70.517,31.573 -70.517,70.518 0,38.945 31.573,70.517 70.517,70.517 C -31.57,70.517 0,38.945 0,0"
             style="fill:#ffffff;fill-opacity:1;fill-rule:nonzero;stroke:none"
             id="path22"
             inkscape:connector-curvature="0" /></g><g
           id="g24"
           transform="translate(70.8662,141.0327)"><path
             d="m 0,0 c -38.69,0 -70.167,-31.477 -70.167,-70.167 0,-38.689 31.477,-70.166 70.167,-70.166 38.69,0 70.167,31.477 70.167,70.166 C 70.167,-31.477 38.69,0 0,0 m 0,-141.033 c -39.076,0 -70.866,31.79 -70.866,70.866 0,39.077 31.79,70.867 70.866,70.867 39.076,0 70.866,-31.79 70.866,-70.867 0,-39.076 -31.79,-70.866 -70.866,-70.866"
             style="fill:#556f7b;fill-opacity:1;fill-rule:nonzero;stroke:none"
             id="path26"
             inkscape:connector-curvature="0" /></g><g
           id="g28"><g
             id="g30" /><g
             id="g50"><g
               clip-path="url(#clipPath34)"
               id="g48"
               style="opacity:0.55000299"><g
                 id="g46"><g
                   clip-path="url(#clipPath38)"
                   id="g44"><g
                     transform="translate(20.123,73.8892)"
                     id="g42"><path
                       d="M 0,0 C 1.604,28.025 25.621,49.443 53.646,47.841 81.67,46.237 103.089,22.22 101.486,-5.805 99.883,-33.831 75.865,-55.25 47.84,-53.646 19.815,-52.042 -1.603,-28.025 0,0"
                       style="fill:#159bd8;fill-opacity:1;fill-rule:evenodd;stroke:none"
                       id="path40"
                       inkscape:connector-curvature="0" /></g></g></g></g></g></g><g
           id="g52"><g
             id="g54" /><g
             id="g74"><g
               clip-path="url(#clipPath58)"
               id="g72"
               style="opacity:0.55000299"><g
                 id="g70"><g
                   clip-path="url(#clipPath62)"
                   id="g68"><g
                     transform="translate(41.5571,112.5098)"
                     id="g66"><path
                       d="M 0,0 C 18.392,-8.499 30.658,-27.605 29.43,-49.061 28.51,-65.146 20.204,-79.052 7.997,-87.682 -10.396,-79.183 -22.662,-60.075 -21.434,-38.621 -20.514,-22.535 -12.208,-8.628 0,0"
                       style="fill:#16428f;fill-opacity:1;fill-rule:evenodd;stroke:none"
                       id="path64"
                       inkscape:connector-curvature="0" /></g></g></g></g></g></g><g
           id="g76"><g
             id="g78" /><g
             id="g98"><g
               clip-path="url(#clipPath82)"
               id="g96"
               style="opacity:0.55000299"><g
                 id="g94"><g
                   clip-path="url(#clipPath86)"
                   id="g92"><g
                     transform="translate(79.0303,75.897)"
                     id="g90"><path
                       d="M 0,0 C 0.881,15.395 8.526,28.795 19.884,37.481 34.454,27.822 43.649,10.9 42.579,-7.813 41.698,-23.209 34.052,-36.608 22.693,-45.295 8.125,-35.635 -1.07,-18.711 0,0"
                       style="fill:#048d42;fill-opacity:1;fill-rule:evenodd;stroke:none"
                       id="path88"
                       inkscape:connector-curvature="0" /></g></g></g></g></g></g><g
           id="g100"><g
             id="g102" /><g
             id="g122"><g
               clip-path="url(#clipPath106)"
               id="g120"
               style="opacity:0.55000299"><g
                 id="g118"><g
                   clip-path="url(#clipPath110)"
                   id="g116"><g
                     transform="translate(85.6777,119.6147)"
                     id="g114"><path
                       d="m 0,0 c -9.245,-16.275 -27.167,-26.809 -47.121,-25.668 -4.13,0.236 -8.118,0.964 -11.91,2.116 9.247,16.276 27.167,26.809 47.123,25.667 C -7.776,1.879 -3.791,1.152 0,0"
                       style="fill:#83bc45;fill-opacity:1;fill-rule:evenodd;stroke:none"
                       id="path112"
                       inkscape:connector-curvature="0" /></g></g></g></g></g></g><g
           id="g124"><g
             id="g126" /><g
             id="g146"><g
               clip-path="url(#clipPath130)"
               id="g144"
               style="opacity:0.55000299"><g
                 id="g142"><g
                   clip-path="url(#clipPath134)"
                   id="g140"><g
                     transform="translate(29.5474,41.3916)"
                     id="g138"><path
                       d="M 0,0 C 8.48,18.437 27.609,30.741 49.095,29.512 65.055,28.6 78.869,20.416 87.512,8.362 79.032,-10.073 59.901,-22.377 38.416,-21.148 22.457,-20.235 8.642,-12.051 0,0"
                       style="fill:#0a67b1;fill-opacity:1;fill-rule:evenodd;stroke:none"
                       id="path136"
                       inkscape:connector-curvature="0" /></g></g></g></g></g></g><g
           id="g148"><g
             id="g150" /><g
             id="g170"><g
               clip-path="url(#clipPath154)"
               id="g168"
               style="opacity:0.55000299"><g
                 id="g166"><g
                   clip-path="url(#clipPath158)"
                   id="g164"><g
                     transform="translate(121.4082,76.3931)"
                     id="g162"><path
                       d="m 0,0 c -2.898,-0.339 -5.865,-0.435 -8.877,-0.263 -25.207,1.443 -45.067,21.021 -47.639,45.337 2.897,0.34 5.865,0.435 8.877,0.263 C -22.432,43.894 -2.572,24.316 0,0"
                       style="fill:#d5da2c;fill-opacity:1;fill-rule:evenodd;stroke:none"
                       id="path160"
                       inkscape:connector-curvature="0" /></g></g></g></g></g></g><g
           id="g172"><g
             id="g174" /><g
             id="g194"><g
               clip-path="url(#clipPath178)"
               id="g192"
               style="opacity:0.55000299"><g
                 id="g190"><g
                   clip-path="url(#clipPath182)"
                   id="g188"><g
                     transform="translate(109.0801,104.4927)"
                     id="g186"><path
                       d="m 0,0 c -8.692,-15.891 -26.777,-26.539 -47.124,-25.669 -14.175,0.606 -26.64,7.35 -35.31,17.237 9.246,16.278 27.166,26.811 47.122,25.669 C -21.146,16.427 -8.671,9.887 0,0"
                       style="fill:#03a14f;fill-opacity:1;fill-rule:evenodd;stroke:none"
                       id="path184"
                       inkscape:connector-curvature="0" /></g></g></g></g></g></g><g
           id="g196"><g
             id="g198" /><g
             id="g218"><g
               clip-path="url(#clipPath202)"
               id="g216"
               style="opacity:0.55000299"><g
                 id="g214"><g
                   clip-path="url(#clipPath206)"
                   id="g212"><g
                     transform="translate(41.5532,112.5068)"
                     id="g210"><path
                       d="m 0,0 c 1.478,-5.268 2.124,-10.866 1.794,-16.633 -0.92,-16.083 -9.225,-29.989 -21.43,-38.618 -1.478,5.269 -2.124,10.866 -1.794,16.633 C -20.51,-22.535 -12.205,-8.629 0,0"
                       style="fill:#3dac48;fill-opacity:1;fill-rule:evenodd;stroke:none"
                       id="path208"
                       inkscape:connector-curvature="0" /></g></g></g></g></g></g><g
           id="g220"><g
             id="g222" /><g
             id="g242"><g
               clip-path="url(#clipPath226)"
               id="g240"
               style="opacity:0.55000299"><g
                 id="g238"><g
                   clip-path="url(#clipPath230)"
                   id="g236"><g
                     transform="translate(69.2324,23.417)"
                     id="g234"><path
                       d="M 0,0 C 1.581,27.627 24.945,48.833 52.457,47.894 52.462,46.825 52.438,45.749 52.377,44.667 50.796,17.04 27.433,-4.165 -0.08,-3.227 -0.086,-2.157 -0.062,-1.082 0,0"
                       style="fill:#1173ba;fill-opacity:1;fill-rule:evenodd;stroke:none"
                       id="path232"
                       inkscape:connector-curvature="0" /></g></g></g></g></g></g><g
           id="g244"><g
             id="g246" /><g
             id="g266"><g
               clip-path="url(#clipPath250)"
               id="g264"
               style="opacity:0.55000299"><g
                 id="g262"><g
                   clip-path="url(#clipPath254)"
                   id="g260"><g
                     transform="translate(20.0479,69.9902)"
                     id="g258"><path
                       d="M 0,0 C 4.283,0.894 8.75,1.25 13.326,0.988 40.042,-0.54 60.753,-22.438 61.241,-48.759 56.959,-49.652 52.492,-50.008 47.916,-49.747 21.201,-48.219 0.488,-26.32 0,0"
                       style="fill:#088ccd;fill-opacity:1;fill-rule:evenodd;stroke:none"
                       id="path256"
                       inkscape:connector-curvature="0" /></g></g></g></g></g></g><g
           id="g268"><g
             id="g270" /><g
             id="g290"><g
               clip-path="url(#clipPath274)"
               id="g288"
               style="opacity:0.35000604"><g
                 id="g286"><g
                   clip-path="url(#clipPath278)"
                   id="g284"><g
                     transform="translate(121.1426,63.4951)"
                     id="g282"><path
                       d="m 0,0 c -2.884,-19.521 -16.865,-35.427 -35.329,-41.102 l -35.145,23.358 c 0,0 15.09,9.39 16.031,11.979 0.941,2.589 -11.124,39.422 -7.799,41.178 3.325,1.756 19.445,9.254 19.445,9.254 z"
                       style="fill:#121212;fill-opacity:1;fill-rule:evenodd;stroke:none"
                       id="path280"
                       inkscape:connector-curvature="0" /></g></g></g></g></g></g><g
           id="g292"
           transform="translate(70.832,19.918)"><path
             d="m 0,0 c 15.856,0 30.017,7.263 39.337,18.641 -0.848,1.076 -1.471,1.867 -1.471,1.867 0,0 3.341,0.506 -0.522,2.656 -3.865,2.149 -3.863,2.248 -4.729,2.857 -0.866,0.609 -3.109,0.958 -3.299,1.254 -0.188,0.3 1.99,1.226 -0.342,1.968 -2.332,0.741 -4.757,1.683 -4.757,1.683 0,0 1.221,1.928 -0.23,2.649 -1.451,0.721 -2.917,0.855 -3.215,0.666 -0.297,-0.188 -0.862,0.805 -1.338,1.306 -0.478,0.501 -1.746,0.726 -2.334,0.642 -0.535,-0.074 -4.114,0.084 -4.923,0.411 0.018,-0.182 0.029,-0.289 0.029,-0.289 l -0.185,0.396 c 0.017,-0.038 0.072,-0.073 0.156,-0.107 -0.114,1.129 -0.522,5.246 -0.5,6.088 0.023,0.978 0.423,1.262 0.423,1.262 0,0 5.567,-0.527 5.175,3.497 0,0 -0.55,1.482 -0.329,2.553 0,0 1.003,0.564 0.27,1.44 0,0 0.644,0.496 0.302,1.876 0,0 -0.182,0.592 0.028,1.174 0,0 2.142,0.183 1.41,1.631 -0.479,0.947 -0.57,0.699 -0.752,1.291 -0.181,0.591 -1.02,2.276 -1.197,3.064 -0.177,0.788 1.033,2.227 1.05,2.912 0.016,0.685 -0.827,2.272 -1.005,2.962 -0.179,0.69 -1.017,2.472 -1.184,3.651 -0.168,1.18 -0.702,3.347 -1.084,3.748 -0.382,0.4 -0.944,1.394 -1.124,2.084 -0.179,0.689 -1.223,1.988 -1.511,2.289 -0.286,0.3 -2.494,2.116 -4.729,2.758 -2.236,0.642 -2.816,0.95 -4.185,1.081 -1.368,0.132 -2.155,-0.044 -2.048,0.344 0.108,0.389 1.377,0.26 2.743,0.031 0.385,-0.065 1.724,-0.656 3.335,0.212 1.388,0.75 2.628,3.364 -1.303,6.788 -3.932,3.426 -8.884,1.099 -9.976,0.538 -1.09,-0.561 0.003,0.098 -2.673,-1.208 -2.674,-1.306 -6.582,-4.931 -7.454,-8.532 -0.871,-3.602 -0.088,-3.621 -0.013,-4.602 0.073,-0.981 -0.151,-2.151 -1.065,-3.499 -0.914,-1.348 -2.406,-2.291 -1.275,-4.081 1.132,-1.79 0.331,-2.456 -0.178,-3.325 -0.512,-0.869 -1.141,-2.616 0.105,-3.723 1.245,-1.108 1.04,-1.494 1.216,-2.282 0.178,-0.788 0.724,-2.465 1,-3.158 0.277,-0.692 0.075,-0.981 -0.052,-2.152 -0.126,-1.172 -0.913,-1.349 -1.034,-2.227 -0.12,-0.878 -0.014,-0.587 0.878,-0.12 0.893,0.468 -0.712,-1.157 -0.733,-1.941 -0.019,-0.782 0.781,-0.116 0.781,-0.116 0,0 0.062,-1.47 -0.531,-1.75 -0.596,-0.279 0.97,-0.316 1.109,1.344 0.139,1.662 1.037,-1.689 -1.058,-3.205 -2.092,-1.516 1.383,0.456 1.383,0.456 l -0.517,-1.065 c 0,0 1.871,0.346 0.375,-0.694 -1.494,-1.041 -2.074,-0.733 -2.074,-0.733 0,0 -2.107,-2.103 0.049,-2.057 2.154,0.045 0.965,-0.515 1.439,-1.21 0.472,-0.697 1.917,-1.712 2.691,-2.024 0.776,-0.313 5.019,-0.556 5.019,-0.556 l -0.416,-0.908 c 0,0 -6.302,0.036 -8.563,-0.399 -2.264,-0.433 -3.666,-1.671 -3.687,-2.552 -0.02,-0.881 0.065,-1.372 -0.82,-1.547 -0.887,-0.175 -4.014,0 -5.025,-1.248 -1.009,-1.248 -1.313,-1.633 -2.196,-1.709 -0.882,-0.076 -2.076,-0.83 -2.192,-1.613 -0.118,-0.779 -0.245,-1.951 -1.246,-2.906 -1.002,-0.954 -3.949,-1.273 -4.49,-3.415 -0.448,-1.77 -0.302,-3.825 -0.885,-6.017 C -26.933,5.777 -14.142,0 0,0"
             style="fill:#ffffff;fill-opacity:1;fill-rule:nonzero;stroke:none"
             id="path294"
             inkscape:connector-curvature="0" /></g><g
           id="g296"
           transform="translate(27.8003,33.415)"><path
             d="m 0,0 -1.437,-0.42 -0.098,0.116 0.646,1.356 -1.259,-1.066 -0.099,0.117 1.528,1.292 0.098,-0.117 -0.728,-1.528 1.617,0.478 0.098,-0.117 -1.528,-1.292 -0.097,0.117 z"
             style="fill:#556f7b;fill-opacity:1;fill-rule:nonzero;stroke:none"
             id="path298"
             inkscape:connector-curvature="0" /></g><g
           id="g300"
           transform="translate(28.9331,32.6836)"><path
             d="m 0,0 0.103,-0.111 -1.475,-1.353 -0.102,0.11 z"
             style="fill:#556f7b;fill-opacity:1;fill-rule:nonzero;stroke:none"
             id="path302"
             inkscape:connector-curvature="0" /></g><g
           id="g304"
           transform="translate(29.7378,31.4336)"><path
             d="M 0,0 -1.24,-1.216 -1.347,-1.108 0.08,0.291 0.187,0.184 -0.242,-1.854 0.995,-0.64 1.1,-0.748 l -1.426,-1.4 -0.107,0.108 z"
             style="fill:#556f7b;fill-opacity:1;fill-rule:nonzero;stroke:none"
             id="path306"
             inkscape:connector-curvature="0" /></g><g
           id="g308"
           transform="translate(31.666,29.8809)"><path
             d="m 0,0 0.11,-0.104 -1.38,-1.448 -0.109,0.105 z"
             style="fill:#556f7b;fill-opacity:1;fill-rule:nonzero;stroke:none"
             id="path310"
             inkscape:connector-curvature="0" /></g><g
           id="g312"
           transform="translate(31.6353,27.1592)"><path
             d="m 0,0 c -0.219,0.197 -0.305,0.384 -0.319,0.643 l 0.151,0.006 C -0.154,0.396 -0.081,0.255 0.096,0.095 0.332,-0.118 0.58,-0.137 0.755,0.058 0.836,0.146 0.875,0.241 0.861,0.34 0.845,0.435 0.826,0.484 0.718,0.613 L 0.569,0.796 C 0.471,0.914 0.416,1.027 0.401,1.144 0.383,1.277 0.426,1.405 0.531,1.521 0.756,1.772 1.073,1.771 1.359,1.514 1.543,1.349 1.615,1.192 1.643,0.968 L 1.504,0.96 C 1.491,1.123 1.442,1.266 1.267,1.424 1.049,1.619 0.817,1.617 0.646,1.427 0.568,1.342 0.535,1.254 0.548,1.163 0.561,1.072 0.616,0.962 0.687,0.872 L 0.825,0.702 C 0.948,0.558 0.988,0.472 1.001,0.365 1.023,0.225 0.979,0.079 0.872,-0.04 0.644,-0.293 0.311,-0.28 0,0"
             style="fill:#556f7b;fill-opacity:1;fill-rule:nonzero;stroke:none"
             id="path314"
             inkscape:connector-curvature="0" /></g><g
           id="g316"
           transform="translate(33.3716,25.6826)"><path
             d="M 0,0 -0.117,0.097 1.076,1.528 0.619,1.909 0.705,2.013 1.737,1.152 1.651,1.049 1.192,1.431 Z"
             style="fill:#556f7b;fill-opacity:1;fill-rule:nonzero;stroke:none"
             id="path318"
             inkscape:connector-curvature="0" /></g><g
           id="g320"
           transform="translate(36.3838,26.5986)"><path
             d="m 0,0 0.149,-0.115 -0.038,-0.493 -0.129,0.099 z m -0.563,-0.328 0.959,-0.743 -0.082,-0.107 -0.839,0.651 -0.484,-0.624 0.715,-0.554 -0.082,-0.107 -0.715,0.553 -0.494,-0.637 0.839,-0.65 -0.083,-0.106 -0.959,0.743 z"
             style="fill:#556f7b;fill-opacity:1;fill-rule:nonzero;stroke:none"
             id="path322"
             inkscape:connector-curvature="0" /></g><g
           id="g324"
           transform="translate(38.104,24.3994)"><path
             d="m 0,0 -0.48,0.341 -0.468,-0.658 0.48,-0.342 C -0.257,-0.81 -0.036,-0.812 0.125,-0.585 0.286,-0.358 0.21,-0.149 0,0 m -0.578,-0.746 -0.448,0.318 -0.534,-0.75 -0.123,0.088 1.158,1.629 0.619,-0.44 C 0.36,-0.091 0.452,-0.387 0.25,-0.67 0.076,-0.915 -0.18,-0.967 -0.437,-0.843 l -0.141,-1.032 -0.144,0.103 z"
             style="fill:#556f7b;fill-opacity:1;fill-rule:nonzero;stroke:none"
             id="path326"
             inkscape:connector-curvature="0" /></g><g
           id="g328"
           transform="translate(39.5303,23.585)"><path
             d="M 0,0 1.017,-0.661 0.943,-0.774 0.054,-0.195 -0.376,-0.856 0.381,-1.351 0.308,-1.463 -0.45,-0.97 -0.89,-1.646 0,-2.225 -0.074,-2.337 -1.09,-1.676 Z"
             style="fill:#556f7b;fill-opacity:1;fill-rule:nonzero;stroke:none"
             id="path330"
             inkscape:connector-curvature="0" /></g><g
           id="g332"
           transform="translate(43.2529,20.9863)"><path
             d="m 0,0 c -0.041,0.162 -0.159,0.268 -0.299,0.346 l -0.421,0.237 -0.85,-1.508 0.422,-0.237 c 0.139,-0.079 0.29,-0.125 0.45,-0.076 0.218,0.067 0.382,0.375 0.492,0.57 C -0.095,-0.472 0.056,-0.222 0,0 M -0.658,-1.384 C -0.822,-1.43 -1,-1.4 -1.183,-1.297 l -0.585,0.329 0.982,1.742 0.585,-0.329 c 0.184,-0.103 0.3,-0.24 0.347,-0.404 0.077,-0.275 -0.087,-0.548 -0.219,-0.783 -0.133,-0.237 -0.309,-0.565 -0.585,-0.642"
             style="fill:#556f7b;fill-opacity:1;fill-rule:nonzero;stroke:none"
             id="path334"
             inkscape:connector-curvature="0" /></g><g
           id="g336"
           transform="translate(44.5825,20.5977)"><path
             d="m 0,0 1.082,-0.551 -0.061,-0.121 -0.947,0.483 -0.359,-0.705 0.806,-0.41 -0.061,-0.12 -0.806,0.41 -0.366,-0.717 0.946,-0.483 -0.061,-0.121 -1.082,0.552 z"
             style="fill:#556f7b;fill-opacity:1;fill-rule:nonzero;stroke:none"
             id="path338"
             inkscape:connector-curvature="0" /></g><g
           id="g340"
           transform="translate(47.7026,19.0791)"><path
             d="M 0,0 0.139,-0.062 -0.608,-1.769 0.364,-2.193 0.31,-2.316 -0.801,-1.83 Z"
             style="fill:#556f7b;fill-opacity:1;fill-rule:nonzero;stroke:none"
             id="path342"
             inkscape:connector-curvature="0" /></g><g
           id="g344"
           transform="translate(49.2593,16.9248)"><path
             d="m 0,0 0.78,-0.308 0.042,1.251 z m 0.775,-0.45 -0.869,0.342 -0.341,-0.389 -0.151,0.06 1.419,1.593 0.125,-0.05 -0.047,-2.132 -0.152,0.059 z"
             style="fill:#556f7b;fill-opacity:1;fill-rule:nonzero;stroke:none"
             id="path346"
             inkscape:connector-curvature="0" /></g><g
           id="g348"
           transform="translate(52.791,14.9883)"><path
             d="M 0,0 -0.145,0.047 0.433,1.823 -0.134,2.008 -0.093,2.136 1.188,1.719 1.146,1.591 0.577,1.775 Z"
             style="fill:#556f7b;fill-opacity:1;fill-rule:nonzero;stroke:none"
             id="path350"
             inkscape:connector-curvature="0" /></g><g
           id="g352"
           transform="translate(55.5327,16.1094)"><path
             d="m 0,0 -0.567,0.16 -0.222,-0.778 0.568,-0.161 C 0.028,-0.851 0.238,-0.777 0.314,-0.51 0.39,-0.242 0.249,-0.071 0,0 m -0.295,-0.898 -0.53,0.15 -0.251,-0.887 -0.146,0.042 0.545,1.924 0.733,-0.207 c 0.313,-0.089 0.5,-0.337 0.405,-0.673 -0.082,-0.289 -0.307,-0.425 -0.59,-0.393 l 0.212,-1.021 -0.17,0.048 z"
             style="fill:#556f7b;fill-opacity:1;fill-rule:nonzero;stroke:none"
             id="path354"
             inkscape:connector-curvature="0" /></g><g
           id="g356"
           transform="translate(56.9443,14.4512)"><path
             d="M 0,0 0.814,-0.194 0.68,1.048 Z M 0.83,-0.337 -0.078,-0.12 -0.36,-0.552 -0.519,-0.515 0.662,1.26 0.793,1.229 1.044,-0.888 0.886,-0.851 Z"
             style="fill:#556f7b;fill-opacity:1;fill-rule:nonzero;stroke:none"
             id="path358"
             inkscape:connector-curvature="0" /></g><g
           id="g360"
           transform="translate(59.4072,15.043)"><path
             d="M 0,0 -0.333,-1.708 -0.482,-1.679 -0.099,0.286 0.05,0.257 0.852,-1.667 1.185,0.035 1.333,0.007 0.95,-1.959 0.801,-1.93 Z"
             style="fill:#556f7b;fill-opacity:1;fill-rule:nonzero;stroke:none"
             id="path362"
             inkscape:connector-curvature="0" /></g><g
           id="g364"
           transform="translate(62.0444,12.7959)"><path
             d="m 0,0 c -0.292,0.044 -0.466,0.152 -0.62,0.359 l 0.121,0.09 C -0.347,0.245 -0.208,0.168 0.028,0.132 0.342,0.085 0.559,0.206 0.598,0.465 0.616,0.584 0.596,0.684 0.531,0.759 0.464,0.828 0.421,0.86 0.261,0.907 L 0.036,0.978 c -0.147,0.043 -0.257,0.109 -0.332,0.197 -0.09,0.101 -0.124,0.231 -0.101,0.387 0.05,0.334 0.314,0.507 0.695,0.45 C 0.542,1.976 0.688,1.886 0.836,1.713 L 0.724,1.63 C 0.624,1.759 0.504,1.851 0.271,1.886 -0.018,1.929 -0.211,1.799 -0.249,1.546 -0.266,1.432 -0.246,1.341 -0.185,1.271 -0.124,1.203 -0.017,1.142 0.091,1.104 L 0.3,1.04 C 0.482,0.987 0.563,0.937 0.634,0.855 0.729,0.752 0.772,0.604 0.749,0.447 0.699,0.111 0.414,-0.062 0,0"
             style="fill:#556f7b;fill-opacity:1;fill-rule:nonzero;stroke:none"
             id="path366"
             inkscape:connector-curvature="0" /></g><g
           id="g368"
           transform="translate(64.0088,14.5625)"><path
             d="m 0,0 0.151,-0.019 -0.235,-1.984 -0.151,0.019 z"
             style="fill:#556f7b;fill-opacity:1;fill-rule:nonzero;stroke:none"
             id="path370"
             inkscape:connector-curvature="0" /></g><g
           id="g372"
           transform="translate(65.6563,12.3828)"><path
             d="M 0,0 -0.151,0.014 0.012,1.871 -0.582,1.923 -0.569,2.058 0.771,1.938 0.759,1.806 0.163,1.856 Z"
             style="fill:#556f7b;fill-opacity:1;fill-rule:nonzero;stroke:none"
             id="path374"
             inkscape:connector-curvature="0" /></g><g
           id="g376"
           transform="translate(67.3516,14.2627)"><path
             d="M 0,0 0.151,-0.01 0.03,-2.008 -0.122,-1.999 Z"
             style="fill:#556f7b;fill-opacity:1;fill-rule:nonzero;stroke:none"
             id="path378"
             inkscape:connector-curvature="0" /></g><g
           id="g380"
           transform="translate(69.6226,13.8936)"><path
             d="m 0,0 c -0.098,0.104 -0.232,0.16 -0.375,0.164 -0.143,0.004 -0.279,-0.046 -0.383,-0.143 -0.147,-0.14 -0.162,-0.297 -0.174,-0.724 -0.011,-0.427 -0.005,-0.584 0.135,-0.732 0.098,-0.103 0.232,-0.16 0.375,-0.165 0.143,-0.004 0.279,0.047 0.382,0.146 0.147,0.14 0.164,0.296 0.175,0.723 C 0.146,-0.305 0.139,-0.147 0,0 m 0.079,-1.542 c -0.135,-0.128 -0.314,-0.196 -0.505,-0.191 -0.191,0.004 -0.366,0.083 -0.494,0.217 -0.177,0.189 -0.176,0.369 -0.163,0.818 0.012,0.452 0.02,0.628 0.207,0.804 0.135,0.13 0.314,0.198 0.505,0.193 C -0.18,0.294 -0.005,0.216 0.124,0.081 0.301,-0.106 0.299,-0.283 0.287,-0.735 0.274,-1.186 0.267,-1.364 0.079,-1.542"
             style="fill:#556f7b;fill-opacity:1;fill-rule:nonzero;stroke:none"
             id="path382"
             inkscape:connector-curvature="0" /></g><g
           id="g384"
           transform="translate(71.1494,13.8887)"><path
             d="M 0,0 0.029,-1.737 -0.123,-1.74 -0.156,0.258 -0.005,0.261 1.178,-1.451 1.149,0.28 1.3,0.283 1.334,-1.716 1.183,-1.718 Z"
             style="fill:#556f7b;fill-opacity:1;fill-rule:nonzero;stroke:none"
             id="path386"
             inkscape:connector-curvature="0" /></g><g
           id="g388"
           transform="translate(75.2734,14.5107)"><path
             d="M 0,0 0.239,0.433 0.426,0.447 0.162,0.013 Z m -0.425,-0.226 1.209,0.096 0.01,-0.136 -1.057,-0.081 0.061,-0.786 0.901,0.07 0.01,-0.134 -0.901,-0.072 0.063,-0.801 1.057,0.082 0.01,-0.134 -1.209,-0.095 z"
             style="fill:#556f7b;fill-opacity:1;fill-rule:nonzero;stroke:none"
             id="path390"
             inkscape:connector-curvature="0" /></g><g
           id="g392"
           transform="translate(77.8721,12.5498)"><path
             d="m 0,0 c -0.189,-0.022 -0.374,0.029 -0.521,0.146 -0.204,0.159 -0.226,0.335 -0.28,0.783 -0.053,0.449 -0.071,0.625 0.088,0.828 0.115,0.146 0.283,0.239 0.473,0.263 0.356,0.042 0.635,-0.152 0.744,-0.5 L 0.351,1.501 C 0.259,1.77 0.044,1.917 -0.225,1.885 -0.366,1.868 -0.494,1.8 -0.582,1.687 -0.707,1.528 -0.7,1.37 -0.65,0.947 -0.601,0.521 -0.57,0.368 -0.411,0.243 -0.299,0.154 -0.158,0.117 -0.017,0.134 0.251,0.166 0.433,0.359 0.458,0.643 L 0.605,0.66 C 0.58,0.295 0.352,0.042 0,0"
             style="fill:#556f7b;fill-opacity:1;fill-rule:nonzero;stroke:none"
             id="path394"
             inkscape:connector-curvature="0" /></g><g
           id="g396"
           transform="translate(80.3594,14.6631)"><path
             d="m 0,0 c -0.115,0.084 -0.257,0.115 -0.398,0.093 -0.142,-0.024 -0.266,-0.097 -0.35,-0.212 -0.118,-0.164 -0.104,-0.321 -0.037,-0.742 0.068,-0.421 0.103,-0.576 0.267,-0.693 0.116,-0.085 0.257,-0.115 0.399,-0.092 0.141,0.022 0.265,0.096 0.349,0.21 0.119,0.165 0.105,0.323 0.038,0.744 C 0.2,-0.271 0.164,-0.118 0,0 m 0.362,-1.498 c -0.109,-0.151 -0.272,-0.251 -0.46,-0.281 -0.188,-0.032 -0.374,0.012 -0.526,0.123 -0.209,0.151 -0.24,0.328 -0.311,0.771 -0.071,0.446 -0.096,0.619 0.055,0.828 0.109,0.153 0.272,0.251 0.46,0.283 0.189,0.03 0.375,-0.014 0.526,-0.123 0.208,-0.152 0.24,-0.327 0.311,-0.771 0.071,-0.443 0.097,-0.621 -0.055,-0.83"
             style="fill:#556f7b;fill-opacity:1;fill-rule:nonzero;stroke:none"
             id="path398"
             inkscape:connector-curvature="0" /></g><g
           id="g400"
           transform="translate(81.6699,15.1777)"><path
             d="m 0,0 0.148,0.029 0.371,-1.826 1.04,0.211 0.026,-0.132 -1.189,-0.241 z"
             style="fill:#556f7b;fill-opacity:1;fill-rule:nonzero;stroke:none"
             id="path402"
             inkscape:connector-curvature="0" /></g><g
           id="g404"
           transform="translate(84.7061,15.5723)"><path
             d="m 0,0 c -0.122,0.075 -0.265,0.095 -0.405,0.062 -0.139,-0.036 -0.258,-0.119 -0.332,-0.241 -0.106,-0.174 -0.079,-0.328 0.021,-0.743 0.1,-0.415 0.148,-0.565 0.321,-0.671 0.124,-0.075 0.267,-0.094 0.405,-0.061 0.139,0.034 0.258,0.117 0.333,0.239 0.105,0.174 0.079,0.329 -0.021,0.744 C 0.221,-0.256 0.173,-0.105 0,0 M 0.48,-1.468 C 0.383,-1.628 0.229,-1.74 0.042,-1.785 c -0.185,-0.045 -0.375,-0.016 -0.534,0.082 -0.221,0.134 -0.266,0.307 -0.372,0.745 -0.106,0.439 -0.145,0.612 -0.011,0.833 0.098,0.159 0.253,0.271 0.438,0.316 0.186,0.046 0.375,0.017 0.535,-0.082 0.22,-0.132 0.264,-0.304 0.372,-0.744 0.106,-0.437 0.145,-0.612 0.01,-0.833"
             style="fill:#556f7b;fill-opacity:1;fill-rule:nonzero;stroke:none"
             id="path406"
             inkscape:connector-curvature="0" /></g><g
           id="g408"
           transform="translate(87.54,14.7754)"><path
             d="m 0,0 c -0.087,-0.177 -0.248,-0.312 -0.441,-0.367 -0.184,-0.053 -0.375,-0.031 -0.538,0.059 -0.227,0.125 -0.28,0.298 -0.404,0.731 -0.125,0.433 -0.171,0.605 -0.046,0.832 0.091,0.163 0.242,0.282 0.425,0.335 0.336,0.097 0.664,-0.052 0.818,-0.374 L -0.331,1.175 C -0.465,1.426 -0.707,1.534 -0.967,1.46 -1.104,1.421 -1.22,1.332 -1.288,1.207 -1.387,1.029 -1.354,0.875 -1.236,0.464 c 0.118,-0.41 0.172,-0.559 0.348,-0.657 0.125,-0.07 0.271,-0.083 0.409,-0.044 0.151,0.044 0.281,0.151 0.346,0.3 0.054,0.13 0.055,0.249 0.007,0.416 L -0.176,0.651 -0.691,0.504 -0.729,0.634 -0.066,0.823 0.022,0.51 C 0.082,0.307 0.082,0.154 0,0"
             style="fill:#556f7b;fill-opacity:1;fill-rule:nonzero;stroke:none"
             id="path410"
             inkscape:connector-curvature="0" /></g><g
           id="g412"
           transform="translate(88.2207,16.8584)"><path
             d="M 0,0 0.145,0.046 0.757,-1.858 0.612,-1.905 Z"
             style="fill:#556f7b;fill-opacity:1;fill-rule:nonzero;stroke:none"
             id="path414"
             inkscape:connector-curvature="0" /></g><g
           id="g416"
           transform="translate(90.4717,17.3408)"><path
             d="m 0,0 c -0.129,0.062 -0.274,0.065 -0.41,0.018 -0.134,-0.048 -0.243,-0.144 -0.304,-0.273 -0.088,-0.183 -0.045,-0.336 0.099,-0.737 0.143,-0.404 0.207,-0.547 0.39,-0.634 0.129,-0.061 0.274,-0.066 0.41,-0.02 0.118,0.043 0.213,0.121 0.279,0.227 l -0.358,0.171 0.061,0.129 0.355,-0.168 C 0.564,-1.138 0.511,-0.972 0.39,-0.634 0.247,-0.231 0.183,-0.087 0,0 M 0.594,-1.479 C 0.51,-1.614 0.38,-1.718 0.229,-1.771 c -0.18,-0.064 -0.371,-0.055 -0.54,0.025 -0.233,0.11 -0.296,0.279 -0.447,0.702 -0.153,0.427 -0.209,0.594 -0.098,0.827 0.079,0.169 0.221,0.298 0.401,0.362 0.18,0.064 0.372,0.055 0.54,-0.025 0.234,-0.11 0.296,-0.276 0.448,-0.703 0.138,-0.386 0.199,-0.566 0.122,-0.769 l 0.302,-0.141 -0.061,-0.13 z"
             style="fill:#556f7b;fill-opacity:1;fill-rule:nonzero;stroke:none"
             id="path418"
             inkscape:connector-curvature="0" /></g><g
           id="g420"
           transform="translate(93.0225,16.46)"><path
             d="m 0,0 c -0.371,-0.151 -0.737,-0.004 -0.886,0.356 l -0.508,1.251 0.14,0.058 0.502,-1.232 c 0.125,-0.307 0.402,-0.43 0.701,-0.308 0.299,0.121 0.411,0.403 0.286,0.71 l -0.501,1.231 0.14,0.059 0.51,-1.251 C 0.531,0.513 0.372,0.15 0,0"
             style="fill:#556f7b;fill-opacity:1;fill-rule:nonzero;stroke:none"
             id="path422"
             inkscape:connector-curvature="0" /></g><g
           id="g424"
           transform="translate(93.9141,19.0293)"><path
             d="M 0,0 1.102,0.507 1.158,0.384 0.193,-0.06 0.523,-0.776 1.345,-0.398 1.401,-0.521 0.58,-0.898 0.916,-1.631 1.88,-1.187 1.937,-1.312 0.834,-1.816 Z"
             style="fill:#556f7b;fill-opacity:1;fill-rule:nonzero;stroke:none"
             id="path426"
             inkscape:connector-curvature="0" /></g><g
           id="g428"
           transform="translate(97.0303,20.5332)"><path
             d="m 0,0 1.07,0.571 0.063,-0.118 -0.936,-0.501 0.372,-0.695 0.798,0.426 0.063,-0.12 -0.797,-0.425 0.379,-0.711 0.937,0.5 0.063,-0.118 -1.07,-0.573 z"
             style="fill:#556f7b;fill-opacity:1;fill-rule:nonzero;stroke:none"
             id="path430"
             inkscape:connector-curvature="0" /></g><g
           id="g432"
           transform="translate(100.4248,20.127)"><path
             d="M 0,0 -0.131,-0.077 -1.073,1.536 -1.588,1.234 -1.656,1.353 -0.493,2.031 -0.424,1.915 -0.942,1.612 Z"
             style="fill:#556f7b;fill-opacity:1;fill-rule:nonzero;stroke:none"
             id="path434"
             inkscape:connector-curvature="0" /></g><g
           id="g436"
           transform="translate(103.3232,21.9141)"><path
             d="m 0,0 c -0.245,-0.164 -0.447,-0.2 -0.701,-0.149 l 0.029,0.148 c 0.25,-0.051 0.405,-0.016 0.606,0.118 0.263,0.177 0.343,0.412 0.199,0.63 C 0.065,0.848 -0.016,0.909 -0.114,0.921 -0.211,0.928 -0.265,0.922 -0.416,0.849 L -0.631,0.75 C -0.77,0.685 -0.895,0.659 -1.009,0.674 c -0.136,0.014 -0.248,0.089 -0.336,0.22 -0.186,0.281 -0.106,0.586 0.214,0.801 0.206,0.138 0.375,0.169 0.602,0.14 L -0.558,1.698 c -0.16,0.029 -0.311,0.016 -0.507,-0.115 -0.245,-0.162 -0.3,-0.39 -0.159,-0.604 0.065,-0.094 0.141,-0.148 0.233,-0.159 0.092,-0.009 0.212,0.017 0.316,0.063 l 0.199,0.092 c 0.171,0.084 0.265,0.101 0.372,0.087 C 0.037,1.049 0.167,0.97 0.257,0.836 0.445,0.553 0.351,0.231 0,0"
             style="fill:#556f7b;fill-opacity:1;fill-rule:nonzero;stroke:none"
             id="path438"
             inkscape:connector-curvature="0" /></g><g
           id="g440"
           transform="translate(104.5459,24.8916)"><path
             d="m 0,0 c -0.142,0.021 -0.282,-0.013 -0.398,-0.097 -0.116,-0.084 -0.194,-0.206 -0.217,-0.347 -0.032,-0.202 0.051,-0.334 0.301,-0.681 0.25,-0.346 0.351,-0.467 0.551,-0.499 0.141,-0.023 0.281,0.013 0.397,0.097 0.116,0.084 0.195,0.206 0.218,0.346 C 0.884,-0.98 0.801,-0.846 0.551,-0.5 0.301,-0.153 0.2,-0.032 0,0 M 0.999,-1.178 C 0.97,-1.362 0.869,-1.525 0.714,-1.637 0.559,-1.749 0.373,-1.793 0.188,-1.764 c -0.255,0.041 -0.362,0.186 -0.625,0.55 -0.266,0.367 -0.366,0.512 -0.325,0.767 0.029,0.184 0.13,0.346 0.285,0.46 0.155,0.111 0.341,0.156 0.525,0.126 0.256,-0.041 0.361,-0.183 0.626,-0.55 0.263,-0.364 0.367,-0.512 0.325,-0.767"
             style="fill:#556f7b;fill-opacity:1;fill-rule:nonzero;stroke:none"
             id="path442"
             inkscape:connector-curvature="0" /></g><g
           id="g444"
           transform="translate(105.4697,25.9326)"><path
             d="M 0,0 0.12,0.094 1.274,-1.374 2.11,-0.717 2.194,-0.823 1.238,-1.574 Z"
             style="fill:#556f7b;fill-opacity:1;fill-rule:nonzero;stroke:none"
             id="path446"
             inkscape:connector-curvature="0" /></g><g
           id="g448"
           transform="translate(107.1396,27.2725)"><path
             d="M 0,0 0.116,0.098 1.401,-1.437 1.286,-1.534 Z"
             style="fill:#556f7b;fill-opacity:1;fill-rule:nonzero;stroke:none"
             id="path450"
             inkscape:connector-curvature="0" /></g><g
           id="g452"
           transform="translate(109.1182,28.6045)"><path
             d="m 0,0 c -0.167,0.013 -0.304,-0.064 -0.424,-0.171 l -0.361,-0.322 1.153,-1.292 0.361,0.321 c 0.12,0.107 0.212,0.235 0.218,0.402 0.007,0.229 -0.231,0.483 -0.381,0.651 C 0.416,-0.243 0.229,-0.021 0,0 M 1.098,-1.07 C 1.088,-1.241 1.003,-1.399 0.846,-1.54 l -0.501,-0.447 -1.333,1.494 0.502,0.447 C -0.329,0.094 -0.162,0.16 0.008,0.15 0.294,0.134 0.5,-0.108 0.679,-0.311 0.859,-0.512 1.114,-0.785 1.098,-1.07"
             style="fill:#556f7b;fill-opacity:1;fill-rule:nonzero;stroke:none"
             id="path454"
             inkscape:connector-curvature="0" /></g><g
           id="g456"
           transform="translate(110.9424,28.8125)"><path
             d="M 0,0 0.604,0.583 -0.518,1.139 Z M 0.731,0.519 0.06,-0.131 0.273,-0.603 0.156,-0.716 -0.708,1.237 -0.61,1.331 1.313,0.403 1.195,0.29 Z"
             style="fill:#556f7b;fill-opacity:1;fill-rule:nonzero;stroke:none"
             id="path458"
             inkscape:connector-curvature="0" /></g><g
           id="g460"
           transform="translate(111.4814,31.2842)"><path
             d="M 0,0 0.106,0.107 1.539,-1.284 1.435,-1.395 Z"
             style="fill:#556f7b;fill-opacity:1;fill-rule:nonzero;stroke:none"
             id="path462"
             inkscape:connector-curvature="0" /></g><g
           id="g464"
           transform="translate(112.9775,32.6826)"><path
             d="M 0,0 -0.396,-0.437 0.202,-0.98 0.6,-0.545 c 0.173,0.191 0.203,0.412 -0.002,0.6 C 0.392,0.241 0.175,0.19 0,0 m 0.674,-0.664 -0.371,-0.407 0.68,-0.62 -0.1,-0.113 -1.482,1.346 0.513,0.562 c 0.22,0.243 0.524,0.298 0.782,0.064 0.224,-0.202 0.243,-0.464 0.09,-0.703 L 1.796,-0.8 1.677,-0.931 Z"
             style="fill:#556f7b;fill-opacity:1;fill-rule:nonzero;stroke:none"
             id="path466"
             inkscape:connector-curvature="0" /></g><g
           id="g468"
           transform="translate(113.957,33.9922)"><path
             d="M 0,0 0.779,0.931 0.883,0.844 0.201,0.029 0.806,-0.479 1.387,0.216 1.491,0.13 0.91,-0.564 1.528,-1.082 2.21,-0.269 2.314,-0.354 1.534,-1.285 Z"
             style="fill:#556f7b;fill-opacity:1;fill-rule:nonzero;stroke:none"
             id="path470"
             inkscape:connector-curvature="0" /></g><g
           id="g472"
           transform="translate(9.9839,68.3496)"><path
             d="M 0,0 -1.386,0.564 -1.39,0.717 -0.042,1.376 -1.689,1.326 -1.694,1.478 0.305,1.538 0.309,1.386 -1.211,0.644 0.351,0.011 0.355,-0.141 -1.643,-0.201 -1.648,-0.05 Z"
             style="fill:#556f7b;fill-opacity:1;fill-rule:nonzero;stroke:none"
             id="path474"
             inkscape:connector-curvature="0" /></g><g
           id="g476"
           transform="translate(10.4072,67.0635)"><path
             d="m 0,0 0.01,-0.151 -1.999,-0.128 -0.01,0.151 z"
             style="fill:#556f7b;fill-opacity:1;fill-rule:nonzero;stroke:none"
             id="path478"
             inkscape:connector-curvature="0" /></g><g
           id="g480"
           transform="translate(10.2485,65.5898)"><path
             d="m 0,0 -1.732,-0.164 -0.014,0.151 1.992,0.189 0.014,-0.153 -1.617,-1.311 1.726,0.163 0.014,-0.151 -1.992,-0.189 -0.014,0.152 z"
             style="fill:#556f7b;fill-opacity:1;fill-rule:nonzero;stroke:none"
             id="path482"
             inkscape:connector-curvature="0" /></g><g
           id="g484"
           transform="translate(10.7715,63.1787)"><path
             d="m 0,0 0.02,-0.15 -1.986,-0.256 -0.019,0.15 z"
             style="fill:#556f7b;fill-opacity:1;fill-rule:nonzero;stroke:none"
             id="path486"
             inkscape:connector-curvature="0" /></g><g
           id="g488"
           transform="translate(9.0298,61.0811)"><path
             d="M 0,0 C -0.045,0.292 0.006,0.491 0.158,0.7 L 0.281,0.609 C 0.13,0.405 0.098,0.249 0.135,0.013 c 0.049,-0.314 0.229,-0.485 0.488,-0.446 0.119,0.02 0.209,0.069 0.261,0.154 0.047,0.084 0.064,0.133 0.061,0.301 V 0.259 C 0.943,0.413 0.972,0.537 1.034,0.635 1.104,0.751 1.218,0.823 1.374,0.848 1.707,0.898 1.952,0.698 2.011,0.317 2.05,0.073 2.007,-0.093 1.887,-0.285 L 1.774,-0.203 C 1.867,-0.069 1.919,0.073 1.882,0.307 1.837,0.596 1.655,0.74 1.402,0.701 1.288,0.683 1.207,0.637 1.16,0.558 1.112,0.479 1.085,0.357 1.083,0.244 L 1.084,0.023 C 1.088,-0.165 1.065,-0.257 1.008,-0.35 0.937,-0.471 0.811,-0.557 0.652,-0.581 0.315,-0.633 0.065,-0.414 0,0"
             style="fill:#556f7b;fill-opacity:1;fill-rule:nonzero;stroke:none"
             id="path490"
             inkscape:connector-curvature="0" /></g><g
           id="g492"
           transform="translate(9.438,58.8516)"><path
             d="M 0,0 -0.028,0.147 1.804,0.5 1.692,1.085 1.824,1.109 2.078,-0.212 1.945,-0.237 1.833,0.351 Z"
             style="fill:#556f7b;fill-opacity:1;fill-rule:nonzero;stroke:none"
             id="path494"
             inkscape:connector-curvature="0" /></g><g
           id="g496"
           transform="translate(12.3579,57.6357)"><path
             d="m 0,0 0.043,-0.186 -0.342,-0.357 -0.036,0.159 z m -0.644,0.102 0.273,-1.184 -0.131,-0.031 -0.239,1.037 -0.771,-0.179 0.204,-0.882 -0.131,-0.031 -0.205,0.883 -0.786,-0.182 0.24,-1.036 -0.132,-0.03 -0.274,1.182 z"
             style="fill:#556f7b;fill-opacity:1;fill-rule:nonzero;stroke:none"
             id="path498"
             inkscape:connector-curvature="0" /></g><g
           id="g500"
           transform="translate(12.2905,54.8447)"><path
             d="m 0,0 -0.155,0.57 -0.781,-0.213 0.155,-0.569 c 0.068,-0.249 0.238,-0.392 0.506,-0.319 C -0.006,-0.459 0.068,-0.249 0,0 m -0.922,-0.209 -0.144,0.531 -0.89,-0.241 -0.04,0.146 1.932,0.525 0.199,-0.735 c 0.086,-0.315 -0.031,-0.603 -0.367,-0.695 -0.29,-0.078 -0.522,0.045 -0.642,0.304 l -0.766,-0.709 -0.046,0.171 z"
             style="fill:#556f7b;fill-opacity:1;fill-rule:nonzero;stroke:none"
             id="path502"
             inkscape:connector-curvature="0" /></g><g
           id="g504"
           transform="translate(12.8682,53.3174)"><path
             d="m 0,0 0.363,-1.16 -0.129,-0.04 -0.317,1.013 -0.754,-0.235 0.271,-0.864 -0.129,-0.041 -0.271,0.865 -0.771,-0.242 0.318,-1.015 -0.129,-0.04 -0.363,1.159 z"
             style="fill:#556f7b;fill-opacity:1;fill-rule:nonzero;stroke:none"
             id="path506"
             inkscape:connector-curvature="0" /></g><g
           id="g508"
           transform="translate(14.0664,48.9316)"><path
             d="m 0,0 c 0.072,0.149 0.049,0.308 -0.007,0.457 l -0.171,0.452 -1.618,-0.611 0.171,-0.452 c 0.056,-0.151 0.142,-0.283 0.295,-0.348 0.211,-0.088 0.534,0.043 0.744,0.122 C -0.375,-0.301 -0.1,-0.205 0,0 m -1.392,-0.641 c -0.155,0.072 -0.273,0.207 -0.347,0.405 L -1.976,0.392 -0.105,1.099 0.132,0.471 C 0.206,0.272 0.208,0.094 0.138,-0.062 0.02,-0.322 -0.28,-0.427 -0.532,-0.521 c -0.253,-0.096 -0.599,-0.236 -0.86,-0.12"
             style="fill:#556f7b;fill-opacity:1;fill-rule:nonzero;stroke:none"
             id="path510"
             inkscape:connector-curvature="0" /></g><g
           id="g512"
           transform="translate(14.8423,47.7764)"><path
             d="M 0,0 0.474,-1.118 0.349,-1.171 -0.065,-0.192 -0.793,-0.5 -0.44,-1.334 -0.564,-1.387 -0.917,-0.553 -1.661,-0.867 -1.246,-1.847 -1.37,-1.899 -1.844,-0.78 Z"
             style="fill:#556f7b;fill-opacity:1;fill-rule:nonzero;stroke:none"
             id="path514"
             inkscape:connector-curvature="0" /></g><g
           id="g516"
           transform="translate(16.2549,44.6123)"><path
             d="m 0,0 0.067,-0.137 -1.676,-0.822 0.468,-0.953 -0.121,-0.06 -0.535,1.09 z"
             style="fill:#556f7b;fill-opacity:1;fill-rule:nonzero;stroke:none"
             id="path518"
             inkscape:connector-curvature="0" /></g><g
           id="g520"
           transform="translate(16.0552,41.9492)"><path
             d="M 0,0 0.397,-0.738 1.236,0.188 Z M 0.301,-0.844 -0.142,-0.021 -0.653,-0.1 -0.73,0.045 1.382,0.345 1.446,0.226 0.032,-1.372 -0.045,-1.229 Z"
             style="fill:#556f7b;fill-opacity:1;fill-rule:nonzero;stroke:none"
             id="path522"
             inkscape:connector-curvature="0" /></g><g
           id="g524"
           transform="translate(17.5244,38.0957)"><path
             d="M 0,0 C -0.101,0.163 -0.131,0.353 -0.088,0.534 -0.029,0.785 0.123,0.882 0.505,1.118 0.891,1.354 1.042,1.445 1.294,1.386 1.476,1.343 1.631,1.229 1.731,1.068 1.92,0.762 1.861,0.429 1.59,0.183 L 1.509,0.313 C 1.715,0.511 1.758,0.768 1.616,0.997 1.541,1.119 1.425,1.206 1.286,1.239 1.089,1.286 0.949,1.213 0.585,0.988 0.222,0.765 0.094,0.673 0.047,0.476 0.014,0.336 0.04,0.193 0.114,0.071 0.256,-0.158 0.508,-0.24 0.776,-0.146 L 0.854,-0.271 C 0.513,-0.402 0.186,-0.301 0,0"
             style="fill:#556f7b;fill-opacity:1;fill-rule:nonzero;stroke:none"
             id="path526"
             inkscape:connector-curvature="0" /></g><g
           id="g528"
           transform="translate(20.4819,36.7256)"><path
             d="M 0,0 C 0.028,0.141 -0.003,0.282 -0.082,0.4 -0.162,0.521 -0.281,0.603 -0.421,0.631 -0.62,0.67 -0.757,0.593 -1.111,0.354 -1.466,0.118 -1.591,0.021 -1.63,-0.177 c -0.028,-0.14 0.002,-0.282 0.082,-0.401 0.079,-0.119 0.198,-0.201 0.339,-0.231 0.198,-0.039 0.335,0.039 0.69,0.277 C -0.164,-0.295 -0.04,-0.198 0,0 m -1.212,-0.955 c -0.183,0.037 -0.342,0.143 -0.448,0.302 -0.106,0.159 -0.144,0.345 -0.108,0.529 0.051,0.254 0.199,0.354 0.572,0.604 0.376,0.251 0.525,0.348 0.778,0.296 C -0.235,0.741 -0.076,0.635 0.03,0.477 0.136,0.316 0.173,0.13 0.137,-0.053 0.087,-0.308 -0.059,-0.407 -0.435,-0.658 -0.808,-0.907 -0.959,-1.005 -1.212,-0.955"
             style="fill:#556f7b;fill-opacity:1;fill-rule:nonzero;stroke:none"
             id="path530"
             inkscape:connector-curvature="0" /></g><g
           id="g532"
           transform="translate(21.3389,34.1621)"><path
             d="M 0,0 -0.614,0.842 -1.374,0.288 -1.463,0.41 0.152,1.588 0.242,1.466 -0.505,0.921 0.109,0.08 0.855,0.624 0.944,0.501 -0.67,-0.677 -0.76,-0.554 Z"
             style="fill:#556f7b;fill-opacity:1;fill-rule:nonzero;stroke:none"
             id="path534"
             inkscape:connector-curvature="0" /></g><g
           id="g536"
           transform="translate(23.3975,33.5283)"><path
             d="M 0,0 0.493,0.042 0.609,-0.105 0.101,-0.127 Z m -0.423,0.228 0.752,-0.953 -0.106,-0.082 -0.658,0.831 -0.618,-0.488 0.559,-0.709 -0.105,-0.083 -0.56,0.709 -0.633,-0.499 0.658,-0.832 -0.106,-0.084 -0.751,0.951 z"
             style="fill:#556f7b;fill-opacity:1;fill-rule:nonzero;stroke:none"
             id="path538"
             inkscape:connector-curvature="0" /></g><g
           id="g540"
           transform="translate(23.144,30.3594)"><path
             d="m 0,0 c -0.192,0.225 -0.252,0.421 -0.231,0.678 l 0.15,-0.012 C -0.101,0.413 -0.047,0.263 0.108,0.081 0.314,-0.16 0.557,-0.211 0.756,-0.041 0.848,0.037 0.898,0.125 0.898,0.225 0.894,0.32 0.882,0.373 0.792,0.514 L 0.668,0.715 C 0.586,0.845 0.546,0.966 0.547,1.081 0.546,1.217 0.605,1.337 0.725,1.438 0.981,1.658 1.295,1.616 1.544,1.323 1.705,1.135 1.756,0.972 1.754,0.745 L 1.615,0.756 C 1.624,0.918 1.594,1.065 1.441,1.245 1.251,1.468 1.02,1.496 0.826,1.33 0.738,1.255 0.694,1.173 0.695,1.081 0.695,0.989 0.736,0.873 0.794,0.773 L 0.909,0.588 C 1.012,0.429 1.041,0.339 1.04,0.23 1.043,0.09 0.98,-0.049 0.858,-0.153 0.6,-0.374 0.271,-0.318 0,0"
             style="fill:#556f7b;fill-opacity:1;fill-rule:nonzero;stroke:none"
             id="path542"
             inkscape:connector-curvature="0" /></g><g
           id="g544"
           transform="translate(25.7915,30.3926)"><path
             d="m 0,0 0.102,-0.112 -1.488,-1.339 -0.101,0.112 z"
             style="fill:#556f7b;fill-opacity:1;fill-rule:nonzero;stroke:none"
             id="path546"
             inkscape:connector-curvature="0" /></g><g
           id="g548"
           transform="translate(27.1499,28.5303)"><path
             d="m 0,0 c 0.003,0.143 -0.051,0.276 -0.15,0.381 -0.099,0.102 -0.23,0.164 -0.373,0.168 -0.203,0.005 -0.324,-0.096 -0.633,-0.39 -0.309,-0.295 -0.415,-0.411 -0.42,-0.614 -0.003,-0.144 0.051,-0.277 0.15,-0.381 0.099,-0.103 0.23,-0.164 0.373,-0.168 0.202,-0.005 0.324,0.096 0.634,0.391 C -0.111,-0.318 -0.005,-0.202 0,0 m -1.03,-1.149 c -0.187,0.003 -0.362,0.082 -0.493,0.22 -0.132,0.138 -0.202,0.317 -0.197,0.503 0.006,0.258 0.134,0.385 0.459,0.695 C -0.934,0.58 -0.804,0.7 -0.545,0.693 -0.359,0.688 -0.184,0.612 -0.053,0.474 0.08,0.336 0.148,0.157 0.144,-0.029 0.138,-0.287 0.012,-0.411 -0.315,-0.725 -0.641,-1.033 -0.772,-1.155 -1.03,-1.149"
             style="fill:#556f7b;fill-opacity:1;fill-rule:nonzero;stroke:none"
             id="path550"
             inkscape:connector-curvature="0" /></g><g
           id="g552"
           transform="translate(28.2339,27.4561)"><path
             d="m 0,0 -1.205,-1.253 -0.109,0.106 1.386,1.44 0.109,-0.106 -0.37,-2.047 1.201,1.248 0.11,-0.106 -1.387,-1.44 -0.109,0.105 z"
             style="fill:#556f7b;fill-opacity:1;fill-rule:nonzero;stroke:none"
             id="path554"
             inkscape:connector-curvature="0" /></g><g
           id="g556"
           transform="translate(31.7607,24.2139)"><path
             d="m 0,0 c -0.009,0.167 -0.105,0.293 -0.227,0.396 l -0.367,0.315 -1.123,-1.316 0.367,-0.314 c 0.121,-0.103 0.261,-0.18 0.427,-0.161 0.227,0.022 0.447,0.294 0.593,0.465 C -0.184,-0.444 0.012,-0.229 0,0 m -0.911,-1.23 c -0.171,-0.014 -0.339,0.047 -0.499,0.185 l -0.51,0.436 1.298,1.521 0.511,-0.436 C 0.049,0.339 0.137,0.183 0.15,0.013 0.173,-0.273 -0.04,-0.509 -0.215,-0.714 -0.39,-0.919 -0.626,-1.208 -0.911,-1.23"
             style="fill:#556f7b;fill-opacity:1;fill-rule:nonzero;stroke:none"
             id="path558"
             inkscape:connector-curvature="0" /></g><g
           id="g560"
           transform="translate(32.9966,23.582)"><path
             d="m 0,0 0.955,-0.752 -0.083,-0.106 -0.836,0.657 -0.489,-0.621 0.712,-0.56 -0.083,-0.106 -0.712,0.56 -0.5,-0.634 0.836,-0.659 -0.083,-0.105 -0.955,0.751 z"
             style="fill:#556f7b;fill-opacity:1;fill-rule:nonzero;stroke:none"
             id="path562"
             inkscape:connector-curvature="0" /></g><g
           id="g564"
           transform="translate(33.9678,20.2969)"><path
             d="m 0,0 c -0.238,0.174 -0.342,0.351 -0.382,0.604 l 0.149,0.025 c 0.04,-0.251 0.127,-0.385 0.319,-0.525 0.257,-0.187 0.505,-0.18 0.659,0.031 0.071,0.096 0.1,0.194 0.076,0.291 -0.026,0.093 -0.05,0.139 -0.17,0.257 L 0.484,0.85 C 0.375,0.957 0.308,1.064 0.282,1.178 0.25,1.309 0.279,1.439 0.372,1.566 0.57,1.84 0.885,1.871 1.195,1.644 1.395,1.498 1.482,1.352 1.533,1.13 L 1.396,1.107 C 1.367,1.269 1.303,1.406 1.112,1.545 0.876,1.717 0.646,1.689 0.495,1.483 0.427,1.391 0.403,1.301 0.425,1.212 0.447,1.123 0.514,1.019 0.593,0.937 L 0.748,0.782 C 0.885,0.65 0.934,0.57 0.958,0.466 0.994,0.328 0.964,0.179 0.871,0.05 0.67,-0.226 0.338,-0.246 0,0"
             style="fill:#556f7b;fill-opacity:1;fill-rule:nonzero;stroke:none"
             id="path566"
             inkscape:connector-curvature="0" /></g><g
           id="g568"
           transform="translate(36.8999,18.2969)"><path
             d="M 0,0 -0.127,0.083 0.89,1.646 0.391,1.97 0.464,2.083 1.592,1.35 1.518,1.235 1.017,1.562 Z"
             style="fill:#556f7b;fill-opacity:1;fill-rule:nonzero;stroke:none"
             id="path570"
             inkscape:connector-curvature="0" /></g><g
           id="g572"
           transform="translate(39.2832,19.1592)"><path
             d="M 0,0 1.041,-0.625 0.972,-0.74 0.061,-0.193 -0.346,-0.871 0.43,-1.337 0.361,-1.452 -0.415,-0.986 -0.83,-1.679 0.081,-2.226 0.011,-2.341 -1.03,-1.716 Z"
             style="fill:#556f7b;fill-opacity:1;fill-rule:nonzero;stroke:none"
             id="path574"
             inkscape:connector-curvature="0" /></g><g
           id="g576"
           transform="translate(41.7642,17.5645)"><path
             d="m 0,0 -0.516,0.284 -0.389,-0.708 0.516,-0.284 c 0.226,-0.124 0.447,-0.103 0.58,0.142 C 0.325,-0.323 0.226,-0.124 0,0 m -0.488,-0.808 -0.482,0.266 -0.444,-0.807 -0.132,0.074 0.962,1.75 0.666,-0.368 C 0.367,-0.048 0.493,-0.332 0.325,-0.637 0.181,-0.899 -0.069,-0.98 -0.337,-0.887 l -0.022,-1.041 -0.155,0.085 z"
             style="fill:#556f7b;fill-opacity:1;fill-rule:nonzero;stroke:none"
             id="path578"
             inkscape:connector-curvature="0" /></g><g
           id="g580"
           transform="translate(43.876,16.4668)"><path
             d="M 0,0 -0.528,0.265 -0.89,-0.46 -0.362,-0.724 C -0.131,-0.84 0.089,-0.808 0.213,-0.56 0.338,-0.312 0.231,-0.115 0,0 m -0.458,-0.827 -0.493,0.247 -0.412,-0.825 -0.136,0.068 0.895,1.79 0.682,-0.341 C 0.37,-0.033 0.506,-0.312 0.351,-0.625 0.216,-0.895 -0.03,-0.984 -0.303,-0.901 l 0.018,-1.043 -0.158,0.079 z"
             style="fill:#556f7b;fill-opacity:1;fill-rule:nonzero;stroke:none"
             id="path582"
             inkscape:connector-curvature="0" /></g><g
           id="g584"
           transform="translate(45.4087,15.8809)"><path
             d="m 0,0 0.138,-0.063 -0.841,-1.818 -0.138,0.065 z"
             style="fill:#556f7b;fill-opacity:1;fill-rule:nonzero;stroke:none"
             id="path586"
             inkscape:connector-curvature="0" /></g><g
           id="g588"
           transform="translate(46.29,13.2969)"><path
             d="M 0,0 -0.139,0.06 0.595,1.772 0.048,2.008 0.101,2.132 1.337,1.602 1.284,1.479 0.734,1.714 Z"
             style="fill:#556f7b;fill-opacity:1;fill-rule:nonzero;stroke:none"
             id="path590"
             inkscape:connector-curvature="0" /></g><g
           id="g592"
           transform="translate(49.2505,13.9639)"><path
             d="M 0,0 C -0.058,0.131 -0.165,0.229 -0.298,0.28 -0.432,0.332 -0.576,0.331 -0.707,0.271 -0.892,0.19 -0.959,0.049 -1.113,-0.351 c -0.154,-0.397 -0.2,-0.547 -0.118,-0.732 0.058,-0.131 0.165,-0.229 0.298,-0.28 0.134,-0.052 0.278,-0.051 0.409,0.007 0.185,0.082 0.252,0.224 0.406,0.622 C 0.036,-0.336 0.082,-0.187 0,0 m -0.442,-1.479 c -0.17,-0.075 -0.362,-0.081 -0.539,-0.01 -0.179,0.068 -0.317,0.2 -0.393,0.371 -0.104,0.235 -0.042,0.404 0.12,0.823 0.163,0.422 0.229,0.585 0.465,0.69 0.17,0.076 0.361,0.08 0.539,0.011 0.179,-0.069 0.317,-0.201 0.393,-0.371 0.104,-0.236 0.043,-0.402 -0.12,-0.823 -0.162,-0.419 -0.229,-0.586 -0.465,-0.691"
             style="fill:#556f7b;fill-opacity:1;fill-rule:nonzero;stroke:none"
             id="path594"
             inkscape:connector-curvature="0" /></g><g
           id="g596"
           transform="translate(50.6421,13.7422)"><path
             d="m 0,0 0.143,-0.05 -0.666,-1.886 -0.143,0.052 z"
             style="fill:#556f7b;fill-opacity:1;fill-rule:nonzero;stroke:none"
             id="path598"
             inkscape:connector-curvature="0" /></g><g
           id="g600"
           transform="translate(52.5303,12.9687)"><path
             d="m 0,0 -0.562,0.179 -0.245,-0.771 0.562,-0.179 C 0.001,-0.85 0.213,-0.783 0.297,-0.52 0.381,-0.254 0.246,-0.078 0,0 M -0.323,-0.887 -0.848,-0.72 -1.127,-1.599 -1.271,-1.552 -0.666,0.353 0.06,0.122 C 0.37,0.022 0.548,-0.23 0.442,-0.562 0.352,-0.85 0.123,-0.977 -0.159,-0.937 l 0.18,-1.026 -0.169,0.054 z"
             style="fill:#556f7b;fill-opacity:1;fill-rule:nonzero;stroke:none"
             id="path602"
             inkscape:connector-curvature="0" /></g><g
           id="g604"
           transform="translate(54.126,12.624)"><path
             d="M 0,0 1.168,-0.323 1.132,-0.453 0.11,-0.17 -0.1,-0.93 0.771,-1.17 0.735,-1.3 -0.135,-1.061 -0.35,-1.836 0.672,-2.118 0.636,-2.247 -0.532,-1.925 Z"
             style="fill:#556f7b;fill-opacity:1;fill-rule:nonzero;stroke:none"
             id="path606"
             inkscape:connector-curvature="0" /></g><g
           id="g608"
           transform="translate(56.2896,9.9756)"><path
             d="M 0,0 C -0.287,0.067 -0.451,0.19 -0.586,0.411 L -0.458,0.49 C -0.325,0.273 -0.193,0.185 0.04,0.13 0.348,0.056 0.575,0.157 0.635,0.411 0.663,0.529 0.653,0.63 0.594,0.71 0.534,0.785 0.493,0.821 0.337,0.881 L 0.119,0.971 C -0.023,1.026 -0.127,1.102 -0.194,1.194 -0.274,1.305 -0.298,1.437 -0.261,1.59 -0.183,1.918 0.095,2.066 0.469,1.979 0.71,1.921 0.847,1.818 0.979,1.635 L 0.861,1.562 C 0.772,1.698 0.661,1.8 0.431,1.854 0.147,1.923 -0.056,1.81 -0.115,1.561 -0.142,1.449 -0.129,1.355 -0.075,1.282 -0.02,1.209 0.082,1.139 0.186,1.094 L 0.388,1.011 C 0.565,0.941 0.642,0.887 0.705,0.799 0.791,0.687 0.821,0.537 0.784,0.382 0.705,0.052 0.407,-0.098 0,0"
             style="fill:#556f7b;fill-opacity:1;fill-rule:nonzero;stroke:none"
             id="path610"
             inkscape:connector-curvature="0" /></g><g
           id="g612"
           transform="translate(59.6172,11.3291)"><path
             d="M 0,0 1.197,-0.212 1.173,-0.345 0.126,-0.159 -0.012,-0.937 0.88,-1.096 0.856,-1.229 -0.036,-1.07 -0.176,-1.865 0.871,-2.051 0.847,-2.185 -0.35,-1.972 Z"
             style="fill:#556f7b;fill-opacity:1;fill-rule:nonzero;stroke:none"
             id="path614"
             inkscape:connector-curvature="0" /></g><g
           id="g616"
           transform="translate(62.0176,8.9072)"><path
             d="M 0,0 -0.15,0.021 0.113,1.867 -0.476,1.951 -0.457,2.084 0.874,1.894 0.855,1.761 0.264,1.846 Z"
             style="fill:#556f7b;fill-opacity:1;fill-rule:nonzero;stroke:none"
             id="path618"
             inkscape:connector-curvature="0" /></g><g
           id="g620"
           transform="translate(66.0947,10.1787)"><path
             d="m 0,0 c -0.104,0.131 -0.256,0.177 -0.416,0.189 l -0.48,0.041 -0.146,-1.722 0.481,-0.041 c 0.159,-0.013 0.316,0.008 0.441,0.118 0.171,0.151 0.191,0.499 0.211,0.723 C 0.109,-0.468 0.142,-0.178 0,0 m -0.022,-1.53 c -0.131,-0.111 -0.304,-0.157 -0.514,-0.14 l -0.669,0.056 0.169,1.992 0.668,-0.057 C -0.158,0.304 0.005,0.229 0.115,0.098 0.299,-0.12 0.264,-0.437 0.241,-0.705 0.219,-0.974 0.196,-1.346 -0.022,-1.53"
             style="fill:#556f7b;fill-opacity:1;fill-rule:nonzero;stroke:none"
             id="path622"
             inkscape:connector-curvature="0" /></g><g
           id="g624"
           transform="translate(67.4854,10.3779)"><path
             d="M 0,0 1.213,-0.059 1.206,-0.192 0.145,-0.144 0.108,-0.931 1.012,-0.975 1.006,-1.108 0.102,-1.066 0.064,-1.871 1.125,-1.922 1.119,-2.058 -0.094,-1.999 Z"
             style="fill:#556f7b;fill-opacity:1;fill-rule:nonzero;stroke:none"
             id="path626"
             inkscape:connector-curvature="0" /></g><g
           id="g628"
           transform="translate(70.1611,8.2734)"><path
             d="M 0,0 C -0.294,0.005 -0.48,0.09 -0.661,0.274 L -0.552,0.38 C -0.375,0.197 -0.228,0.139 0.012,0.135 0.328,0.129 0.527,0.277 0.531,0.539 0.533,0.659 0.501,0.756 0.427,0.821 0.353,0.881 0.305,0.907 0.14,0.933 l -0.233,0.041 c -0.152,0.024 -0.267,0.074 -0.354,0.151 -0.102,0.089 -0.154,0.213 -0.152,0.37 0.008,0.337 0.245,0.544 0.63,0.537 C 0.278,2.028 0.435,1.958 0.604,1.807 L 0.504,1.71 C 0.388,1.824 0.257,1.898 0.021,1.903 -0.271,1.908 -0.444,1.754 -0.45,1.499 -0.452,1.384 -0.418,1.296 -0.35,1.234 -0.281,1.176 -0.167,1.129 -0.055,1.106 L 0.161,1.07 C 0.35,1.042 0.437,1.004 0.516,0.932 0.624,0.841 0.687,0.701 0.684,0.542 0.678,0.202 0.419,-0.007 0,0"
             style="fill:#556f7b;fill-opacity:1;fill-rule:nonzero;stroke:none"
             id="path630"
             inkscape:connector-curvature="0" /></g><g
           id="g632"
           transform="translate(73.876,10.2266)"><path
             d="m 0,0 -0.59,-0.027 0.038,-0.81 0.589,0.027 C 0.296,-0.796 0.473,-0.661 0.46,-0.384 0.446,-0.105 0.258,0.012 0,0 M 0.005,-0.945 -0.546,-0.971 -0.502,-1.893 -0.653,-1.899 -0.747,0.1 0.013,0.136 C 0.339,0.15 0.595,-0.025 0.611,-0.374 0.625,-0.674 0.454,-0.873 0.177,-0.936 L 0.702,-1.835 0.525,-1.844 Z"
             style="fill:#556f7b;fill-opacity:1;fill-rule:nonzero;stroke:none"
             id="path634"
             inkscape:connector-curvature="0" /></g><g
           id="g636"
           transform="translate(75.4912,10.457)"><path
             d="M 0,0 1.208,0.103 1.219,-0.032 0.162,-0.121 0.229,-0.907 1.129,-0.831 1.141,-0.966 0.24,-1.042 0.308,-1.845 1.365,-1.756 1.377,-1.89 0.168,-1.991 Z"
             style="fill:#556f7b;fill-opacity:1;fill-rule:nonzero;stroke:none"
             id="path638"
             inkscape:connector-curvature="0" /></g><g
           id="g640"
           transform="translate(77.6855,10.6641)"><path
             d="M 0,0 0.149,0.019 0.376,-1.833 1.43,-1.704 1.445,-1.838 0.241,-1.984 Z"
             style="fill:#556f7b;fill-opacity:1;fill-rule:nonzero;stroke:none"
             id="path642"
             inkscape:connector-curvature="0" /></g><g
           id="g644"
           transform="translate(80.1279,9.5947)"><path
             d="M 0,0 0.828,0.13 0.232,1.229 Z M 0.896,0.004 -0.025,-0.142 -0.123,-0.648 -0.283,-0.674 0.135,1.419 0.268,1.438 1.306,-0.425 1.145,-0.45 Z"
             style="fill:#556f7b;fill-opacity:1;fill-rule:nonzero;stroke:none"
             id="path646"
             inkscape:connector-curvature="0" /></g><g
           id="g648"
           transform="translate(82.7129,9.4072)"><path
             d="M 0,0 -0.149,-0.028 -0.5,1.804 -1.086,1.691 -1.11,1.824 0.211,2.078 0.236,1.945 -0.352,1.833 Z"
             style="fill:#556f7b;fill-opacity:1;fill-rule:nonzero;stroke:none"
             id="path650"
             inkscape:connector-curvature="0" /></g><g
           id="g652"
           transform="translate(83.8281,11.6758)"><path
             d="M 0,0 0.148,0.032 0.579,-1.919 0.432,-1.952 Z"
             style="fill:#556f7b;fill-opacity:1;fill-rule:nonzero;stroke:none"
             id="path654"
             inkscape:connector-curvature="0" /></g><g
           id="g656"
           transform="translate(86.1191,11.9424)"><path
             d="m 0,0 c -0.123,0.073 -0.268,0.092 -0.405,0.057 -0.14,-0.036 -0.257,-0.12 -0.33,-0.244 -0.104,-0.173 -0.077,-0.33 0.029,-0.744 0.104,-0.413 0.153,-0.562 0.328,-0.667 0.123,-0.072 0.267,-0.09 0.405,-0.055 0.14,0.035 0.256,0.12 0.329,0.243 0.105,0.174 0.077,0.329 -0.028,0.742 C 0.224,-0.254 0.174,-0.104 0,0 m 0.495,-1.462 c -0.096,-0.161 -0.25,-0.275 -0.434,-0.322 -0.185,-0.047 -0.374,-0.02 -0.536,0.076 -0.221,0.132 -0.268,0.306 -0.379,0.741 -0.111,0.439 -0.152,0.611 -0.019,0.832 0.096,0.159 0.249,0.275 0.435,0.322 0.184,0.045 0.374,0.02 0.534,-0.077 0.221,-0.131 0.267,-0.302 0.38,-0.74 0.109,-0.435 0.151,-0.61 0.019,-0.832"
             style="fill:#556f7b;fill-opacity:1;fill-rule:nonzero;stroke:none"
             id="path658"
             inkscape:connector-curvature="0" /></g><g
           id="g660"
           transform="translate(87.5996,12.3516)"><path
             d="M 0,0 0.491,-1.667 0.347,-1.71 -0.22,0.208 -0.073,0.251 1.523,-1.085 1.033,0.577 1.18,0.62 1.744,-1.298 1.6,-1.341 Z"
             style="fill:#556f7b;fill-opacity:1;fill-rule:nonzero;stroke:none"
             id="path662"
             inkscape:connector-curvature="0" /></g><g
           id="g664"
           transform="translate(90.9941,11.5781)"><path
             d="M 0,0 C -0.278,-0.096 -0.482,-0.079 -0.715,0.034 L -0.647,0.17 C -0.42,0.058 -0.262,0.053 -0.035,0.13 0.266,0.231 0.401,0.438 0.317,0.687 0.278,0.801 0.216,0.88 0.123,0.917 0.032,0.948 -0.021,0.956 -0.186,0.924 l -0.232,-0.04 c -0.149,-0.03 -0.276,-0.022 -0.384,0.022 -0.126,0.049 -0.217,0.149 -0.267,0.297 -0.11,0.318 0.047,0.595 0.41,0.719 0.233,0.08 0.403,0.066 0.614,-0.019 L -0.105,1.778 C -0.254,1.847 -0.402,1.873 -0.626,1.797 -0.901,1.702 -1.014,1.498 -0.931,1.257 -0.894,1.146 -0.833,1.076 -0.747,1.043 -0.662,1.011 -0.539,1.005 -0.427,1.021 l 0.216,0.04 C -0.024,1.098 0.069,1.092 0.17,1.051 0.302,1.002 0.407,0.893 0.458,0.741 0.568,0.42 0.396,0.135 0,0"
             style="fill:#556f7b;fill-opacity:1;fill-rule:nonzero;stroke:none"
             id="path666"
             inkscape:connector-curvature="0" /></g><g
           id="g668"
           transform="translate(93.7227,13.2607)"><path
             d="M 0,0 0.777,0.314 -0.055,1.25 Z m 0.873,0.208 -0.867,-0.353 0.022,-0.515 -0.151,-0.062 -0.07,2.135 0.125,0.051 1.437,-1.58 -0.152,-0.062 z"
             style="fill:#556f7b;fill-opacity:1;fill-rule:nonzero;stroke:none"
             id="path670"
             inkscape:connector-curvature="0" /></g><g
           id="g672"
           transform="translate(96.2148,13.6338)"><path
             d="M 0,0 -1.416,1.562 -1.27,1.628 -0.05,0.271 -0.241,2.085 -0.095,2.15 0.117,0.053 Z"
             style="fill:#556f7b;fill-opacity:1;fill-rule:nonzero;stroke:none"
             id="path674"
             inkscape:connector-curvature="0" /></g><g
           id="g676"
           transform="translate(96.9023,16.1465)"><path
             d="M 0,0 1.09,0.53 1.147,0.409 0.193,-0.056 0.539,-0.765 1.353,-0.368 1.411,-0.489 0.599,-0.886 0.951,-1.609 1.905,-1.146 1.964,-1.267 0.875,-1.797 Z"
             style="fill:#556f7b;fill-opacity:1;fill-rule:nonzero;stroke:none"
             id="path678"
             inkscape:connector-curvature="0" /></g><g
           id="g680"
           transform="translate(100.3594,15.6396)"><path
             d="m 0,0 c -0.169,-0.09 -0.359,-0.109 -0.538,-0.055 -0.247,0.075 -0.334,0.232 -0.545,0.628 -0.213,0.399 -0.294,0.556 -0.219,0.803 0.054,0.179 0.176,0.326 0.344,0.417 0.317,0.169 0.646,0.09 0.875,-0.195 L -0.22,1.523 C -0.403,1.742 -0.657,1.801 -0.895,1.674 -1.021,1.605 -1.115,1.495 -1.156,1.357 -1.215,1.165 -1.151,1.021 -0.95,0.645 -0.749,0.269 -0.665,0.135 -0.471,0.076 -0.334,0.034 -0.19,0.051 -0.062,0.118 0.174,0.245 0.271,0.492 0.192,0.765 l 0.132,0.07 C 0.434,0.486 0.312,0.166 0,0"
             style="fill:#556f7b;fill-opacity:1;fill-rule:nonzero;stroke:none"
             id="path682"
             inkscape:connector-curvature="0" /></g><g
           id="g684"
           transform="translate(102.0029,18.8906)"><path
             d="M 0,0 0.129,0.079 1.103,-1.515 2.01,-0.961 2.08,-1.076 1.043,-1.709 Z"
             style="fill:#556f7b;fill-opacity:1;fill-rule:nonzero;stroke:none"
             id="path686"
             inkscape:connector-curvature="0" /></g><g
           id="g688"
           transform="translate(103.8193,20.0234)"><path
             d="M 0,0 1.013,0.669 1.087,0.557 0.201,-0.029 0.636,-0.687 1.391,-0.188 1.466,-0.301 0.711,-0.8 1.156,-1.473 2.042,-0.887 2.116,-0.999 1.104,-1.669 Z"
             style="fill:#556f7b;fill-opacity:1;fill-rule:nonzero;stroke:none"
             id="path690"
             inkscape:connector-curvature="0" /></g><g
           id="g692"
           transform="translate(107.2236,19.9063)"><path
             d="m 0,0 c -0.239,-0.172 -0.44,-0.215 -0.694,-0.173 l 0.023,0.15 C -0.419,-0.065 -0.266,-0.024 -0.07,0.114 0.187,0.3 0.26,0.537 0.106,0.75 0.037,0.849 -0.046,0.906 -0.146,0.915 -0.241,0.919 -0.296,0.911 -0.443,0.833 L -0.654,0.728 c -0.137,-0.071 -0.26,-0.1 -0.375,-0.089 -0.137,0.009 -0.251,0.08 -0.343,0.208 -0.196,0.274 -0.128,0.584 0.186,0.807 0.202,0.144 0.37,0.181 0.595,0.158 L -0.613,1.676 C -0.774,1.699 -0.925,1.682 -1.117,1.544 -1.354,1.374 -1.402,1.146 -1.254,0.937 c 0.067,-0.092 0.146,-0.144 0.236,-0.151 0.091,-0.008 0.212,0.023 0.316,0.071 l 0.194,0.1 c 0.168,0.089 0.261,0.109 0.368,0.1 C 0.001,1.048 0.135,0.974 0.228,0.843 0.426,0.565 0.342,0.243 0,0"
             style="fill:#556f7b;fill-opacity:1;fill-rule:nonzero;stroke:none"
             id="path694"
             inkscape:connector-curvature="0" /></g><g
           id="g696"
           transform="translate(110.127,22.1123)"><path
             d="m 0,0 c -0.148,-0.12 -0.332,-0.175 -0.519,-0.155 -0.255,0.027 -0.372,0.165 -0.654,0.514 -0.284,0.352 -0.393,0.492 -0.366,0.746 0.018,0.188 0.11,0.356 0.26,0.476 C -1,1.807 -0.662,1.792 -0.384,1.555 L -0.505,1.457 c -0.221,0.179 -0.48,0.189 -0.689,0.02 -0.113,-0.091 -0.184,-0.217 -0.2,-0.36 -0.02,-0.201 0.071,-0.33 0.339,-0.662 0.269,-0.332 0.376,-0.447 0.577,-0.469 0.144,-0.014 0.282,0.029 0.394,0.118 0.209,0.169 0.258,0.431 0.129,0.684 L 0.16,0.882 C 0.334,0.561 0.274,0.223 0,0"
             style="fill:#556f7b;fill-opacity:1;fill-rule:nonzero;stroke:none"
             id="path698"
             inkscape:connector-curvature="0" /></g><g
           id="g700"
           transform="translate(111.1133,25.2207)"><path
             d="m 0,0 c -0.143,0.01 -0.28,-0.039 -0.387,-0.133 -0.109,-0.095 -0.175,-0.222 -0.185,-0.365 -0.013,-0.202 0.081,-0.328 0.361,-0.649 0.28,-0.323 0.392,-0.434 0.594,-0.448 0.142,-0.009 0.279,0.038 0.387,0.133 0.108,0.094 0.175,0.223 0.185,0.365 0.013,0.201 -0.081,0.326 -0.362,0.65 C 0.313,-0.126 0.202,-0.015 0,0 M 1.101,-1.081 C 1.088,-1.269 1.002,-1.438 0.858,-1.563 0.714,-1.689 0.533,-1.75 0.347,-1.737 c -0.258,0.017 -0.377,0.151 -0.673,0.49 -0.296,0.341 -0.41,0.476 -0.392,0.733 0.012,0.186 0.098,0.358 0.242,0.483 0.144,0.125 0.325,0.186 0.512,0.174 0.256,-0.019 0.375,-0.15 0.672,-0.491 0.295,-0.339 0.41,-0.476 0.393,-0.733"
             style="fill:#556f7b;fill-opacity:1;fill-rule:nonzero;stroke:none"
             id="path702"
             inkscape:connector-curvature="0" /></g><g
           id="g704"
           transform="translate(111.958,26.3506)"><path
             d="M 0,0 0.111,0.104 1.385,-1.259 2.16,-0.533 2.252,-0.632 1.366,-1.461 Z"
             style="fill:#556f7b;fill-opacity:1;fill-rule:nonzero;stroke:none"
             id="path706"
             inkscape:connector-curvature="0" /></g><g
           id="g708"
           transform="translate(113.4971,27.8213)"><path
             d="M 0,0 0.105,0.106 1.431,-1.204 2.178,-0.45 2.272,-0.545 1.419,-1.407 Z"
             style="fill:#556f7b;fill-opacity:1;fill-rule:nonzero;stroke:none"
             id="path710"
             inkscape:connector-curvature="0" /></g><g
           id="g712"
           transform="translate(114.9883,29.3516)"><path
             d="M 0,0 0.824,0.891 0.923,0.799 0.202,0.021 0.781,-0.518 1.396,0.146 1.495,0.056 0.88,-0.608 1.471,-1.156 2.193,-0.377 2.292,-0.469 1.467,-1.359 Z"
             style="fill:#556f7b;fill-opacity:1;fill-rule:nonzero;stroke:none"
             id="path714"
             inkscape:connector-curvature="0" /></g><g
           id="g716"
           transform="translate(118.3896,30.124)"><path
             d="m 0,0 c -0.125,-0.146 -0.296,-0.231 -0.482,-0.246 -0.259,-0.021 -0.397,0.096 -0.739,0.389 -0.343,0.294 -0.476,0.413 -0.496,0.67 -0.014,0.187 0.046,0.37 0.171,0.515 0.234,0.274 0.57,0.318 0.888,0.136 L -0.759,1.346 C -1.009,1.481 -1.268,1.445 -1.444,1.24 -1.537,1.131 -1.585,0.994 -1.574,0.851 c 0.015,-0.204 0.128,-0.314 0.452,-0.592 0.325,-0.28 0.452,-0.373 0.654,-0.359 0.144,0.012 0.272,0.079 0.364,0.189 0.178,0.205 0.18,0.47 0.006,0.696 l 0.097,0.112 C 0.229,0.613 0.23,0.27 0,0"
             style="fill:#556f7b;fill-opacity:1;fill-rule:nonzero;stroke:none"
             id="path718"
             inkscape:connector-curvature="0" /></g><g
           id="g720"
           transform="translate(119.8232,31.8828)"><path
             d="M 0,0 -0.095,-0.119 -1.551,1.049 -1.924,0.584 -2.028,0.668 -1.187,1.719 -1.081,1.634 -1.455,1.167 Z"
             style="fill:#556f7b;fill-opacity:1;fill-rule:nonzero;stroke:none"
             id="path722"
             inkscape:connector-curvature="0" /></g><g
           id="g724"
           transform="translate(119.2021,34.3418)"><path
             d="M 0,0 0.092,0.121 1.687,-1.084 1.596,-1.205 Z"
             style="fill:#556f7b;fill-opacity:1;fill-rule:nonzero;stroke:none"
             id="path726"
             inkscape:connector-curvature="0" /></g><g
           id="g728"
           transform="translate(121.8213,34.5293)"><path
             d="m 0,0 -2.012,0.629 0.094,0.13 1.738,-0.551 -1.085,1.466 0.094,0.131 1.246,-1.701 z"
             style="fill:#556f7b;fill-opacity:1;fill-rule:nonzero;stroke:none"
             id="path730"
             inkscape:connector-curvature="0" /></g><g
           id="g732"
           transform="translate(121.1387,37.0586)"><path
             d="M 0,0 0.084,0.125 1.746,-0.991 1.661,-1.118 Z"
             style="fill:#556f7b;fill-opacity:1;fill-rule:nonzero;stroke:none"
             id="path734"
             inkscape:connector-curvature="0" /></g><g
           id="g736"
           transform="translate(123.8281,37.5166)"><path
             d="m 0,0 -0.081,-0.129 -1.575,0.998 -0.319,-0.503 -0.114,0.071 0.72,1.138 0.114,-0.072 -0.32,-0.506 z"
             style="fill:#556f7b;fill-opacity:1;fill-rule:nonzero;stroke:none"
             id="path738"
             inkscape:connector-curvature="0" /></g><g
           id="g740"
           transform="translate(122.9316,39.8789)"><path
             d="M 0,0 0.611,1.05 0.729,0.98 0.192,0.062 0.875,-0.335 1.332,0.447 1.448,0.379 0.991,-0.403 1.688,-0.811 2.226,0.107 2.341,0.04 1.729,-1.009 Z m 0.058,0.479 -0.22,0.443 0.095,0.163 0.207,-0.466 z"
             style="fill:#556f7b;fill-opacity:1;fill-rule:nonzero;stroke:none"
             id="path742"
             inkscape:connector-curvature="0" /></g><g
           id="g744"
           transform="translate(126.0469,41.2861)"><path
             d="m 0,0 c -0.141,-0.26 -0.302,-0.388 -0.55,-0.462 l -0.043,0.145 c 0.243,0.073 0.364,0.177 0.478,0.388 0.15,0.281 0.109,0.526 -0.12,0.65 -0.107,0.056 -0.206,0.072 -0.3,0.036 C -0.623,0.718 -0.668,0.687 -0.767,0.553 L -0.909,0.364 C -1,0.241 -1.1,0.16 -1.207,0.119 -1.333,0.069 -1.468,0.08 -1.606,0.155 -1.903,0.314 -1.978,0.623 -1.795,0.962 -1.678,1.18 -1.544,1.287 -1.33,1.367 L -1.291,1.233 C -1.445,1.184 -1.572,1.102 -1.685,0.894 -1.823,0.636 -1.767,0.41 -1.54,0.289 c 0.102,-0.056 0.193,-0.066 0.278,-0.032 0.086,0.034 0.181,0.114 0.251,0.204 l 0.132,0.174 c 0.111,0.154 0.186,0.214 0.286,0.252 0.131,0.052 0.283,0.046 0.424,-0.032 C 0.132,0.695 0.197,0.368 0,0"
             style="fill:#556f7b;fill-opacity:1;fill-rule:nonzero;stroke:none"
             id="path746"
             inkscape:connector-curvature="0" /></g><g
           id="g748"
           transform="translate(127.627,44.4766)"><path
             d="M 0,0 -0.065,-0.137 -1.753,0.654 -2.006,0.115 -2.128,0.172 -1.558,1.39 -1.436,1.333 -1.688,0.791 Z"
             style="fill:#556f7b;fill-opacity:1;fill-rule:nonzero;stroke:none"
             id="path750"
             inkscape:connector-curvature="0" /></g><g
           id="g752"
           transform="translate(126.4385,46.7119)"><path
             d="M 0,0 0.474,1.119 0.598,1.065 0.184,0.087 0.912,-0.221 1.264,0.613 1.389,0.561 1.036,-0.273 1.779,-0.588 2.193,0.391 2.317,0.338 1.844,-0.78 Z"
             style="fill:#556f7b;fill-opacity:1;fill-rule:nonzero;stroke:none"
             id="path754"
             inkscape:connector-curvature="0" /></g><g
           id="g756"
           transform="translate(127.6729,49.3955)"><path
             d="m 0,0 -0.21,-0.552 0.756,-0.289 0.211,0.553 C 0.849,-0.047 0.796,0.169 0.536,0.269 0.276,0.367 0.093,0.242 0,0 M 0.869,-0.373 0.673,-0.889 1.535,-1.217 1.48,-1.358 l -1.871,0.712 0.272,0.711 c 0.116,0.306 0.38,0.47 0.706,0.346 0.282,-0.107 0.396,-0.345 0.34,-0.623 L 1.964,-0.09 1.901,-0.256 Z"
             style="fill:#556f7b;fill-opacity:1;fill-rule:nonzero;stroke:none"
             id="path758"
             inkscape:connector-curvature="0" /></g><g
           id="g760"
           transform="translate(128.4678,51.627)"><path
             d="m 0,0 -0.188,-0.561 0.766,-0.257 0.19,0.559 C 0.85,-0.013 0.788,0.2 0.524,0.289 0.261,0.378 0.083,0.245 0,0 M 0.883,-0.339 0.706,-0.861 1.58,-1.156 1.532,-1.3 -0.365,-0.66 -0.122,0.062 C -0.019,0.371 0.239,0.546 0.57,0.435 0.855,0.338 0.979,0.105 0.935,-0.175 L 1.966,-0.013 1.909,-0.18 Z"
             style="fill:#556f7b;fill-opacity:1;fill-rule:nonzero;stroke:none"
             id="path762"
             inkscape:connector-curvature="0" /></g><g
           id="g764"
           transform="translate(128.833,53.2236)"><path
             d="M 0,0 0.044,0.146 1.962,-0.434 1.918,-0.578 Z"
             style="fill:#556f7b;fill-opacity:1;fill-rule:nonzero;stroke:none"
             id="path766"
             inkscape:connector-curvature="0" /></g><g
           id="g768"
           transform="translate(131.2725,54.458)"><path
             d="m 0,0 -0.04,-0.146 -1.802,0.489 -0.155,-0.574 -0.131,0.035 0.353,1.299 0.13,-0.037 -0.157,-0.577 z"
             style="fill:#556f7b;fill-opacity:1;fill-rule:nonzero;stroke:none"
             id="path770"
             inkscape:connector-curvature="0" /></g><g
           id="g772"
           transform="translate(130.2031,57.2959)"><path
             d="m 0,0 c -0.122,-0.075 -0.205,-0.194 -0.237,-0.334 -0.034,-0.139 -0.012,-0.282 0.064,-0.403 0.106,-0.173 0.256,-0.22 0.672,-0.318 0.415,-0.097 0.57,-0.122 0.742,-0.015 0.122,0.075 0.205,0.194 0.238,0.333 0.032,0.139 0.011,0.283 -0.064,0.404 C 1.309,-0.161 1.158,-0.114 0.743,-0.018 0.327,0.081 0.172,0.105 0,0 M 1.524,-0.235 C 1.623,-0.395 1.653,-0.582 1.609,-0.77 1.565,-0.954 1.454,-1.109 1.296,-1.207 1.076,-1.343 0.901,-1.305 0.464,-1.202 c -0.44,0.103 -0.611,0.146 -0.747,0.366 -0.099,0.159 -0.129,0.348 -0.085,0.533 0.043,0.186 0.155,0.341 0.314,0.44 0.219,0.134 0.391,0.097 0.831,-0.006 0.438,-0.103 0.612,-0.147 0.747,-0.366"
             style="fill:#556f7b;fill-opacity:1;fill-rule:nonzero;stroke:none"
             id="path774"
             inkscape:connector-curvature="0" /></g><g
           id="g776"
           transform="translate(130.498,59.4023)"><path
             d="m 0,0 -0.111,-0.58 0.795,-0.152 0.111,0.58 C 0.843,0.102 0.754,0.305 0.479,0.355 0.207,0.409 0.049,0.254 0,0 M 0.92,-0.217 0.815,-0.758 1.721,-0.933 1.692,-1.08 -0.272,-0.703 -0.129,0.045 C -0.067,0.364 0.163,0.572 0.506,0.507 0.802,0.45 0.955,0.237 0.948,-0.048 l 1,0.301 -0.032,-0.174 z"
             style="fill:#556f7b;fill-opacity:1;fill-rule:nonzero;stroke:none"
             id="path778"
             inkscape:connector-curvature="0" /></g><g
           id="g780"
           transform="translate(130.6533,61.0332)"><path
             d="M 0,0 0.024,0.148 1.996,-0.167 1.973,-0.316 Z"
             style="fill:#556f7b;fill-opacity:1;fill-rule:nonzero;stroke:none"
             id="path782"
             inkscape:connector-curvature="0" /></g><g
           id="g784"
           transform="translate(132.2324,62.2578)"><path
             d="M 0,0 0.11,0.831 -1.113,0.57 Z M 0.25,0.861 0.128,-0.064 0.587,-0.302 0.566,-0.463 -1.323,0.529 -1.305,0.664 0.777,1.132 0.755,0.97 Z"
             style="fill:#556f7b;fill-opacity:1;fill-rule:nonzero;stroke:none"
             id="path786"
             inkscape:connector-curvature="0" /></g><g
           id="g788"
           transform="translate(131.1182,64.5234)"><path
             d="M 0,0 0.015,0.149 1.871,-0.025 1.972,1.032 2.105,1.02 1.991,-0.189 Z"
             style="fill:#556f7b;fill-opacity:1;fill-rule:nonzero;stroke:none"
             id="path790"
             inkscape:connector-curvature="0" /></g><g
           id="g792"
           transform="translate(131.3018,66.6514)"><path
             d="M 0,0 0.073,1.213 0.208,1.204 0.144,0.144 0.933,0.096 0.987,0.999 1.122,0.991 1.067,0.087 1.873,0.038 1.937,1.1 2.072,1.091 1.999,-0.121 Z"
             style="fill:#556f7b;fill-opacity:1;fill-rule:nonzero;stroke:none"
             id="path794"
             inkscape:connector-curvature="0" /></g><g
           id="g796"
           transform="translate(133.4424,69.3105)"><path
             d="m 0,0 c -0.007,-0.295 -0.092,-0.481 -0.279,-0.659 l -0.104,0.109 c 0.183,0.175 0.243,0.322 0.249,0.561 0.007,0.317 -0.14,0.517 -0.401,0.524 C -0.656,0.538 -0.752,0.506 -0.818,0.432 -0.879,0.357 -0.905,0.311 -0.932,0.146 L -0.974,-0.087 C -1,-0.238 -1.05,-0.354 -1.128,-0.44 -1.218,-0.542 -1.342,-0.592 -1.5,-0.589 c -0.336,0.008 -0.542,0.249 -0.532,0.634 0.006,0.247 0.077,0.402 0.229,0.57 l 0.096,-0.101 c -0.114,-0.115 -0.19,-0.245 -0.196,-0.481 -0.007,-0.292 0.146,-0.468 0.402,-0.472 0.115,-0.003 0.202,0.028 0.263,0.097 0.06,0.069 0.108,0.183 0.131,0.295 l 0.038,0.215 c 0.03,0.187 0.069,0.273 0.14,0.353 0.093,0.108 0.232,0.169 0.392,0.165 C -0.197,0.678 0.01,0.418 0,0"
             style="fill:#556f7b;fill-opacity:1;fill-rule:nonzero;stroke:none"
             id="path798"
             inkscape:connector-curvature="0" /></g><g
           id="g800"
           transform="translate(8.9956,80.6426)"><path
             d="M 0,0 1.546,-0.259 2.093,3.007 4.023,2.685 3.477,-0.582 6.879,-1.151 6.517,-3.316 -2.292,-1.842 -1.291,4.146 0.64,3.823 Z"
             style="fill:#556f7b;fill-opacity:1;fill-rule:nonzero;stroke:none"
             id="path802"
             inkscape:connector-curvature="0" /></g><g
           id="g804"
           transform="translate(12.9028,90.5444)"><path
             d="M 0,0 2,-1.523 2.498,-0.05 Z M 5.81,-0.124 4.417,-0.09 3.538,-2.692 4.657,-3.534 3.921,-5.708 l -7.418,5.937 0.542,1.604 9.5,0.217 z"
             style="fill:#556f7b;fill-opacity:1;fill-rule:nonzero;stroke:none"
             id="path806"
             inkscape:connector-curvature="0" /></g><g
           id="g808"
           transform="translate(19.2686,99.8916)"><path
             d="m 0,0 -0.716,-1.295 1.372,-0.758 0.716,1.294 C 1.663,-0.232 1.398,0.144 1.069,0.326 0.739,0.508 0.291,0.527 0,0 m -3.05,1.558 -0.662,-1.196 1.273,-0.704 0.662,1.196 c 0.291,0.526 0.053,0.873 -0.255,1.043 -0.306,0.17 -0.727,0.187 -1.018,-0.339 m 6.248,-3.083 -1.882,-3.401 -7.813,4.32 1.791,3.237 c 0.898,1.624 2.288,1.987 3.638,1.241 C -0.179,3.381 -0.025,2.493 0.006,2.161 0.379,2.37 1.143,2.792 2.24,2.186 3.733,1.36 3.968,-0.131 3.198,-1.525"
             style="fill:#556f7b;fill-opacity:1;fill-rule:nonzero;stroke:none"
             id="path810"
             inkscape:connector-curvature="0" /></g><g
           id="g812"
           transform="translate(22.4229,110.5439)"><path
             d="m 0,0 -0.783,-0.964 1.402,-1.139 0.783,0.963 c 0.38,0.468 0.261,1.017 -0.1,1.31 C 0.942,0.462 0.38,0.467 0,0 M 6.083,-3.554 2.507,-2.684 2.04,-3.258 4.62,-5.355 3.235,-7.058 -3.696,-1.426 -1.465,1.32 C -0.215,2.858 1.548,2.799 2.687,1.874 3.631,1.106 3.75,0.04 3.58,-0.727 l 4.109,-0.851 z"
             style="fill:#556f7b;fill-opacity:1;fill-rule:nonzero;stroke:none"
             id="path814"
             inkscape:connector-curvature="0" /></g><g
           id="g816"
           transform="translate(32.311,111.0137)"><path
             d="M 0,0 -6.057,6.561 -4.444,8.05 1.613,1.488 Z"
             style="fill:#556f7b;fill-opacity:1;fill-rule:nonzero;stroke:none"
             id="path818"
             inkscape:connector-curvature="0" /></g><g
           id="g820"
           transform="translate(36.2085,122.6636)"><path
             d="M 0,0 C -0.255,0.083 -0.613,0.049 -0.943,-0.179 -1.274,-0.407 -1.432,-0.73 -1.445,-0.998 -1.46,-1.329 -1.393,-1.647 -0.466,-2.989 0.46,-4.331 0.728,-4.497 1.042,-4.6 c 0.255,-0.083 0.621,-0.059 0.951,0.169 0.051,0.035 0.092,0.064 0.137,0.11 l -0.785,0.144 0.284,1.552 0.593,-0.108 C 2.072,-2.471 1.857,-2.117 1.516,-1.621 0.589,-0.279 0.315,-0.103 0,0 m 5.253,-4.893 -0.96,0.176 C 4.058,-5.215 3.672,-5.649 3.104,-6.042 2.207,-6.662 1.388,-6.8 0.48,-6.634 c -1.308,0.239 -1.99,1.293 -2.752,2.398 -0.763,1.104 -1.507,2.114 -1.267,3.424 0.166,0.907 0.586,1.623 1.484,2.243 0.898,0.62 1.717,0.759 2.624,0.592 1.308,-0.239 1.99,-1.293 2.753,-2.397 0.634,-0.918 1.261,-1.782 1.308,-2.8 L 5.538,-3.34 Z"
             style="fill:#556f7b;fill-opacity:1;fill-rule:nonzero;stroke:none"
             id="path822"
             inkscape:connector-curvature="0" /></g><g
           id="g824"
           transform="translate(47.8691,121.4795)"><path
             d="m 0,0 c -1.689,-0.77 -3.591,-0.256 -4.402,1.524 l -2.401,5.275 1.998,0.91 2.381,-5.229 c 0.342,-0.753 0.951,-1.001 1.613,-0.699 0.663,0.302 0.898,0.933 0.556,1.687 l -2.381,5.229 1.998,0.91 2.402,-5.275 C 2.574,2.55 1.69,0.77 0,0"
             style="fill:#556f7b;fill-opacity:1;fill-rule:nonzero;stroke:none"
             id="path826"
             inkscape:connector-curvature="0" /></g><g
           id="g828"
           transform="translate(54.1362,124.041)"><path
             d="M 0,0 -2.228,8.647 3.651,10.162 4.139,8.267 0.386,7.3 0.758,5.855 3.965,6.681 4.453,4.787 1.246,3.96 1.637,2.442 5.39,3.409 5.878,1.514 Z"
             style="fill:#556f7b;fill-opacity:1;fill-rule:nonzero;stroke:none"
             id="path830"
             inkscape:connector-curvature="0" /></g><g
           id="g832"
           transform="translate(69.4126,134.3184)"><path
             d="m 0,0 -0.135,-7.764 -0.677,0.012 0.155,8.93 L 0.02,1.167 5.041,-6.662 5.175,1.077 5.853,1.065 5.698,-7.865 5.02,-7.853 Z"
             style="fill:#556f7b;fill-opacity:1;fill-rule:nonzero;stroke:none"
             id="path834"
             inkscape:connector-curvature="0" /></g><g
           id="g836"
           transform="translate(82.3691,125.252)"><path
             d="m 0,0 c -1.756,0.369 -2.742,1.833 -2.385,3.539 l 1.241,5.906 0.665,-0.139 -1.224,-5.82 C -2.008,2.037 -1.288,0.886 0.124,0.589 1.535,0.292 2.657,1.057 2.963,2.505 L 4.186,8.325 4.849,8.186 3.607,2.28 C 3.248,0.573 1.756,-0.369 0,0"
             style="fill:#556f7b;fill-opacity:1;fill-rule:nonzero;stroke:none"
             id="path838"
             inkscape:connector-curvature="0" /></g><g
           id="g840"
           transform="translate(98.6533,127.521)"><path
             d="m 0,0 -4.907,-4.533 -0.622,0.269 -0.112,6.7 -2.918,-6.758 -0.622,0.269 3.54,8.196 0.62,-0.268 0.127,-7.553 5.516,5.116 0.621,-0.268 -3.54,-8.196 -0.621,0.268 z"
             style="fill:#556f7b;fill-opacity:1;fill-rule:nonzero;stroke:none"
             id="path842"
             inkscape:connector-curvature="0" /></g><g
           id="g844"
           transform="translate(107.3096,125.2227)"><path
             d="M 0,0 2.043,0.839 2.737,0.367 0.601,-0.409 Z m -2.108,0.403 4.478,-3.049 -0.339,-0.499 -3.919,2.669 -1.984,-2.913 3.34,-2.273 -0.34,-0.498 -3.339,2.273 -2.026,-2.975 3.92,-2.669 -0.339,-0.498 -4.481,3.05 z"
             style="fill:#556f7b;fill-opacity:1;fill-rule:nonzero;stroke:none"
             id="path846"
             inkscape:connector-curvature="0" /></g><g
           id="g848"
           transform="translate(115.7793,116.4321)"><path
             d="m 0,0 -1.892,1.832 -2.512,-2.594 1.892,-1.832 c 0.828,-0.802 1.807,-0.964 2.67,-0.073 C 1.022,-1.775 0.829,-0.802 0,0 m -3.057,-2.904 -1.766,1.71 -2.861,-2.954 -0.486,0.47 6.211,6.413 2.441,-2.363 C 1.527,-0.641 1.735,-2.012 0.653,-3.129 -0.28,-4.092 -1.45,-4.146 -2.499,-3.427 l -1.321,-4.464 -0.567,0.549 z"
             style="fill:#556f7b;fill-opacity:1;fill-rule:nonzero;stroke:none"
             id="path850"
             inkscape:connector-curvature="0" /></g><g
           id="g852"
           transform="translate(121.5703,110.8721)"><path
             d="m 0,0 0.418,-0.534 -7.039,-5.498 -0.418,0.533 z"
             style="fill:#556f7b;fill-opacity:1;fill-rule:nonzero;stroke:none"
             id="path854"
             inkscape:connector-curvature="0" /></g><g
           id="g856"
           transform="translate(126.5752,101.1377)"><path
             d="M 0,0 C 0.164,0.618 0.067,1.258 -0.253,1.811 -0.574,2.365 -1.083,2.766 -1.7,2.93 -2.574,3.162 -3.208,2.853 -4.856,1.896 -6.505,0.939 -7.088,0.543 -7.32,-0.331 -7.484,-0.948 -7.389,-1.588 -7.067,-2.142 -6.784,-2.63 -6.374,-2.987 -5.85,-3.19 l 0.455,1.714 0.618,-0.164 -0.452,-1.697 c 0.69,-0.064 1.375,0.305 2.765,1.11 C -0.815,-1.27 -0.232,-0.874 0,0 m -6.014,-3.808 c -0.656,0.257 -1.215,0.745 -1.574,1.364 -0.428,0.738 -0.543,1.585 -0.329,2.391 0.296,1.115 0.985,1.528 2.721,2.535 1.747,1.014 2.436,1.399 3.551,1.103 C -0.839,3.371 -0.161,2.852 0.268,2.113 0.695,1.376 0.81,0.528 0.596,-0.277 0.3,-1.392 -0.377,-1.799 -2.125,-2.813 -3.709,-3.732 -4.453,-4.149 -5.396,-3.972 l -0.383,-1.44 -0.617,0.164 z"
             style="fill:#556f7b;fill-opacity:1;fill-rule:nonzero;stroke:none"
             id="path858"
             inkscape:connector-curvature="0" /></g><g
           id="g860"
           transform="translate(123.2168,89.5747)"><path
             d="M 0,0 C -0.604,1.69 0.127,3.297 1.769,3.884 L 7.452,5.916 7.68,5.278 2.08,3.276 C 0.686,2.777 0.082,1.562 0.567,0.203 1.053,-1.156 2.291,-1.712 3.686,-1.214 L 9.286,0.789 9.514,0.151 3.831,-1.881 C 2.189,-2.469 0.604,-1.689 0,0"
             style="fill:#556f7b;fill-opacity:1;fill-rule:nonzero;stroke:none"
             id="path862"
             inkscape:connector-curvature="0" /></g><g
           id="g864"
           transform="translate(134.165,83.9556)"><path
             d="m 0,0 0.894,-5.345 -0.593,-0.099 -0.783,4.676 -3.476,-0.581 0.666,-3.984 -0.595,-0.1 -0.666,3.984 -3.551,-0.593 0.783,-4.677 -0.594,-0.099 -0.895,5.344 z"
             style="fill:#556f7b;fill-opacity:1;fill-rule:nonzero;stroke:none"
             id="path866"
             inkscape:connector-curvature="0" /></g></g></g></g></svg>
