<svg xmlns="http://www.w3.org/2000/svg" width="621.947" height="584.307">
  <path d="M484.17 219.888a150.462 150.462 0 00-.609-6.261c-.812-.795-1.644-1.57-2.405-2.415v.008c-16.552-18.416-29.439-17.635-43.76-4.761v-.006a41.304 41.304 0 01-5.701 4.288c19.626 20.839 35.562 21.722 52.474 9.147M528.99 350.25c-.046-.467-.025-.898-.114-1.391-1.104-6.056-5.003-11.17-8.784-16.027-2.477-3.183-4.968-6.359-7.452-9.54-8.228-4.283-16.8-11.28-25.98-21.49a100.183 100.183 0 00-16.176-14.445c-12.695-3.629-25.555 1.46-40.636 18.24v-.01a72.25 72.25 0 01-44.31 23.324c8.602 11.849 17.805 22.849 20.98 26.822 6.66 8.323 27.507 19.999-5.827 32.506-4.71 1.756-11.927 2.648-11.32 9.226.436 4.86 3.924 10.42 7.064 14.023 1.237 1.413 2.92 2.783 3.456 4.66 1.35 4.696-6.066 7.797-9.058 9.559-3.181 1.873-4.03 2.241-1.79 5.106 1.85 2.342 3.993 4.355 5.664 6.867 3.754 5.667-1.166 7.608-4.831 11.09-.273.26-.483.569-.744.838 3.883 2.677 7.472 5.75 10.617 9.247v-.01c18.72 20.828 33.292 19.944 49.491 5.386v.006c8.237-7.41 19.132-11.924 31.083-11.924 8.381 0 16.201 2.278 22.989 6.159-2.17-8.965-6.776-18.204-3.488-26.645 1.597-4.096 4.27-7.727 5.764-11.848.099-.274.235-.53.324-.807.74-2.35.964-5.132.223-7.513-.207-.664-8.058-6.763-8.354-6.564 3.567-2.403 10.982-5.263 10.059-9.463-.732-3.333-2.987-6.132-4.067-9.37-3.098-9.306 4.226-16.678 12.247-19.687 7.596-2.851 13.828-7.674 12.97-16.324" fill="#424b7e"/>
  <path d="M503.312 458.472c-6.788-3.881-14.608-6.159-22.99-6.159-11.95 0-22.845 4.513-31.082 11.924v-.006c-16.199 14.558-30.77 15.442-49.49-5.386v.01c-3.146-3.498-6.735-6.57-10.618-9.247-3.793 3.921-6.312 8.863-5.96 14.465.848 13.34 17.519 24.176 0 39.18-16.81 14.414-33.637 10.378-53.42 12.262 11.684 8.292 23.464 18.309 35.513 25.72-3.818 2.593-7.712 4.585-11.736 4.585-11.332 0-21.646-15.699-32.117-16.637-5.064-.455-10.381 1.882-15.605 4.51a83.883 83.883 0 015 5.09v-.012c10.946 12.174 26.812 19.834 44.472 19.834 8.444 0 16.457-1.793 23.74-4.953a288.69 288.69 0 012.765-4.408c4.184-6.532 8.521-12.736 12.943-18.49 7.345-9.558 14.91-17.84 22.362-24.254 4.287-3.69 8.535-6.776 12.679-9.101 4.78-2.682 9.425-4.392 13.828-4.92 17.807-2.139 56.22 2.31 60.313-22.907.115-.703.306-1.336.366-2.085.233-2.946-.226-5.963-.963-9.015" fill="#3cbb8e"/>
  <path d="M310.807 538.77v.013a83.883 83.883 0 00-5-5.09c5.224-2.628 10.541-4.965 15.605-4.51 10.47.938 20.785 16.637 32.117 16.637 4.024 0 7.918-1.992 11.736-4.585-12.049-7.411-23.829-17.428-35.513-25.72-.803.076-1.601.145-2.415.242-21.997 2.635-39.869 20.498-53.948 42.422 9.472-4.578 18.83-2.032 30.088 10.494v-.009c8.632 9.602 21.146 15.643 35.074 15.643 10.773 0 20.676-3.645 28.616-9.727a324.048 324.048 0 0111.852-20.928c-7.283 3.16-15.296 4.953-23.74 4.953-17.66 0-33.526-7.66-44.472-19.834" fill="#424b7e"/>
  <path d="M481.796 204.247a149.765 149.765 0 00-11.117-25.916 144.04 144.04 0 00-16.343-23.868c-14.221-16.848-31.917-29.992-51.637-39.511-4.716 3.39-9.394 6.159-14.095 6.58-14.748 1.323-31.192-15.933-44.016-13.732-15.452 2.655-25.276 24.64-36.953 27.59-5.754 1.455-11.611 1.237-17.238.347 8.758 4.546 17.124 9.75 24.892 15.764l.039.028c13.65 10.575 25.53 23.458 35.016 38.619 7.905-4.43 17.045-2.84 26.312 9.907v-.011c7.475 10.27 19.583 16.95 33.256 16.95a40.902 40.902 0 0021.783-6.253 41.304 41.304 0 005.701-4.288v.006c14.321-12.874 27.208-13.655 43.76 4.761v-.008c.761.845 1.593 1.62 2.405 2.415-.461-3.85-1.036-7.119-1.765-9.38" fill="#3cbb8e"/>
  <path d="M499.795 306.203c-1.379-1.934-2.764-3.86-4.09-5.831-4.508-6.704-12.833-17.247-11.778-25.972.417-3.453.758-9.64.945-16.96.145-5.705.193-12.083.099-18.497-.099-6.627-.352-13.227-.802-19.055-16.912 12.575-32.848 11.692-52.474-9.147a40.902 40.902 0 01-21.783 6.254c-13.673 0-25.781-6.682-33.256-16.951v.01c-9.267-12.746-18.407-14.335-26.312-9.906a150.095 150.095 0 0115.683 33.683c4.256 13.205 3.633 58.816 2.157 71.052-.839 6.932 7.895 20.994 17.355 34.028a72.25 72.25 0 0044.309-23.324v.01c15.081-16.78 27.941-21.869 40.636-18.24 5.9 4.226 11.335 9.06 16.176 14.444 9.18 10.211 17.752 17.208 25.98 21.491-4.387-5.619-8.71-11.288-12.845-17.09M130.48 567.019l-26.234-20.579 7.195-9.163 15.425 12.094 5.57-7.106-12.995-10.197 7.193-9.168 12.997 10.19 13.382-17.06 10.812 8.475-33.344 42.514M90.868 488.39l-8.74 14.415 15.816-5.833zm-13.706 30.12l-11.4-13.823 29.236-49.527 9.286 11.263-7.032 11.506 12.182 14.776 12.633-4.708 9.284 11.26-54.189 19.252M60.96 437l9.479-4.515-2.252-4.738c-1.66-3.492-4.573-4.752-7.498-3.358-3.002 1.428-3.642 4.386-1.983 7.866zm-18.264 8.69l7.738-3.68-1.591-3.345c-1.294-2.721-3.42-3.593-5.931-2.397-2.367 1.125-3.103 3.361-1.805 6.083zm-4.616 17.42L30.746 447.7c-5.142-10.795-3.245-19.743 5.397-23.859 3.696-1.75 7.803-1.573 11.563.405.151-5.974 2.796-10.657 7.603-12.945 9.201-4.38 18.125.344 23.765 12.201l7.8 16.376-48.794 23.234M19.277 380.093l10.055-2.126-1.089-5.14c-.721-3.406-3.025-4.968-6.275-4.278-3.022.636-4.498 3-3.779 6.406zm-8.568 15.875l-3.76-17.77c-2.62-12.397 1.888-21.327 12.245-23.514 6.426-1.364 11.813.581 15.632 5.215l19.091-21.015 3.405 16.101-17.249 17.395.67 3.172 20.035-4.233 2.84 13.45-52.909 11.199M.14 323.123L0 309.369l54.087-.544.138 13.754-54.085.544M36.194 240.348c-8.92-1.87-16.613 2.833-18.374 11.22-1.773 8.468 3.46 15.88 12.303 17.733 8.923 1.87 16.619-2.828 18.391-11.296 1.759-8.393-3.474-15.805-12.32-17.657zm32.02-11.2c.227-1.061.41-2.683.205-3.981l11.188 2.344c.404 2.208.45 3.878-.102 6.522-1.363 6.508-5.274 11.604-11.054 15.844l-6.62 4.842c-.006 1.892-.264 3.889-.69 5.932-3.534 16.861-18.795 25.652-33.916 22.484-15.12-3.167-25.56-17.351-22.032-34.212 3.523-16.786 18.782-25.576 33.9-22.41 8.392 1.758 15.285 6.912 19.247 13.98l2.76-1.869c4.42-3.017 6.403-6.076 7.114-9.476M38.864 162.092l6.294-12.228 28.783 14.82c12.78 6.588 16.855 18.067 10.31 30.775-6.508 12.642-18.226 15.993-31.005 9.41l-28.779-14.818 6.298-12.228 29.945 15.422c4.945 2.547 9.492 1.319 12.11-3.761 2.58-5.01.937-9.427-4.008-11.975l-29.948-15.417M65.728 120.921l21.774-25.265 8.832 7.617-12.805 14.846 6.841 5.904 10.785-12.519 8.829 7.612-10.785 12.508 7.598 6.556 12.802-14.852 8.83 7.612-21.774 25.264-40.927-35.283M145.588 48.079l5.872-3.108 53.219 26.552-22.624-42.744 4.366-2.318 25.304 47.799-5.874 3.108-53.219-26.552L175.26 93.56l-4.37 2.317-25.302-47.798M258.72 5.15l4.824-1.087 7.507 33.296c3.022 13.414-3.267 22.744-15.094 25.41-11.83 2.666-21.661-3.033-24.682-16.446l-7.504-33.291 4.821-1.088 7.536 33.447c2.361 10.472 9.772 14.894 18.736 12.874 8.963-2.014 13.757-9.194 11.396-19.666L258.72 5.15M303.421-.004l6.562.345 16.93 30.91L347.005 2.3l6.559.351-2.857 53.992-4.935-.259L348.28 8.95l-19.579 27.963-4.166-.216-16.519-29.88-2.51 47.436-4.938-.257 2.853-53.999M405.648 10.473l11.43-7.364 5.458 1.703-12.465 7.04zm-12.584.932l26.245 8.178-1.31 4.201-21.526-6.705-5.946 19.089 18.576 5.792-1.286 4.125L389.24 40.3l-6.224 19.98 21.528 6.707-1.308 4.201-26.246-8.181 16.075-51.602M454.593 40.139L444.573 57.9l7.132 4.017c6.184 3.496 11.708 2.355 14.939-3.361 3.108-5.516 1.268-10.908-4.92-14.393zm-2.142-6.264l11.302 6.372c9.014 5.09 11.68 13.252 7.315 20.981-3.148 5.587-8.46 8.087-14.639 7.084l2.615 31.363-5.248-2.963-2.027-29.876c-.781-.355-1.557-.7-2.364-1.157l-6.997-3.944-12.223 21.654-4.305-2.428 26.57-47.086M509.053 70.865l3.815 3.147-34.42 41.704-3.81-3.145 34.415-41.706M549.424 153.36c10.267-8.177 12.76-22.404 4.439-32.86-8.422-10.568-22.844-11.323-33.114-3.145-10.273 8.177-12.762 22.404-4.342 32.977 8.32 10.45 22.802 11.157 33.017 3.028zm-20.719 29.53c.867 1.089 1.807 2.015 2.724 2.667l-3.445 2.743c-.976-.604-2.07-1.607-3.083-2.877-2.886-3.626-4.626-8.656-4.534-15.74l.156-9.6c-2.834-1.698-5.479-4.024-7.742-6.868-10.488-13.16-7.34-30.291 4.742-39.911 12.086-9.621 29.476-8.857 39.964 4.31 10.39 13.046 7.24 30.165-4.842 39.798-7.973 6.345-18.181 8.155-27.269 4.928l-.172 7.343c-.097 6.2 1.433 10.601 3.501 13.208M605.064 204.536l1.939 4.545-31.372 13.41c-12.636 5.402-22.948.914-27.714-10.231-4.765-11.14-.942-21.844 11.692-27.247l31.374-13.413 1.945 4.541-31.519 13.472c-9.866 4.224-12.874 12.315-9.265 20.756 3.615 8.447 11.539 11.862 21.404 7.644l31.516-13.477M617.083 245.701l4.866 27.054-4.332.776-3.993-22.183-19.679 3.539 3.446 19.144-4.254.77-3.446-19.149-20.595 3.71 3.997 22.185-4.333.781-4.868-27.048 53.19-9.579" fill="#556bbc"/>
</svg>
