<?xml version="1.0" encoding="UTF-8"?>
<!DOCTYPE svg PUBLIC "-//W3C//DTD SVG 1.1//EN" "http://www.w3.org/Graphics/SVG/1.1/DTD/svg11.dtd">
<svg version="1.1" xmlns="http://www.w3.org/2000/svg" xmlns:xlink="http://www.w3.org/1999/xlink" width="25.999999999999996" height="28" viewBox="0 0 25.999999999999996 28" data-code="62172" data-tags="snowflake-o"><g fill="#444" transform="scale(0.02734375 0.02734375)"><path d="M894.857 638.286l-95.429 18.857 106.286 61.143c17.143 9.714 23.429 32.571 13.143 49.714s-32.571 23.429-49.714 13.143l-106.286-60.571 31.429 91.429c16 45.714-53.714 69.143-69.143 24l-58.286-171.429-154.857-89.143v178.857l118.857 136c32 36-23.429 84.571-54.857 48l-64-73.143v122.286c0 20-16.571 36.571-36.571 36.571s-36.571-16.571-36.571-36.571v-122.286l-64 73.143c-31.429 36.571-86.857-12-54.857-48l118.857-136v-178.857l-154.857 89.143-58.286 171.429c-15.429 45.143-85.143 21.714-69.143-24l31.429-91.429-106.286 60.571c-17.143 10.286-39.429 4-49.714-13.143s-4-40 13.143-49.714l106.286-61.143-95.429-18.857c-47.429-9.714-33.143-81.143 14.286-72l177.143 35.429 154.857-89.714-154.857-89.714-177.143 35.429c-2.286 0.571-5.143 0.571-7.429 0.571-43.429 0-49.714-64-6.857-72.571l95.429-18.857-106.286-61.143c-17.143-9.714-23.429-32.571-13.143-49.714 10.286-17.714 32.571-23.429 49.714-13.143l106.286 60.571-31.429-91.429c-16-45.714 53.714-69.143 69.143-24l58.286 171.429 154.857 89.143v-178.857l-118.857-136c-32-36 23.429-84.571 54.857-48l64 73.143v-122.286c0-20 16.571-36.571 36.571-36.571s36.571 16.571 36.571 36.571v122.286l64-73.143c31.429-36.571 86.857 12 54.857 48l-118.857 136v178.857l154.857-89.143 58.286-171.429c15.429-45.143 85.143-21.714 69.143 24l-31.429 91.429 106.286-60.571c17.143-10.286 39.429-4 49.714 13.143s4 40-13.143 49.714l-106.286 61.143 95.429 18.857c42.857 8.571 36.571 72.571-6.857 72.571-2.286 0-5.143 0-7.429-0.571l-177.143-35.429-154.857 89.714 154.857 89.714 177.143-35.429c47.429-9.143 61.714 62.286 14.286 72z"/></g></svg>