<?xml version="1.0" encoding="UTF-8" standalone="no"?>
<!-- Created with Inkscape (http://www.inkscape.org/) -->

<svg
   width="350mm"
   height="180mm"
   viewBox="0 0 350 180"
   version="1.1"
   id="svg5"
   inkscape:version="1.3 (0e150ed6c4, 2023-07-21)"
   sodipodi:docname="bw2.svg"
   inkscape:export-filename="bw2.png"
   inkscape:export-xdpi="96"
   inkscape:export-ydpi="96"
   xmlns:inkscape="http://www.inkscape.org/namespaces/inkscape"
   xmlns:sodipodi="http://sodipodi.sourceforge.net/DTD/sodipodi-0.dtd"
   xmlns="http://www.w3.org/2000/svg"
   xmlns:svg="http://www.w3.org/2000/svg">
  <sodipodi:namedview
     id="namedview7"
     pagecolor="#ffffff"
     bordercolor="#000000"
     borderopacity="0.25"
     inkscape:showpageshadow="2"
     inkscape:pageopacity="0.0"
     inkscape:pagecheckerboard="0"
     inkscape:deskcolor="#d1d1d1"
     inkscape:document-units="mm"
     showgrid="false"
     inkscape:zoom="1.1104122"
     inkscape:cx="518.72629"
     inkscape:cy="284.12872"
     inkscape:window-width="1920"
     inkscape:window-height="1011"
     inkscape:window-x="0"
     inkscape:window-y="0"
     inkscape:window-maximized="1"
     inkscape:current-layer="layer1"
     showguides="false" />
  <defs
     id="defs2" />
  <g
     inkscape:label="Calque 1"
     inkscape:groupmode="layer"
     id="layer1"
     transform="translate(-12.925031,-5.4200249)">
    <rect
       style="opacity:0.9;fill:#828282;fill-opacity:0.968627;stroke:none;stroke-width:0.765;stroke-opacity:1;stop-color:#000000"
       id="rect234"
       width="45.135674"
       height="24.894888"
       x="157.57922"
       y="81.104607" />
    <text
       xml:space="preserve"
       style="font-size:5.64444px;line-height:1;font-family:sans-serif;-inkscape-font-specification:'sans-serif, Normal';text-decoration-color:#000000;opacity:0.9;fill:#ffffff;fill-opacity:0.971479;stroke:none;stroke-width:0.765;stroke-opacity:1;stop-color:#000000"
       x="180.18427"
       y="89.611557"
       id="text1622"><tspan
         sodipodi:role="line"
         style="font-weight:bold;font-size:5.64444px;text-align:center;text-anchor:middle;fill:#ffffff;fill-opacity:0.971479;stroke:none;stroke-width:0.765;stroke-opacity:1"
         x="180.18427"
         y="89.611557"
         id="tspan9636">Studied</tspan><tspan
         sodipodi:role="line"
         style="font-weight:bold;font-size:5.64444px;text-align:center;text-anchor:middle;fill:#ffffff;fill-opacity:0.971479;stroke:none;stroke-width:0.765;stroke-opacity:1"
         x="180.18427"
         y="95.255997"
         id="tspan12">Activity</tspan><tspan
         sodipodi:role="line"
         style="font-weight:bold;font-size:4.23333px;text-align:center;text-anchor:middle;fill:#ffffff;fill-opacity:0.971479;stroke:none;stroke-width:0.765;stroke-opacity:1"
         x="180.18427"
         y="100.90044"
         id="tspan9664">(product)</tspan></text>
    <rect
       style="opacity:0.9;fill:#828282;fill-opacity:0.968627;stroke:none;stroke-width:0.765;stroke-opacity:1;stop-color:#000000"
       id="rect5870"
       width="50.821899"
       height="26.623482"
       x="93.197182"
       y="80.492447"
       ry="13.126945" />
    <text
       xml:space="preserve"
       style="font-size:5.64444px;line-height:1;font-family:sans-serif;-inkscape-font-specification:'sans-serif, Normal';text-decoration-color:#000000;opacity:0.9;fill:#ffffff;fill-opacity:0.971479;stroke:none;stroke-width:0.765;stroke-opacity:1;stop-color:#000000"
       x="118.76662"
       y="87.041473"
       id="text5874"><tspan
         sodipodi:role="line"
         style="text-align:center;text-anchor:middle;fill:#ffffff;fill-opacity:0.971479;stroke:none;stroke-width:0.765"
         x="118.76662"
         y="87.041473"
         id="tspan5872">Technosphere</tspan><tspan
         sodipodi:role="line"
         style="text-align:center;text-anchor:middle;fill:#ffffff;fill-opacity:0.971479;stroke:none;stroke-width:0.765"
         x="118.76662"
         y="92.685913"
         id="tspan10">Exchange</tspan><tspan
         sodipodi:role="line"
         style="font-size:4.23333px;text-align:center;text-anchor:middle;fill:#ffffff;fill-opacity:0.971479;stroke:none;stroke-width:0.765"
         x="118.76662"
         y="98.330353"
         id="tspan12258">(intermediate</tspan><tspan
         sodipodi:role="line"
         style="font-size:4.23333px;text-align:center;text-anchor:middle;fill:#ffffff;fill-opacity:0.971479;stroke:none;stroke-width:0.765"
         x="118.76662"
         y="103.97479"
         id="tspan12260">product)</tspan></text>
    <rect
       style="opacity:0.9;fill:#b158c6;fill-opacity:0.968627;stroke:none;stroke-width:0.765;stroke-opacity:1;stop-color:#000000"
       id="rect5876"
       width="43.043346"
       height="21.592136"
       x="223.27617"
       y="83.61702"
       ry="10.796068" />
    <text
       xml:space="preserve"
       style="font-size:5.64444px;line-height:1;font-family:sans-serif;-inkscape-font-specification:'sans-serif, Normal';text-decoration-color:#000000;opacity:0.9;fill:#ffffff;fill-opacity:0.971479;stroke:none;stroke-width:0.765;stroke-opacity:1;stop-color:#000000"
       x="244.72859"
       y="90.472588"
       id="text5880"><tspan
         sodipodi:role="line"
         style="text-align:center;text-anchor:middle;fill:#ffffff;fill-opacity:0.971479;stroke:none;stroke-width:0.765"
         x="244.72859"
         y="90.472588"
         id="tspan5878">Exchange</tspan><tspan
         sodipodi:role="line"
         style="font-size:4.23333px;text-align:center;text-anchor:middle;fill:#ffffff;fill-opacity:0.971479;stroke:none;stroke-width:0.765"
         x="244.72859"
         y="96.117027"
         id="tspan9648">(intermediate</tspan><tspan
         sodipodi:role="line"
         style="font-size:4.23333px;text-align:center;text-anchor:middle;fill:#ffffff;fill-opacity:0.971479;stroke:none;stroke-width:0.765"
         x="244.72859"
         y="101.76147"
         id="tspan9652">product)</tspan></text>
    <rect
       style="opacity:0.9;fill:#828282;fill-opacity:0.968627;stroke:none;stroke-width:0.765;stroke-opacity:1;stop-color:#000000"
       id="rect6608"
       width="47.501942"
       height="22.366693"
       x="124.23605"
       y="45.615738"
       ry="10.712488" />
    <text
       xml:space="preserve"
       style="font-size:5.64444px;line-height:1;font-family:sans-serif;-inkscape-font-specification:'sans-serif, Normal';text-decoration-color:#000000;opacity:0.9;fill:#ffffff;fill-opacity:0.971479;stroke:none;stroke-width:0.765;stroke-opacity:1;stop-color:#000000"
       x="148.14545"
       y="52.858589"
       id="text6612"><tspan
         sodipodi:role="line"
         style="text-align:center;text-anchor:middle;fill:#ffffff;fill-opacity:0.971479;stroke:none;stroke-width:0.765"
         x="148.14545"
         y="52.858589"
         id="tspan6610">Technosphere</tspan><tspan
         sodipodi:role="line"
         style="text-align:center;text-anchor:middle;fill:#ffffff;fill-opacity:0.971479;stroke:none;stroke-width:0.765"
         x="148.14545"
         y="58.503029"
         id="tspan9">Exchange</tspan><tspan
         sodipodi:role="line"
         style="font-size:4.23333px;text-align:center;text-anchor:middle;fill:#ffffff;fill-opacity:0.971479;stroke:none;stroke-width:0.765"
         x="148.14545"
         y="64.147469"
         id="tspan9630">(1kWh electricity)</tspan></text>
    <g
       id="path6659">
      <path
         style="color:#000000;fill:#6b6b6b;fill-rule:evenodd;-inkscape-stroke:none"
         d="m 158.21094,67.599609 -0.87696,0.765625 11.48243,13.123047 0.87695,-0.767578 z"
         id="path32" />
      <g
         id="g29">
        <g
           id="path29">
          <path
             style="color:#000000;fill:#6b6b6b;fill-rule:evenodd;-inkscape-stroke:none"
             d="m 171.46844,83.633995 -5.50987,-1.873956 4.38369,-3.83587 z"
             id="path30" />
          <path
             style="color:#000000;fill:#6b6b6b;fill-rule:evenodd;-inkscape-stroke:none"
             d="m 170.59375,77.189453 -5.39648,4.720703 6.78125,2.308594 -0.12891,-0.660156 z m -0.50195,1.470703 0.86523,4.388672 -4.23633,-1.439453 z"
             id="path31" />
        </g>
      </g>
    </g>
    <rect
       style="opacity:0.9;fill:#828282;fill-opacity:0.968627;stroke:none;stroke-width:0.765;stroke-opacity:1;stop-color:#000000"
       id="rect6878"
       width="39.870598"
       height="19.887848"
       x="181.37393"
       y="47.117939"
       ry="9.4593029" />
    <text
       xml:space="preserve"
       style="font-size:5.64444px;line-height:1;font-family:sans-serif;-inkscape-font-specification:'sans-serif, Normal';text-decoration-color:#000000;opacity:0.9;fill:#ffffff;fill-opacity:0.971479;stroke:none;stroke-width:0.765;stroke-opacity:1;stop-color:#000000"
       x="201.18245"
       y="53.282597"
       id="text6882"><tspan
         sodipodi:role="line"
         style="font-size:5.64444px;text-align:center;text-anchor:middle;fill:#ffffff;fill-opacity:0.971479;stroke:none;stroke-width:0.765"
         x="201.18245"
         y="53.282597"
         id="tspan9624">Biosphere</tspan><tspan
         sodipodi:role="line"
         style="font-size:5.64444px;text-align:center;text-anchor:middle;fill:#ffffff;fill-opacity:0.971479;stroke:none;stroke-width:0.765"
         x="201.18245"
         y="58.927036"
         id="tspan8">Exchange</tspan><tspan
         sodipodi:role="line"
         style="font-size:4.23333px;text-align:center;text-anchor:middle;fill:#ffffff;fill-opacity:0.971479;stroke:none;stroke-width:0.765"
         x="201.18245"
         y="64.57148"
         id="tspan9628">(10L water)</tspan></text>
    <rect
       style="opacity:0.9;fill:#828282;fill-opacity:0.968627;stroke:none;stroke-width:0.765;stroke-opacity:1;stop-color:#000000"
       id="rect6884"
       width="39.51379"
       height="22.881859"
       x="140.13972"
       y="118.42847"
       ry="11.440929"
       rx="0" />
    <text
       xml:space="preserve"
       style="font-size:5.64444px;line-height:1;font-family:sans-serif;-inkscape-font-specification:'sans-serif, Normal';text-decoration-color:#000000;opacity:0.9;fill:#ffffff;fill-opacity:0.971479;stroke:none;stroke-width:0.765;stroke-opacity:1;stop-color:#000000"
       x="159.76984"
       y="125.92894"
       id="text6888"><tspan
         sodipodi:role="line"
         style="text-align:center;text-anchor:middle;fill:#ffffff;fill-opacity:0.971479;stroke:none;stroke-width:0.765"
         x="159.76984"
         y="125.92894"
         id="tspan6886">Biosphere</tspan><tspan
         sodipodi:role="line"
         style="text-align:center;text-anchor:middle;fill:#ffffff;fill-opacity:0.971479;stroke:none;stroke-width:0.765"
         x="159.76984"
         y="131.57338"
         id="tspan11">Exchange</tspan><tspan
         sodipodi:role="line"
         style="font-size:4.23333px;text-align:center;text-anchor:middle;fill:#ffffff;fill-opacity:0.971479;stroke:none;stroke-width:0.765"
         x="159.76984"
         y="137.21782"
         id="tspan9632">(2kg CO<tspan
   style="font-size:2.82222px;fill:#ffffff;fill-opacity:0.971479"
   id="tspan9654">2</tspan>)</tspan></text>
    <g
       id="path6894">
      <path
         style="color:#000000;fill:#6b6b6b;fill-rule:evenodd;-inkscape-stroke:none"
         d="m 195.03906,66.712891 -8.17773,14.099609 1.00781,0.583984 8.17773,-14.097656 z"
         id="path28" />
      <g
         id="g25">
        <g
           id="path25">
          <path
             style="color:#000000;fill:#6b6b6b;fill-rule:evenodd;-inkscape-stroke:none"
             d="m 185.67969,84.012072 0.008,-5.819822 5.03893,2.922287 z"
             id="path26" />
          <path
             style="color:#000000;fill:#6b6b6b;fill-rule:evenodd;-inkscape-stroke:none"
             d="m 185.30078,77.519531 -0.01,7.164063 0.58203,-0.333985 5.63086,-3.232422 z m 0.77539,1.345703 3.87305,2.248047 -3.88086,2.228516 z"
             id="path27" />
        </g>
      </g>
    </g>
    <g
       id="path7069">
      <path
         style="color:#000000;fill:#6b6b6b;fill-rule:evenodd;-inkscape-stroke:none"
         d="m 172.69727,105.71484 -6.92969,12.42969 1.01758,0.56836 6.92968,-12.42969 z"
         id="path63" />
      <g
         id="g60">
        <g
           id="path60">
          <path
             style="color:#000000;fill:#6b6b6b;fill-rule:evenodd;-inkscape-stroke:none"
             d="m 164.63921,121.36398 -0.0899,-5.81913 5.08755,2.8368 z"
             id="path61" />
          <path
             style="color:#000000;fill:#6b6b6b;fill-rule:evenodd;-inkscape-stroke:none"
             d="m 164.15039,114.87695 0.11133,7.16407 0.57617,-0.34375 5.57617,-3.32618 z m 0.79688,1.33594 3.9121,2.17969 -3.84179,2.29492 z"
             id="path62" />
        </g>
      </g>
    </g>
    <g
       id="path7149">
      <path
         style="color:#000000;fill:#6b6b6b;fill-rule:evenodd;-inkscape-stroke:none"
         d="m 157.57617,93.0625 -13.55859,0.05469 0.004,1.166016 13.56055,-0.05664 z"
         id="path41" />
      <g
         id="g38">
        <g
           id="path38">
          <path
             style="color:#000000;fill:#6b6b6b;fill-rule:evenodd;-inkscape-stroke:none"
             d="m 160.94022,93.630745 -5.02665,2.933119 -0.0239,-5.824951 z"
             id="path39" />
          <path
             style="color:#000000;fill:#6b6b6b;fill-rule:evenodd;-inkscape-stroke:none"
             d="m 155.49805,90.068359 0.0293,7.169922 6.18946,-3.611328 -0.58399,-0.333984 z m 0.78125,1.341797 3.88476,2.222656 -3.86523,2.25586 z"
             id="path40" />
        </g>
      </g>
    </g>
    <g
       id="path7161">
      <path
         style="color:#000000;fill:#ffffff;fill-rule:evenodd;-inkscape-stroke:none"
         d="m 202.7149,93.852615 20.56496,0.27389"
         id="path19" />
      <path
         style="color:#000000;fill:#a845bf;fill-rule:evenodd;-inkscape-stroke:none"
         d="m 202.72266,93.269531 -0.0156,1.166016 20.56445,0.273437 0.0156,-1.164062 z"
         id="path20" />
      <g
         id="g16">
        <g
           id="path16">
          <path
             style="color:#000000;fill:#a845bf;fill-rule:evenodd;-inkscape-stroke:none"
             d="m 226.64059,94.171264 -5.07696,2.845142 0.0776,-5.824483 z"
             id="path17" />
          <path
             style="color:#000000;fill:#a845bf;fill-rule:evenodd;-inkscape-stroke:none"
             d="m 221.26172,90.513672 -0.0957,7.169922 6.25,-3.501953 -0.57618,-0.34375 z m 0.75781,1.355469 3.8457,2.291015 -3.90429,2.189453 z"
             id="path18" />
        </g>
      </g>
    </g>
    <rect
       style="opacity:0.9;fill:#b158c6;fill-opacity:0.968627;stroke:none;stroke-width:0.77266;stroke-opacity:0.870588;stop-color:#000000"
       id="rect9553"
       width="52.227341"
       height="27.227341"
       x="33.641506"
       y="83.359917" />
    <text
       xml:space="preserve"
       style="font-size:5.64444px;line-height:1;font-family:sans-serif;-inkscape-font-specification:'sans-serif, Normal';text-decoration-color:#000000;opacity:0.9;fill:#ffffff;fill-opacity:0.971479;stroke:none;stroke-width:0.765;stroke-opacity:1;stop-color:#000000"
       x="59.880234"
       y="90.285286"
       id="text9557"><tspan
         sodipodi:role="line"
         style="text-align:center;text-anchor:middle;fill:#ffffff;fill-opacity:0.971479;stroke:none;stroke-width:0.765"
         x="59.880234"
         y="90.285286"
         id="tspan9555">Upstream</tspan><tspan
         sodipodi:role="line"
         style="text-align:center;text-anchor:middle;fill:#ffffff;fill-opacity:0.971479;stroke:none;stroke-width:0.765"
         x="59.880234"
         y="95.929726"
         id="tspan5">Activity</tspan><tspan
         sodipodi:role="line"
         style="font-size:4.23333px;text-align:center;text-anchor:middle;fill:#ffffff;fill-opacity:0.971479;stroke:none;stroke-width:0.765"
         x="59.880234"
         y="101.57417"
         id="tspan14235">(product</tspan><tspan
         sodipodi:role="line"
         style="font-size:4.23333px;text-align:center;text-anchor:middle;fill:#ffffff;fill-opacity:0.971479;stroke:none;stroke-width:0.765"
         x="59.880234"
         y="107.21861"
         id="tspan14237">transformation)</tspan></text>
    <g
       id="path9559">
      <path
         style="color:#000000;fill:#000000;fill-rule:evenodd;-inkscape-stroke:none"
         d="M 85.868847,95.567292 93.24909,95.169844"
         id="path45" />
      <path
         style="color:#000000;fill:#6b6b6b;fill-rule:evenodd;-inkscape-stroke:none"
         d="m 93.216797,94.587891 -7.378906,0.398437 0.0625,1.162109 7.380859,-0.396484 z"
         id="path46" />
      <g
         id="g42">
        <g
           id="path42">
          <path
             style="color:#000000;fill:#6b6b6b;fill-rule:evenodd;-inkscape-stroke:none"
             d="m 96.605251,94.989106 -4.874714,3.179237 -0.313239,-5.816572 z"
             id="path43" />
          <path
             style="color:#000000;fill:#6b6b6b;fill-rule:evenodd;-inkscape-stroke:none"
             d="m 90.994141,91.701172 0.384765,7.160156 6.001953,-3.914062 -0.599609,-0.304688 z m 0.847656,1.300781 3.988281,2.029297 -3.748047,2.443359 z"
             id="path44" />
        </g>
      </g>
    </g>
    <rect
       style="opacity:0.9;fill:#b158c6;fill-opacity:0.968627;stroke:none;stroke-width:0.794731;stroke-opacity:1;stop-color:#000000"
       id="rect9561"
       width="52.205269"
       height="27.205269"
       x="280.35999"
       y="81.879204" />
    <text
       xml:space="preserve"
       style="font-size:5.64444px;line-height:1;font-family:sans-serif;-inkscape-font-specification:'sans-serif, Normal';text-decoration-color:#000000;opacity:0.9;fill:#ffffff;fill-opacity:0.971479;stroke:none;stroke-width:0.765;stroke-opacity:1;stop-color:#000000"
       x="306.42542"
       y="88.793533"
       id="text9565"><tspan
         sodipodi:role="line"
         style="text-align:center;text-anchor:middle;fill:#ffffff;fill-opacity:0.971479;stroke:none;stroke-width:0.765"
         x="306.42542"
         y="88.793533"
         id="tspan9563">Downstream</tspan><tspan
         sodipodi:role="line"
         style="text-align:center;text-anchor:middle;fill:#ffffff;fill-opacity:0.971479;stroke:none;stroke-width:0.765"
         x="306.42542"
         y="94.437973"
         id="tspan3">Activity</tspan><tspan
         sodipodi:role="line"
         style="font-size:4.23333px;text-align:center;text-anchor:middle;fill:#ffffff;fill-opacity:0.971479;stroke:none;stroke-width:0.765"
         x="306.42542"
         y="100.08241"
         id="tspan9640">(product</tspan><tspan
         sodipodi:role="line"
         style="font-size:4.23333px;text-align:center;text-anchor:middle;fill:#ffffff;fill-opacity:0.971479;stroke:none;stroke-width:0.765"
         x="306.42542"
         y="105.72685"
         id="tspan9668">transformation)</tspan></text>
    <g
       id="path9567">
      <path
         style="color:#000000;fill:#a845bf;fill-rule:evenodd;-inkscape-stroke:none"
         d="m 266.32422,94.203125 -0.0215,1.166016 14.04688,0.242187 0.0195,-1.164062 z"
         id="path5" />
      <g
         id="g2">
        <g
           id="path2">
          <path
             style="color:#000000;fill:#a845bf;fill-rule:evenodd;-inkscape-stroke:none"
             d="m 283.72051,95.087681 -5.08834,2.824748 0.10094,-5.824125 z"
             id="path3" />
          <path
             style="color:#000000;fill:#a845bf;fill-rule:evenodd;-inkscape-stroke:none"
             d="m 278.35742,91.408203 -0.125,7.169922 6.26367,-3.476563 -0.57617,-0.345703 z m 0.75195,1.359375 3.83399,2.306641 -3.91211,2.171875 z"
             id="path4" />
        </g>
      </g>
    </g>
    <text
       xml:space="preserve"
       style="font-size:4.23333px;line-height:normal;font-family:sans-serif;-inkscape-font-specification:'sans-serif, Normal';text-align:center;text-decoration-color:#000000;text-anchor:middle;opacity:0.9;fill:#45bfb0;fill-opacity:1;stroke:#45bfb0;stroke-width:1.165;stroke-dasharray:none;stroke-opacity:1;stop-color:#000000"
       x="239.63626"
       y="124.69732"
       id="text9721"><tspan
         sodipodi:role="line"
         style="fill:#45bfb0;fill-opacity:1;stroke:none;stroke-width:1.165"
         x="239.63626"
         y="124.69732"
         id="tspan9938" /></text>
    <g
       id="path13145">
      <path
         style="color:#000000;fill:#a845bf;fill-opacity:0.784314;fill-rule:evenodd;-inkscape-stroke:none"
         d="m 24.503906,91.179687 -0.171875,1.152344 9.22461,1.361328 0.169921,-1.152343 z"
         id="path59" />
      <g
         id="g47">
        <g
           id="path56">
          <path
             style="color:#000000;fill:#a845bf;fill-rule:evenodd;-inkscape-stroke:none"
             d="m 36.966486,93.608958 -5.409992,2.145317 0.850807,-5.76253 z"
             id="path57" />
          <path
             style="color:#000000;fill:#a845bf;fill-rule:evenodd;-inkscape-stroke:none"
             d="m 32.121094,89.269531 -1.046875,7.09375 6.660156,-2.640625 -0.527344,-0.417969 z m 0.572265,1.445313 3.503907,2.78125 -4.158204,1.648437 z"
             id="path58" />
        </g>
        <g
           id="g49"
           transform="matrix(-0.57625299,-0.08508069,0.08508069,-0.57625299,24.417914,91.756228)">
          <g
             id="circle47">
            <path
               style="color:#000000;fill:context-stroke;-inkscape-stroke:none"
               d="M 5,0 A 1,1 0 0 1 4,1 1,1 0 0 1 3,0 1,1 0 0 1 4,-1 1,1 0 0 1 5,0 Z"
               id="path50" />
            <path
               style="color:#000000;fill:context-stroke;-inkscape-stroke:none"
               d="M 4,-1.5 C 3.177496,-1.5 2.5,-0.82250398 2.5,0 2.5,0.82250398 3.177496,1.5 4,1.5 4.822504,1.5 5.5,0.82250398 5.5,0 5.5,-0.82250398 4.822504,-1.5 4,-1.5 Z m 0,1 C 4.2820644,-0.5 4.5,-0.28206441 4.5,0 4.5,0.28206441 4.2820644,0.5 4,0.5 3.7179356,0.5 3.5,0.28206441 3.5,0 3.5,-0.28206441 3.7179356,-0.5 4,-0.5 Z"
               id="path51" />
          </g>
          <g
             id="circle48">
            <path
               style="color:#000000;fill:context-stroke;-inkscape-stroke:none"
               d="M 9,0 A 1,1 0 0 1 8,1 1,1 0 0 1 7,0 1,1 0 0 1 8,-1 1,1 0 0 1 9,0 Z"
               id="path52" />
            <path
               style="color:#000000;fill:context-stroke;-inkscape-stroke:none"
               d="M 8,-1.5 C 7.177496,-1.5 6.5,-0.82250398 6.5,0 6.5,0.82250398 7.177496,1.5 8,1.5 8.822504,1.5 9.5,0.82250398 9.5,0 9.5,-0.82250398 8.822504,-1.5 8,-1.5 Z m 0,1 C 8.2820644,-0.5 8.5,-0.28206441 8.5,0 8.5,0.28206441 8.2820644,0.5 8,0.5 7.7179356,0.5 7.5,0.28206441 7.5,0 7.5,-0.28206441 7.7179356,-0.5 8,-0.5 Z"
               id="path53" />
          </g>
          <g
             id="circle49">
            <path
               style="color:#000000;fill:context-stroke;-inkscape-stroke:none"
               d="m 13,0 a 1,1 0 0 1 -1,1 1,1 0 0 1 -1,-1 1,1 0 0 1 1,-1 1,1 0 0 1 1,1 z"
               id="path54" />
            <path
               style="color:#000000;fill:context-stroke;-inkscape-stroke:none"
               d="m 12,-1.5 c -0.822504,0 -1.5,0.67749602 -1.5,1.5 0,0.82250398 0.677496,1.5 1.5,1.5 0.822504,0 1.5,-0.67749602 1.5,-1.5 0,-0.82250398 -0.677496,-1.5 -1.5,-1.5 z m 0,1 c 0.282064,0 0.5,0.21793559 0.5,0.5 0,0.28206441 -0.217936,0.5 -0.5,0.5 -0.282064,0 -0.5,-0.21793559 -0.5,-0.5 0,-0.28206441 0.217936,-0.5 0.5,-0.5 z"
               id="path55" />
          </g>
        </g>
      </g>
    </g>
    <g
       id="path13234">
      <path
         style="color:#000000;fill:#a845bf;fill-rule:evenodd;-inkscape-stroke:none"
         d="m 332.56641,94.990234 -0.004,1.166016 17.72656,0.0625 0.004,-1.166016 z"
         id="path15" />
      <g
         id="g6">
        <g
           id="g8"
           transform="matrix(0.58249638,0.00204955,-0.00204955,0.58249638,350.29128,95.636052)">
          <g
             id="circle6">
            <path
               style="color:#000000;fill:context-stroke;-inkscape-stroke:none"
               d="M 5,0 A 1,1 0 0 1 4,1 1,1 0 0 1 3,0 1,1 0 0 1 4,-1 1,1 0 0 1 5,0 Z"
               id="path9" />
            <path
               style="color:#000000;fill:context-stroke;-inkscape-stroke:none"
               d="M 4,-1.5 C 3.177496,-1.5 2.5,-0.82250398 2.5,0 2.5,0.82250398 3.177496,1.5 4,1.5 4.822504,1.5 5.5,0.82250398 5.5,0 5.5,-0.82250398 4.822504,-1.5 4,-1.5 Z m 0,1 C 4.2820644,-0.5 4.5,-0.28206441 4.5,0 4.5,0.28206441 4.2820644,0.5 4,0.5 3.7179356,0.5 3.5,0.28206441 3.5,0 3.5,-0.28206441 3.7179356,-0.5 4,-0.5 Z"
               id="path10" />
          </g>
          <g
             id="circle7">
            <path
               style="color:#000000;fill:context-stroke;-inkscape-stroke:none"
               d="M 9,0 A 1,1 0 0 1 8,1 1,1 0 0 1 7,0 1,1 0 0 1 8,-1 1,1 0 0 1 9,0 Z"
               id="path11" />
            <path
               style="color:#000000;fill:context-stroke;-inkscape-stroke:none"
               d="M 8,-1.5 C 7.177496,-1.5 6.5,-0.82250398 6.5,0 6.5,0.82250398 7.177496,1.5 8,1.5 8.822504,1.5 9.5,0.82250398 9.5,0 9.5,-0.82250398 8.822504,-1.5 8,-1.5 Z m 0,1 C 8.2820644,-0.5 8.5,-0.28206441 8.5,0 8.5,0.28206441 8.2820644,0.5 8,0.5 7.7179356,0.5 7.5,0.28206441 7.5,0 7.5,-0.28206441 7.7179356,-0.5 8,-0.5 Z"
               id="path12" />
          </g>
          <g
             id="circle8">
            <path
               style="color:#000000;fill:context-stroke;-inkscape-stroke:none"
               d="m 13,0 a 1,1 0 0 1 -1,1 1,1 0 0 1 -1,-1 1,1 0 0 1 1,-1 1,1 0 0 1 1,1 z"
               id="path13" />
            <path
               style="color:#000000;fill:context-stroke;-inkscape-stroke:none"
               d="m 12,-1.5 c -0.822504,0 -1.5,0.67749602 -1.5,1.5 0,0.82250398 0.677496,1.5 1.5,1.5 0.822504,0 1.5,-0.67749602 1.5,-1.5 0,-0.82250398 -0.677496,-1.5 -1.5,-1.5 z m 0,1 c 0.282064,0 0.5,0.21793559 0.5,0.5 0,0.28206441 -0.217936,0.5 -0.5,0.5 -0.282064,0 -0.5,-0.21793559 -0.5,-0.5 0,-0.28206441 0.217936,-0.5 0.5,-0.5 z"
               id="path14" />
          </g>
        </g>
      </g>
    </g>
    <text
       xml:space="preserve"
       style="font-size:4.23333px;line-height:normal;font-family:sans-serif;-inkscape-font-specification:'sans-serif, Normal';text-align:center;text-decoration-color:#000000;text-anchor:middle;opacity:0.9;fill:#a845bf;fill-opacity:1;stroke:none;stroke-width:1.165;stroke-dasharray:none;stroke-opacity:1;stop-color:#000000"
       x="218.02818"
       y="101.44056"
       id="text14328"><tspan
         sodipodi:role="line"
         style="fill:#a845bf;fill-opacity:1;stroke-width:1.165"
         x="218.02818"
         y="101.44056"
         id="tspan20415">input</tspan></text>
    <text
       xml:space="preserve"
       style="font-size:4.23333px;line-height:normal;font-family:sans-serif;-inkscape-font-specification:'sans-serif, Normal';text-align:center;text-decoration-color:#000000;text-anchor:middle;opacity:0.9;fill:#a845bf;fill-opacity:1;stroke:none;stroke-width:1.165;stroke-dasharray:none;stroke-opacity:1;stop-color:#000000"
       x="274.09418"
       y="100.8022"
       id="text14332"><tspan
         sodipodi:role="line"
         style="fill:#a845bf;fill-opacity:1;stroke-width:1.165"
         x="274.09418"
         y="100.8022"
         id="tspan20417">output</tspan></text>
    <rect
       style="opacity:0.9;fill:#45bfb0;fill-opacity:1;stroke:none;stroke-width:0.753626;stroke-opacity:1;stop-color:#000000"
       id="rect18462"
       width="52.246372"
       height="27.246374"
       x="199.39943"
       y="10.141212" />
    <text
       xml:space="preserve"
       style="font-size:5.64444px;line-height:1;font-family:sans-serif;-inkscape-font-specification:'sans-serif, Normal';text-decoration-color:#000000;opacity:0.9;fill:#ffffff;fill-opacity:0.971479;stroke:none;stroke-width:0.765;stroke-opacity:1;stop-color:#000000"
       x="225.73561"
       y="17.739023"
       id="text18470"><tspan
         sodipodi:role="line"
         style="font-size:5.64444px;text-align:center;text-anchor:middle;fill:#ffffff;fill-opacity:0.971479;stroke:none;stroke-width:0.765"
         x="225.73561"
         y="17.739023"
         id="tspan18464">Elementary Flow</tspan><tspan
         sodipodi:role="line"
         style="font-size:5.64444px;text-align:center;text-anchor:middle;fill:#ffffff;fill-opacity:0.971479;stroke:none;stroke-width:0.765"
         x="225.73561"
         y="23.383463"
         id="tspan6">Activity</tspan><tspan
         sodipodi:role="line"
         style="font-size:4.23333px;text-align:center;text-anchor:middle;fill:#ffffff;fill-opacity:0.971479;stroke:none;stroke-width:0.765"
         x="225.73561"
         y="29.027905"
         id="tspan18468">(consumption of water</tspan><tspan
         sodipodi:role="line"
         style="font-size:4.23333px;text-align:center;text-anchor:middle;fill:#ffffff;fill-opacity:0.971479;stroke:none;stroke-width:0.765"
         x="225.73561"
         y="34.672344"
         id="tspan18474">from the environment)</tspan></text>
    <rect
       style="opacity:0.9;fill:#b158c6;fill-opacity:0.968627;stroke:none;stroke-width:0.778863;stroke-opacity:1;stop-color:#000000"
       id="rect18476"
       width="52.221138"
       height="27.221136"
       x="116.30801"
       y="9.1241941" />
    <text
       xml:space="preserve"
       style="font-size:5.64444px;line-height:1;font-family:sans-serif;-inkscape-font-specification:'sans-serif, Normal';text-decoration-color:#000000;opacity:0.9;fill:#ffffff;fill-opacity:0.971479;stroke:none;stroke-width:0.765;stroke-opacity:1;stop-color:#000000"
       x="142.19632"
       y="15.885222"
       id="text18484"><tspan
         sodipodi:role="line"
         style="font-size:5.64444px;text-align:center;text-anchor:middle;fill:#ffffff;fill-opacity:0.971479;stroke:none;stroke-width:0.765"
         x="142.19632"
         y="15.885222"
         id="tspan18478">Upstream</tspan><tspan
         sodipodi:role="line"
         style="font-size:5.64444px;text-align:center;text-anchor:middle;fill:#ffffff;fill-opacity:0.971479;stroke:none;stroke-width:0.765"
         x="142.19632"
         y="21.529663"
         id="tspan4">Activity</tspan><tspan
         sodipodi:role="line"
         style="font-size:4.23333px;text-align:center;text-anchor:middle;fill:#ffffff;fill-opacity:0.971479;stroke:none;stroke-width:0.765"
         x="142.19632"
         y="27.174103"
         id="tspan18482">(production of</tspan><tspan
         sodipodi:role="line"
         style="font-size:4.23333px;text-align:center;text-anchor:middle;fill:#ffffff;fill-opacity:0.971479;stroke:none;stroke-width:0.765"
         x="142.19632"
         y="32.818542"
         id="tspan19298">electricity)</tspan></text>
    <g
       id="path19302">
      <path
         style="color:#000000;fill:#000000;fill-rule:evenodd;-inkscape-stroke:none"
         d="m 144.64348,36.34533 1.51542,9.270408"
         id="path36" />
      <path
         style="color:#000000;fill:#6b6b6b;fill-rule:evenodd;-inkscape-stroke:none"
         d="m 145.21875,36.251953 -1.15039,0.1875 1.51562,9.269531 1.15039,-0.1875 z"
         id="path37" />
      <g
         id="g33">
        <g
           id="path33">
          <path
             style="color:#000000;fill:#6b6b6b;fill-rule:evenodd;-inkscape-stroke:none"
             d="m 146.70112,48.932737 -3.68721,-4.502758 5.74869,-0.939732 z"
             id="path34" />
          <path
             style="color:#000000;fill:#6b6b6b;fill-rule:evenodd;-inkscape-stroke:none"
             d="m 149.36328,42.998047 -7.07617,1.158203 4.53906,5.542969 0.23828,-0.628907 z m -1.20117,0.984375 -1.58594,4.185547 -2.83594,-3.464844 z"
             id="path35" />
        </g>
      </g>
    </g>
    <g
       id="path19314">
      <path
         style="color:#000000;fill:#6b6b6b;fill-rule:evenodd;-inkscape-stroke:none"
         d="m 215.14453,37.044922 -7.07617,9.730469 0.94336,0.685546 7.07617,-9.730468 z"
         id="path24" />
      <g
         id="g21">
        <g
           id="path21">
          <path
             style="color:#000000;fill:#6b6b6b;fill-rule:evenodd;-inkscape-stroke:none"
             d="m 206.56359,49.836236 0.6078,-5.788003 4.71109,3.425827 z"
             id="path22" />
          <path
             style="color:#000000;fill:#6b6b6b;fill-rule:evenodd;-inkscape-stroke:none"
             d="m 206.85547,43.337891 -0.74805,7.125 0.61328,-0.271485 5.9336,-2.634765 z m 0.63086,1.419921 3.62304,2.634766 -4.08984,1.816406 z"
             id="path23" />
        </g>
      </g>
    </g>
    <rect
       style="opacity:0.9;fill:#45bfb0;fill-opacity:1;stroke:none;stroke-width:0.734356;stroke-opacity:1;stop-color:#000000"
       id="rect19328"
       width="52.265644"
       height="27.265644"
       x="128.79596"
       y="154.25082" />
    <text
       xml:space="preserve"
       style="font-size:5.64444px;line-height:1;font-family:sans-serif;-inkscape-font-specification:'sans-serif, Normal';text-decoration-color:#000000;opacity:0.9;fill:#ffffff;fill-opacity:0.971479;stroke:none;stroke-width:0.765;stroke-opacity:1;stop-color:#000000"
       x="154.77025"
       y="161.28217"
       id="text19336"><tspan
         sodipodi:role="line"
         style="font-size:5.64444px;text-align:center;text-anchor:middle;fill:#ffffff;fill-opacity:0.971479;stroke:none;stroke-width:0.765"
         x="154.77025"
         y="161.28217"
         id="tspan19330">Elementary Flow</tspan><tspan
         sodipodi:role="line"
         style="font-size:5.64444px;text-align:center;text-anchor:middle;fill:#ffffff;fill-opacity:0.971479;stroke:none;stroke-width:0.765"
         x="154.77025"
         y="166.92661"
         id="tspan7">Activity</tspan><tspan
         sodipodi:role="line"
         style="font-size:4.23333px;text-align:center;text-anchor:middle;fill:#ffffff;fill-opacity:0.971479;stroke:none;stroke-width:0.765"
         x="154.77025"
         y="172.57104"
         id="tspan19334">(emission of CO<tspan
   style="font-size:2.82222px;fill:#ffffff;fill-opacity:0.971479"
   id="tspan20176">2</tspan></tspan><tspan
         sodipodi:role="line"
         style="font-size:4.23333px;text-align:center;text-anchor:middle;fill:#ffffff;fill-opacity:0.971479;stroke:none;stroke-width:0.765"
         x="154.77025"
         y="178.21548"
         id="tspan20174">into the air)</tspan></text>
    <g
       id="path19340">
      <path
         style="color:#000000;fill:#000000;fill-rule:evenodd;-inkscape-stroke:none"
         d="m 156.71037,154.25082 1.69111,-12.94049"
         id="path67" />
      <path
         style="color:#000000;fill:#6b6b6b;fill-rule:evenodd;-inkscape-stroke:none"
         d="m 157.82422,141.23437 -1.69141,12.94141 1.1543,0.15039 1.69141,-12.93945 z"
         id="path68" />
      <g
         id="g64">
        <g
           id="path64">
          <path
             style="color:#000000;fill:#6b6b6b;fill-rule:evenodd;-inkscape-stroke:none"
             d="m 156.27484,157.58351 -2.23503,-5.37355 5.77589,0.75482 z"
             id="path65" />
          <path
             style="color:#000000;fill:#6b6b6b;fill-rule:evenodd;-inkscape-stroke:none"
             d="m 153.42187,151.73828 2.75196,6.61524 0.41015,-0.53321 3.94922,-5.15429 z m 1.23438,0.94531 4.44141,0.57813 -2.72266,3.55273 z"
             id="path66" />
        </g>
      </g>
    </g>
    <text
       xml:space="preserve"
       style="font-size:4.23333px;line-height:normal;font-family:sans-serif;-inkscape-font-specification:'sans-serif, Normal';text-align:center;text-decoration-color:#000000;text-anchor:middle;opacity:0.9;fill:#000101;fill-opacity:1;stroke:none;stroke-width:1.165;stroke-dasharray:none;stroke-opacity:1;stop-color:#000000"
       x="199.97914"
       y="45.298542"
       id="text20279"><tspan
         sodipodi:role="line"
         id="tspan20277"
         style="fill:#000101;fill-opacity:1;stroke-width:1.165"
         x="199.97914"
         y="45.298542">input</tspan></text>
    <text
       xml:space="preserve"
       style="font-size:4.23333px;line-height:normal;font-family:sans-serif;-inkscape-font-specification:'sans-serif, Normal';text-align:center;text-decoration-color:#000000;text-anchor:middle;opacity:0.9;fill:#000101;fill-opacity:1;stroke:none;stroke-width:1.165;stroke-dasharray:none;stroke-opacity:1;stop-color:#000000"
       x="155.09116"
       y="44.423729"
       id="text20283"><tspan
         sodipodi:role="line"
         id="tspan20281"
         style="fill:#000101;fill-opacity:1;stroke-width:1.165"
         x="155.09116"
         y="44.423729">input</tspan></text>
    <text
       xml:space="preserve"
       style="font-size:4.23333px;line-height:normal;font-family:sans-serif;-inkscape-font-specification:'sans-serif, Normal';text-align:center;text-decoration-color:#000000;text-anchor:middle;opacity:0.9;fill:#000101;fill-opacity:1;stroke:none;stroke-width:1.165;stroke-dasharray:none;stroke-opacity:1;stop-color:#000000"
       x="202.7374"
       y="70.92028"
       id="text20287"><tspan
         sodipodi:role="line"
         id="tspan20285"
         style="fill:#000101;fill-opacity:1;stroke-width:1.165"
         x="202.7374"
         y="70.92028">output</tspan></text>
    <text
       xml:space="preserve"
       style="font-size:4.23333px;line-height:normal;font-family:sans-serif;-inkscape-font-specification:'sans-serif, Normal';text-align:center;text-decoration-color:#000000;text-anchor:middle;opacity:0.9;fill:#000101;fill-opacity:1;stroke:none;stroke-width:1.165;stroke-dasharray:none;stroke-opacity:1;stop-color:#000000"
       x="149.54173"
       y="71.994591"
       id="text20291"><tspan
         sodipodi:role="line"
         style="fill:#000101;fill-opacity:1;stroke-width:1.165"
         x="149.54173"
         y="71.994591"
         id="tspan20423">output</tspan></text>
    <text
       xml:space="preserve"
       style="font-size:4.23333px;line-height:normal;font-family:sans-serif;-inkscape-font-specification:'sans-serif, Normal';text-align:center;text-decoration-color:#000000;text-anchor:middle;opacity:0.9;fill:#000101;fill-opacity:0.901961;stroke:none;stroke-width:1.165;stroke-dasharray:none;stroke-opacity:1;stop-color:#000000"
       x="177.32101"
       y="116.90179"
       id="text20295"><tspan
         sodipodi:role="line"
         style="fill:#000101;fill-opacity:0.901961;stroke-width:1.165"
         x="177.32101"
         y="116.90179"
         id="tspan20425">output</tspan></text>
    <text
       xml:space="preserve"
       style="font-size:4.23333px;line-height:normal;font-family:sans-serif;-inkscape-font-specification:'sans-serif, Normal';text-align:center;text-decoration-color:#000000;text-anchor:middle;opacity:0.9;fill:#000101;fill-opacity:1;stroke:none;stroke-width:1.165;stroke-dasharray:none;stroke-opacity:1;stop-color:#000000"
       x="165.20375"
       y="145.80159"
       id="text20299"><tspan
         sodipodi:role="line"
         id="tspan20297"
         style="fill:#000101;fill-opacity:1;stroke-width:1.165"
         x="165.20375"
         y="145.80159">input</tspan></text>
    <text
       xml:space="preserve"
       style="font-size:4.23333px;line-height:normal;font-family:sans-serif;-inkscape-font-specification:'sans-serif, Normal';text-align:center;text-decoration-color:#000000;text-anchor:middle;opacity:0.9;fill:#000101;fill-opacity:1;stroke:none;stroke-width:1.165;stroke-dasharray:none;stroke-opacity:1;stop-color:#000000"
       x="90.665359"
       y="101.01929"
       id="text20303"><tspan
         sodipodi:role="line"
         style="fill:#000101;fill-opacity:1;stroke-width:1.165"
         x="90.665359"
         y="101.01929"
         id="tspan20419">input</tspan></text>
    <text
       xml:space="preserve"
       style="font-size:4.23333px;line-height:normal;font-family:sans-serif;-inkscape-font-specification:'sans-serif, Normal';text-align:center;text-decoration-color:#000000;text-anchor:middle;opacity:0.9;fill:#000101;fill-opacity:1;stroke:none;stroke-width:1.165;stroke-dasharray:none;stroke-opacity:1;stop-color:#000000"
       x="149.353"
       y="99.461128"
       id="text20307"><tspan
         sodipodi:role="line"
         style="fill:#000101;fill-opacity:1;stroke-width:1.165"
         x="149.353"
         y="99.461128"
         id="tspan20421">output</tspan></text>
  </g>
</svg>
